SplineFontDB: 3.0
FontName: Mill
FullName: Mill
FamilyName: Mill
Weight: Thin
Copyright: Created by Mathieu,,, with FontForge 2.0 (http://fontforge.sf.net)
Version: 001.000
ItalicAngle: 0
UnderlinePosition: -204
UnderlineWidth: 102
Ascent: 1638
Descent: 410
UFOAscent: 1638
UFODescent: -410
LayerCount: 2
Layer: 0 0 "Arri+AOgA-re"  1
Layer: 1 0 "Avant"  0
OS2Version: 0
OS2_WeightWidthSlopeOnly: 0
OS2_UseTypoMetrics: 0
CreationTime: 1350900721
ModificationTime: 1351005622
PfmFamily: 0
TTFWeight: 100
TTFWidth: 5
LineGap: 184
VLineGap: 0
Panose: 2 0 2 3 0 0 0 0 0 0
OS2TypoAscent: 1638
OS2TypoAOffset: 0
OS2TypoDescent: -410
OS2TypoDOffset: 0
OS2TypoLinegap: 184
OS2WinAscent: 1365
OS2WinAOffset: 0
OS2WinDescent: 379
OS2WinDOffset: 0
HheadAscent: 1365
HheadAOffset: 0
HheadDescent: -379
HheadDOffset: 0
OS2SubXSize: 1331
OS2SubYSize: 1433
OS2SubXOff: 0
OS2SubYOff: 286
OS2SupXSize: 1331
OS2SupYSize: 1433
OS2SupXOff: 0
OS2SupYOff: 983
OS2StrikeYSize: 102
OS2StrikeYPos: 530
OS2Vendor: 'PfEd'
OS2CodePages: 00000001.00000000
OS2UnicodeRanges: 00000007.00000022.00000000.00000000
DEI: 91125

StartChar: .notdef
Encoding: 65536 -1 0
Width: 748
VWidth: 0
Flags: W
HStem: 0 68<136 544> 1297 68<136 544>
VStem: 68 68<68 1297> 544 68<68 1297>
LayerCount: 2
UndoRedoHistory
Layer: 1
Undoes
EndUndoes
Redoes
EndRedoes
EndUndoRedoHistory
Fore
SplineSet
68 0 m 1
 68 1365 l 1
 612 1365 l 1
 612 0 l 1
 68 0 l 1
136 68 m 1
 544 68 l 1
 544 1297 l 1
 136 1297 l 1
 136 68 l 1
EndSplineSet
Validated: 1
EndChar

StartChar: exclam
Encoding: 33 33 2
Width: 281
VWidth: 0
GlyphClass: 2
Flags: W
HStem: -0 33<121.965 161.049>
VStem: 87 34<33.3992 74.6985> 124 36<220.037 937.963> 162 33<33.4373 74.6604>
LayerCount: 2
UndoRedoHistory
Layer: 1
Undoes
EndUndoes
Redoes
EndRedoes
EndUndoRedoHistory
Fore
SplineSet
141 938 m 0
 146 938 150 936 154 932 c 0
 158 928 160 924 160 920 c 2
 160 919 l 1
 160 239 l 2
 160 234 158 230 154 226 c 0
 150 222 146 220 141 220 c 0
 136 220 132 222 129 226 c 0
 125 230 124 234 124 239 c 2
 124 919 l 1
 124 920 l 2
 124 924 125 928 129 932 c 0
 132 936 136 938 141 938 c 0
142 109 m 1
 157 108 170 102 180 92 c 0
 190 81 195 68 195 53 c 0
 195 39 190 26 180 16 c 0
 170 6 158 0 143 -0 c 2
 142 -0 l 1
 141 -0 l 1
 139 -0 l 2
 125 0 112 6 102 16 c 0
 92 26 87 39 87 53 c 0
 87 68 93 81 103 92 c 1
 114 102 127 108 142 109 c 1
141 75 m 2
 135 75 131 73 127 69 c 0
 123 65 121 60 121 54 c 0
 121 48 123 43 127 39 c 0
 131 35 135 33 141 33 c 2
 142 33 l 2
 148 33 152 35 156 39 c 0
 160 43 162 48 162 54 c 0
 162 60 160 65 156 69 c 0
 152 73 148 75 142 75 c 2
 141 75 l 2
EndSplineSet
Validated: 5
EndChar

StartChar: quotedbl
Encoding: 34 34 3
Width: 429
VWidth: 0
GlyphClass: 2
Flags: W
HStem: 1107 36<141.057 159 276 294> 1182 35<128.826 164.859 263.649 284 285 299.812>
VStem: 92.9098 35.3402<1142 1157 1157.07 1182.67> 134 34<975.188 1044.02> 303.375 34.9491<1143.9 1176.8>
LayerCount: 2
UndoRedoHistory
Layer: 1
Undoes
EndUndoes
Redoes
EndRedoes
EndUndoRedoHistory
Fore
SplineSet
150 1218 m 0
 152 1218 155 1217 161 1217 c 1
 176 1213 188 1204 196 1191 c 0
 204 1178 206 1164 202 1149 c 0
 199 1135 192 1125 180 1117 c 0
 168 1109 155 1106 141 1108 c 1
 168 991 l 1
 168 988 l 2
 168 983 166 979 163 975 c 0
 159 971 155 970 151 970 c 0
 141 970 136 974 134 983 c 2
 95 1149 l 1
 95 1150 l 1
 93.7639320225 1155.5623059 92.9098300563 1160.74264579 92.9098300563 1165.77708764 c 0
 92.9098300563 1168.88854382 93.2360679775 1171.94427191 94 1175 c 0
 97 1188 104 1199 114 1207 c 0
 124 1215 136 1218 150 1218 c 0
285 1217 m 2
 296 1217 l 1
 311 1213 322 1204 330 1191 c 0
 335.667979023 1181.78953409 338.324146839 1172.07709964 338.324146839 1161.86269666 c 0
 338.324146839 1157.66010489 337.874507866 1153.37253933 337 1149 c 1
 333 1135 326 1124 314 1116 c 0
 302 1108 289 1105 275 1107 c 1
 303 991 l 1
 303 989 l 2
 303 988 304 987 304 987 c 1
 304 982 302 978 298 975 c 0
 294 971 290 970 286 970 c 0
 276 970 271 974 269 983 c 2
 230 1148 l 1
 229 1149 l 1
 227 1157 227 1166 229 1175 c 0
 232 1188 239 1198 250 1206 c 0
 260 1214 272 1217 285 1217 c 2
149 1183 m 1
 138 1183 131 1177 129 1167 c 0
 128.5 1165 128.25 1163.25 128.25 1161.625 c 0
 128.25 1160 128.5 1158.5 129 1157 c 1
 130 1157 l 1
 130 1155 l 1
 133 1142 l 1
 135 1143 137 1144 139 1144 c 2
 139 1144 140 1143 142 1143 c 2
 144 1143 l 1
 145.771243445 1142.29150262 147.542486889 1141.95948165 149.313730334 1141.95948165 c 0
 159 1145 l 0
 163 1148 166 1152 167 1158 c 0
 168 1163 167 1168 165 1173 c 1
 162 1177 158 1180 153 1182 c 1
 151 1182 l 2
 150 1182 149 1183 149 1183 c 1
284 1183 m 1
 273 1183 266 1177 264 1167 c 0
 263.5 1165 263.25 1163.25 263.25 1161.625 c 0
 263.25 1160 263.5 1158.5 264 1157 c 1
 264 1156 l 1
 265 1155 l 1
 267 1142 l 1
 269 1143 272 1144 275 1144 c 1
 276 1143 l 1
 279 1143 l 1
 280.771243445 1142.29150262 282.542486889 1141.95948165 284.313730334 1141.95948165 c 0
 294 1145 l 1
 298.29993617 1148.22495213 303.375 1153.41640682 303.375 1160.75 c 0
 303.375 1164.5 302.25 1168.25 300 1172 c 0
 296 1177 292 1180 288 1182 c 1
 285 1182 l 1
 284 1183 l 1
EndSplineSet
Validated: 524289
EndChar

StartChar: numbersign
Encoding: 35 35 4
Width: 664
VWidth: 0
GlyphClass: 2
Flags: W
HStem: -0 21G<103.5 110.5 330.5 337.5> 377 36<88.0007 165 208 392 436 577.999> 679 36<93.1414 230 274 456 501 577.963> 1074 20G<328 335 555 562>
VStem: 88 35<5.1875 79.873> 315 35<5.1875 80.7175>
LayerCount: 2
UndoRedoHistory
Layer: 1
Undoes
EndUndoes
Redoes
EndRedoes
EndUndoRedoHistory
Fore
SplineSet
333 1094 m 0
 337 1094 341 1092 345 1089 c 0
 349 1085 351 1081 351 1076 c 1
 350 1074 l 1
 350 1072 l 1
 274 715 l 1
 464 715 l 1
 542 1081 l 2
 544 1089 550 1094 560 1094 c 0
 564 1094 568 1092 572 1089 c 0
 576 1085 578 1081 578 1076 c 1
 577 1074 l 1
 577 1072 l 1
 501 715 l 1
 560 715 l 2
 564 715 568 714 572 710 c 0
 576 707 578 703 578 698 c 0
 578 693 576 689 572 685 c 0
 568 681 564 679 560 679 c 2
 493 679 l 1
 436 413 l 1
 560 413 l 2
 564 413 568 412 572 408 c 0
 576 404 578 400 578 395 c 0
 578 391 576 387 572 383 c 0
 568 379 564 377 560 377 c 2
 428 377 l 1
 350 14 l 2
 348 4 342 -0 333 -0 c 0
 328 -0 324 1 320 5 c 0
 316 9 315 13 315 17 c 2
 315 21 l 1
 392 377 l 1
 202 377 l 1
 123 14 l 2
 121 4 115 -0 106 -0 c 0
 101 -0 97 1 93 5 c 0
 89 9 88 13 88 17 c 2
 88 21 l 1
 165 377 l 1
 106 377 l 1
 105 377 l 2
 100 377 96 379 93 383 c 0
 89 387 88 391 88 395 c 0
 88 400 89 404 93 408 c 0
 96 412 100 414 105 414 c 2
 106 414 l 1
 173 414 l 1
 230 680 l 1
 106 680 l 1
 105 680 l 2
 100 680 96 681 93 685 c 0
 89 689 88 693 88 698 c 0
 88 703 89 707 93 711 c 0
 96 714 100 716 105 716 c 2
 106 716 l 1
 237 716 l 1
 315 1081 l 2
 317 1089 323 1094 333 1094 c 0
265 679 m 1
 208 413 l 1
 398 413 l 1
 456 679 l 1
 265 679 l 1
EndSplineSet
Validated: 1
EndChar

StartChar: dollar
Encoding: 36 36 5
Width: 882
VWidth: 0
GlyphClass: 2
Flags: W
HStem: -0 35<374 490> 679 36<374 490> 1059 35<374 490>
VStem: 83 35<250.817 370.812> 159 35<717.63 902.298> 228 101<583.404 619.06> 339 35<-145.812 5 51 662 709 1036 1086 1238.81> 490 36<-145.812 2 46 668 712 1043 1089 1239.81> 688 35<798.188 901.433> 763 36<251.108 461.691>
LayerCount: 2
UndoRedoHistory
Layer: 1
Undoes
EndUndoes
Redoes
EndRedoes
EndUndoRedoHistory
Fore
SplineSet
356 1245 m 0
 361 1245 365 1243 369 1239 c 0
 372 1235 374 1231 374 1227 c 2
 374 1086 l 1
 395 1090 417 1093 441 1094 c 0
 455 1094 472 1092 490 1089 c 1
 490 1227 l 2
 490 1232 491 1236 495 1240 c 0
 498 1243 502 1245 507 1245 c 2
 508 1245 l 2
 512 1245 516 1243 520 1239 c 0
 524 1235 526 1231 526 1227 c 2
 526 1081 l 1
 583 1062 630 1028 667 978 c 0
 704 929 723 873 723 811 c 0
 723 806 721 802 718 798 c 1
 714 795 710 793 705 793 c 0
 700 793 696 795 693 798 c 0
 689 802 688 806 688 811 c 0
 688 864 673 911 643 953 c 0
 613 996 574 1025 526 1043 c 1
 526 705 l 1
 605 686 670 644 722 579 c 0
 773 515 799 441 799 357 c 0
 799 274 773 200 722 135 c 1
 670 71 605 29 526 9 c 1
 526 -134 l 2
 526 -138 524 -142 520 -146 c 0
 516 -149 512 -151 508 -151 c 0
 503 -151 499 -149 495 -146 c 0
 491 -142 490 -138 490 -134 c 2
 490 2 l 1
 475 0 459 -0 441 -0 c 0
 419 -0 397 1 374 5 c 1
 374 -134 l 2
 374 -138 372 -142 369 -146 c 1
 365 -149 361 -151 356 -151 c 0
 351 -151 347 -149 344 -146 c 0
 340 -142 339 -138 339 -134 c 2
 339 14 l 1
 264 36 203 79 155 142 c 0
 107 206 83 277 83 357 c 2
 83 358 l 2
 83 363 84 367 88 371 c 0
 91 375 95 376 100 376 c 0
 105 376 109 375 113 371 c 0
 116 367 118 363 118 358 c 2
 118 357 l 2
 118 287 138 223 179 167 c 0
 220 111 273 73 339 51 c 1
 339 662 l 1
 314 654 291 644 271 631 c 1
 286 617 302 605 320 595 c 1
 326 593 329 588 329 580 c 0
 329 575 327 571 323 567 c 0
 319 564 315 562 311 562 c 0
 307 562 304 563 302 564 c 0
 277 578 254 597 233 619 c 0
 230 623 228 625 228 625 c 2
 182 679 159 741 159 811 c 0
 159 870 175 923 208 971 c 0
 241 1019 285 1053 339 1075 c 1
 339 1227 l 2
 339 1231 340 1235 344 1239 c 0
 347 1243 351 1245 356 1245 c 0
441 1059 m 0
 420 1059 398 1055 374 1049 c 1
 374 709 l 1
 397 713 419 715 441 715 c 0
 459 715 475 714 490 712 c 1
 490 1054 l 1
 474 1057 457 1059 441 1059 c 0
339 1036 m 1
 295 1016 260 985 234 945 c 0
 207 905 194 860 194 811 c 0
 194 753 211 702 247 658 c 1
 277 677 307 691 339 700 c 1
 339 1036 l 1
441 679 m 0
 418 679 396 677 374 672 c 1
 374 41 l 1
 393 37 415 35 441 35 c 0
 459 35 475 36 490 38 c 1
 490 675 l 1
 472 678 455 679 441 679 c 0
526 668 m 1
 526 46 l 1
 595 65 652 103 696 160 c 0
 740 218 763 283 763 357 c 0
 763 431 740 497 696 554 c 0
 652 612 595 650 526 668 c 1
EndSplineSet
Validated: 1
EndChar

StartChar: percent
Encoding: 37 37 6
Width: 878
VWidth: 0
GlyphClass: 2
Flags: W
HStem: 0 33<535.506 644.494> 227 33<535.997 644.003> 832 33<233.506 342> 1059 33<233.997 340.805>
VStem: 157 34<905.644 1016.68> 385 33<907.989 1015> 459 34<74.6001 184.689> 687 33<76.2776 183.011>
LayerCount: 2
UndoRedoHistory
Layer: 1
Undoes
EndUndoes
Redoes
EndRedoes
EndUndoRedoHistory
Fore
SplineSet
778 1093 m 2
 779 1093 l 2
 784 1093 788 1091 791 1087 c 0
 795 1083 796 1079 796 1075 c 0
 796 1071 796 1067 794 1065 c 2
 113 7 l 2
 110 1 105 -0 98 -0 c 0
 93 -0 89 0 86 4 c 1
 82 7 81 11 81 16 c 0
 81 19 82 22 84 26 c 2
 765 1085 l 1
 767 1090 772 1093 778 1093 c 2
288 1092 m 0
 324 1092 354 1079 380 1053 c 0
 405 1027 418 997 418 961 c 0
 418 925 405 895 380 870 c 0
 354 844 324 832 288 832 c 0
 252 832 222 844 196 870 c 0
 170 895 157 925 157 961 c 0
 157 997 170 1027 196 1053 c 0
 222 1079 252 1092 288 1092 c 0
288 1059 m 0
 261 1059 238 1049 219 1030 c 0
 200 1011 191 988 191 961 c 0
 191 934 200 911 219 893 c 0
 238 874 261 865 288 865 c 0
 314 865 337 874 356 893 c 0
 375 911 385 934 385 961 c 0
 385 988 375 1011 356 1030 c 0
 337 1049 314 1059 288 1059 c 0
590 260 m 0
 626 260 656 247 682 221 c 0
 707 195 720 165 720 129 c 0
 720 93 707 63 682 38 c 0
 656 12 626 0 590 0 c 0
 554 0 524 12 498 38 c 0
 472 63 459 93 459 129 c 0
 459 165 472 195 498 221 c 0
 524 247 554 260 590 260 c 0
590 227 m 0
 563 227 540 217 521 198 c 0
 502 179 493 156 493 130 c 0
 493 103 502 80 521 61 c 0
 540 42 563 33 590 33 c 0
 617 33 640 42 659 61 c 0
 677 80 687 103 687 130 c 0
 687 156 677 179 659 198 c 0
 640 217 617 227 590 227 c 0
EndSplineSet
Validated: 1
EndChar

StartChar: ampersand
Encoding: 38 38 7
Width: 1000
VWidth: 0
GlyphClass: 2
Flags: W
HStem: 0 36<338.025 551.508> 680 36<336.075 551.766> 1059 35<354.948 534.397>
VStem: 88 35<251.912 462.625> 164 34<721.869 900.283> 692 35<719.047 903.714>
LayerCount: 2
UndoRedoHistory
Layer: 1
Undoes
EndUndoes
Redoes
EndRedoes
EndUndoRedoHistory
Fore
SplineSet
446 1094 m 0
 523 1094 589 1066 644 1011 c 0
 700 955 727 889 727 812 c 0
 727 740 703 677 655 623 c 0
 651 619 647 617 642 617 c 0
 638 617 635 618 632 620 c 0
 576 660 513 680 445 680 c 0
 409 680 376 675 345 665 c 1
 343 663 341 663 338 663 c 0
 334 663 330 664 326 668 c 0
 323 672 321 676 321 681 c 0
 321 685 323 688 325 692 c 1
 328 695 331 697 334 698 c 0
 371 710 408 716 445 716 c 0
 515 716 579 697 639 659 c 1
 675 703 692 754 692 812 c 0
 692 880 668 938 620 986 c 0
 572 1034 513 1059 445 1059 c 0
 419 1059 393 1055 368 1047 c 0
 345 1039 323 1027 302 1012 c 0
 270 989 245 960 226 925 c 0
 208 890 198 852 198 812 c 0
 198 778 205 746 217 716 c 1
 225 700 243 676 271 644 c 1
 309 605 l 1
 729 204 l 1
 752 241 779 288 810 345 c 2
 884 480 l 1
 886 486 892 490 900 490 c 0
 904 490 908 488 912 485 c 0
 916 481 918 477 918 472 c 0
 918 468 917 465 915 463 c 0
 892 420 868 375 842 328 c 0
 802 256 774 207 757 179 c 1
 912 31 l 2
 916 27 918 22 918 18 c 0
 918 13 916 9 912 5 c 0
 908 1 904 0 899 0 c 0
 894 0 890 1 887 5 c 2
 736 149 l 1
 703 103 661 66 610 40 c 0
 559 13 504 0 446 0 c 0
 380 0 320 16 266 48 c 0
 211 80 168 123 136 178 c 0
 104 233 88 293 88 358 c 0
 88 414 100 467 125 517 c 0
 149 566 183 607 227 641 c 1
 209 661 196 681 186 701 c 1
 185 701 l 1
 171 735 164 772 164 812 c 0
 164 858 174 901 195 941 c 0
 216 981 245 1015 281 1041 c 1
 281 1041 281 1042 282 1042 c 2
 284 1042 l 1
 305 1058 330 1070 359 1080 c 0
 387 1089 416 1094 446 1094 c 0
251 615 m 1
 211 584 180 546 157 502 c 0
 134 457 123 409 123 358 c 0
 123 299 137 245 166 196 c 1
 194 146 233 107 283 79 c 0
 333 50 387 36 446 36 c 0
 498 36 548 48 594 72 c 0
 640 96 678 128 708 170 c 1
 708 170 708 171 709 172 c 2
 710 174 l 1
 286 579 l 2
 275 589 263 601 251 615 c 1
EndSplineSet
Validated: 1
EndChar

StartChar: quoteright
Encoding: 8217 8217 8
Width: 300
VWidth: 0
GlyphClass: 2
Flags: W
HStem: 1059 35<134.312 173.696>
VStem: 100 34<852.507 862 1019.4 1058.78> 171 39<1028 1058.89>
LayerCount: 2
UndoRedoHistory
Layer: 1
Undoes
EndUndoes
Redoes
EndRedoes
EndUndoRedoHistory
Fore
SplineSet
155 1094 m 0
 170 1094 183 1088 194 1078 c 0
 205 1067 210 1054 210 1039 c 0
 210 1029 208 1020 204 1014 c 1
 204 1013 l 1
 203 1012 l 1
 202 1012 l 1
 127 862 l 1
 125 855 120 852 112 852 c 0
 107 852 103 853 100 857 c 0
 96 861 95 865 95 870 c 0
 95 871 95 873 96 877 c 2
 150 984 l 1
 136 985 124 991 114 1002 c 0
 104 1012 100 1025 100 1039 c 0
 100 1054 105 1067 116 1078 c 0
 126 1088 139 1094 155 1094 c 0
154 1059 m 0
 148 1059 144 1057 140 1053 c 0
 136 1049 134 1045 134 1039 c 0
 134 1033 136 1029 140 1025 c 0
 144 1021 148 1019 154 1019 c 2
 155 1019 l 2
 158 1019 161 1018 164 1016 c 1
 171 1028 l 1
 171 1029 l 1
 172 1030 l 2
 174 1032 174 1035 174 1039 c 0
 174 1045 172 1049 168 1053 c 0
 164 1057 160 1059 154 1059 c 0
EndSplineSet
Validated: 1
EndChar

StartChar: parenleft
Encoding: 40 40 9
Width: 386
VWidth: 0
GlyphClass: 2
Flags: W
VStem: 90 34<260.623 695.908>
LayerCount: 2
UndoRedoHistory
Layer: 1
Undoes
EndUndoes
Redoes
EndRedoes
EndUndoRedoHistory
Fore
SplineSet
290 1217 m 0
 294 1217 298 1215 302 1212 c 0
 306 1208 308 1204 308 1200 c 0
 308 1196 307 1194 305 1192 c 0
 280 1145 259 1101 242 1060 c 0
 205 973 176 880 155 779 c 0
 135 681 124 580 124 478 c 0
 124 376 135 276 155 177 c 0
 176 76 205 -17 242 -103 c 0
 258 -141 279 -185 305 -233 c 0
 307 -235 308 -238 308 -241 c 0
 308 -246 306 -250 302 -254 c 0
 298 -257 294 -259 290 -259 c 0
 282 -259 277 -256 275 -250 c 1
 249 -204 228 -159 210 -117 c 0
 170 -24 141 71 121 170 c 0
 100 271 90 374 90 478 c 0
 90 583 100 686 121 786 c 0
 141 886 170 982 210 1075 c 0
 228 1117 249 1162 275 1209 c 0
 277 1214 282 1217 290 1217 c 0
EndSplineSet
Validated: 1
EndChar

StartChar: parenright
Encoding: 41 41 10
Width: 384
VWidth: 0
GlyphClass: 2
Flags: W
VStem: 80 33<1178.45 1211.81> 262 36<246.359 711.296>
LayerCount: 2
UndoRedoHistory
Layer: 1
Undoes
EndUndoes
Redoes
EndRedoes
EndUndoRedoHistory
Fore
SplineSet
97 1217 m 2
 98 1217 l 2
 105 1217 110 1214 113 1209 c 0
 138 1162 160 1117 178 1075 c 0
 217 982 247 886 267 787 c 0
 287 686 298 583 298 479 c 0
 298 374 287 271 267 171 c 0
 247 71 217 -24 178 -116 c 0
 160 -159 138 -203 113 -249 c 0
 110 -255 105 -258 98 -258 c 0
 93 -258 89 -257 85 -253 c 0
 81 -250 80 -246 80 -241 c 0
 80 -238 81 -235 83 -232 c 0
 106 -189 127 -146 145 -103 c 0
 182 -15 211 78 232 178 c 0
 252 274 262 374 262 479 c 0
 262 583 252 684 232 780 c 0
 212 878 183 971 145 1060 c 0
 125 1106 105 1150 83 1192 c 0
 81 1194 80 1196 80 1200 c 0
 80 1204 81 1208 85 1212 c 0
 88 1215 92 1217 97 1217 c 2
EndSplineSet
Validated: 1
EndChar

StartChar: asterisk
Encoding: 42 42 11
Width: 593
VWidth: 0
GlyphClass: 2
Flags: W
HStem: 992 37<90.0068 253 339 503.987>
VStem: 279 35<808.188 967 1054 1211.81>
LayerCount: 2
UndoRedoHistory
Layer: 1
Undoes
EndUndoes
Redoes
EndRedoes
EndUndoRedoHistory
Fore
SplineSet
296 1217 m 0
 301 1217 305 1215 308 1212 c 0
 312 1208 313 1204 313 1200 c 2
 313 1054 l 1
 417 1157 l 2
 421 1160 426 1162 430 1162 c 0
 435 1162 439 1160 443 1157 c 0
 447 1153 449 1149 449 1144 c 0
 449 1139 447 1135 443 1132 c 2
 339 1029 l 1
 485 1029 l 1
 486 1029 l 2
 490 1029 494 1027 498 1023 c 0
 502 1019 504 1015 504 1011 c 0
 504 1006 502 1002 498 998 c 0
 494 994 490 992 486 992 c 2
 485 992 l 1
 339 992 l 1
 443 888 l 2
 446 886 448 882 448 877 c 0
 448 872 446 868 442 864 c 0
 438 860 434 858 430 858 c 0
 425 858 421 860 418 863 c 2
 314 967 l 1
 314 821 l 1
 314 820 l 2
 314 816 312 812 309 808 c 1
 305 805 301 803 296 803 c 0
 291 803 287 805 284 808 c 0
 280 812 279 816 279 820 c 2
 279 821 l 1
 279 967 l 1
 176 863 l 2
 172 860 168 858 163 858 c 0
 158 858 154 860 150 864 c 0
 146 868 144 872 144 876 c 0
 144 881 146 885 150 888 c 2
 253 992 l 1
 107 992 l 2
 102 992 98 994 95 998 c 0
 91 1002 90 1006 90 1011 c 0
 90 1015 91 1019 95 1023 c 0
 98 1027 102 1029 108 1029 c 2
 254 1029 l 1
 151 1132 l 2
 147 1135 145 1139 145 1144 c 0
 145 1149 146 1153 150 1157 c 0
 154 1160 158 1162 163 1162 c 0
 167 1162 172 1160 176 1157 c 2
 279 1054 l 1
 279 1200 l 2
 279 1204 280 1208 284 1212 c 0
 287 1215 291 1217 296 1217 c 0
EndSplineSet
Validated: 1
EndChar

StartChar: plus
Encoding: 43 43 12
Width: 738
VWidth: 0
GlyphClass: 2
Flags: W
HStem: 380 36<96.1875 351 388 648.963>
VStem: 351 37<117.013 380 416 670.812>
LayerCount: 2
UndoRedoHistory
Layer: 1
Undoes
EndUndoes
Redoes
EndRedoes
EndUndoRedoHistory
Fore
SplineSet
370 676 m 0
 374 676 378 674 382 671 c 0
 386 667 388 663 388 659 c 2
 388 416 l 1
 631 416 l 2
 635 416 639 414 643 410 c 0
 647 406 649 402 649 397 c 0
 649 392 647 388 643 385 c 0
 639 381 635 380 631 380 c 2
 388 380 l 1
 388 137 l 1
 388 136 l 2
 388 131 386 127 382 123 c 0
 378 119 374 117 370 117 c 0
 365 117 361 119 357 123 c 0
 353 127 351 131 351 136 c 2
 351 137 l 1
 351 380 l 1
 108 380 l 2
 104 380 100 381 96 385 c 0
 93 388 91 392 91 397 c 0
 91 402 93 406 96 410 c 0
 100 414 104 416 108 416 c 2
 351 416 l 1
 351 659 l 2
 351 663 353 667 357 671 c 0
 361 674 365 676 370 676 c 0
EndSplineSet
Validated: 1
EndChar

StartChar: comma
Encoding: 44 44 13
Width: 299
VWidth: 0
GlyphClass: 2
Flags: W
HStem: 75 35<136.77 172.814>
VStem: 98 36<-126.812 -122 37.8878 71.7939> 170 39<44 74.887>
LayerCount: 2
UndoRedoHistory
Layer: 1
Undoes
EndUndoes
Redoes
EndRedoes
EndUndoRedoHistory
Fore
SplineSet
153 110 m 0
 168 110 181 104 192 94 c 0
 203 83 209 70 209 55 c 0
 209 46 206 38 202 30 c 1
 202 29 l 1
 202 28 l 1
 126 -122 l 2
 123 -128 118 -132 111 -132 c 0
 106 -132 102 -130 98 -127 c 0
 94 -123 93 -119 93 -114 c 0
 93 -112 93 -110 95 -107 c 2
 148 -0 l 1
 134 1 122 7 112 18 c 0
 102 28 98 41 98 55 c 0
 98 70 103 83 114 94 c 0
 124 104 137 110 153 110 c 0
153 75 m 0
 147 75 143 73 139 69 c 0
 135 65 134 61 134 55 c 0
 134 49 135 44 139 40 c 0
 143 36 147 35 153 35 c 0
 157 35 160 34 164 32 c 1
 170 44 l 1
 170 45 l 1
 171 45 l 1
 172 48 173 51 173 55 c 0
 173 61 171 65 167 69 c 0
 163 73 159 75 153 75 c 0
EndSplineSet
Validated: 1
EndChar

StartChar: hyphen
Encoding: 45 45 14
Width: 758
VWidth: 0
GlyphClass: 2
Flags: W
HStem: 380 36<97.0366 661.981>
VStem: 97 565<380 416>
LayerCount: 2
UndoRedoHistory
Layer: 1
Undoes
EndUndoes
Redoes
EndRedoes
EndUndoRedoHistory
Fore
SplineSet
116 416 m 2
 644 416 l 1
 645 416 l 2
 650 416 654 414 657 410 c 0
 661 406 662 402 662 397 c 0
 662 392 661 388 657 385 c 1
 654 381 650 380 645 380 c 2
 644 380 l 1
 115 380 l 2
 111 380 107 381 103 385 c 0
 99 388 97 392 97 397 c 0
 97 402 99 406 103 410 c 0
 107 414 111 416 116 416 c 2
EndSplineSet
Validated: 1
EndChar

StartChar: period
Encoding: 46 46 15
Width: 296
VWidth: 0
GlyphClass: 2
Flags: W
HStem: 0 35<131.77 167.814> 75 36<131.77 167.841>
VStem: 93 36<38.1427 71.7939> 168 36<35.0958 74.8408>
LayerCount: 2
UndoRedoHistory
Layer: 1
Undoes
EndUndoes
Redoes
EndRedoes
EndUndoRedoHistory
Fore
SplineSet
148 111 m 0
 163 111 176 105 187 94 c 0
 198 83 204 70 204 55 c 0
 204 39 198 26 187 16 c 0
 176 5 163 0 148 0 c 0
 132 -0 119 5 109 16 c 1
 98 26 93 39 93 55 c 0
 93 70 98 83 109 94 c 0
 119 105 132 111 148 111 c 0
148 75 m 0
 142 75 138 73 134 69 c 0
 130 65 129 61 129 55 c 0
 129 49 130 45 134 41 c 0
 138 37 142 35 148 35 c 0
 154 35 158 37 162 41 c 0
 166 45 168 49 168 55 c 0
 168 61 166 65 162 69 c 0
 158 73 154 75 148 75 c 0
EndSplineSet
Validated: 1
EndChar

StartChar: slash
Encoding: 47 47 16
Width: 872
VWidth: 0
GlyphClass: 2
Flags: W
VStem: 78 33<-248.812 -245>
LayerCount: 2
UndoRedoHistory
Layer: 1
Undoes
EndUndoes
Redoes
EndRedoes
EndUndoRedoHistory
Fore
SplineSet
777 1217 m 2
 781 1217 785 1215 788 1212 c 0
 792 1208 793 1204 793 1200 c 0
 793 1198 793 1195 791 1192 c 2
 111 -245 l 2
 109 -251 103 -254 95 -254 c 0
 90 -254 86 -252 83 -249 c 0
 79 -245 78 -241 78 -237 c 0
 78 -233 78 -231 79 -229 c 2
 760 1207 l 2
 762 1213 768 1217 776 1217 c 2
 777 1217 l 2
EndSplineSet
Validated: 1
EndChar

StartChar: zero
Encoding: 48 48 17
Width: 896
VWidth: 0
GlyphClass: 2
Flags: W
HStem: 0 36<341.765 556.281> 1059 35<344.182 551.248>
VStem: 92 35<253.059 840.941> 771 36<253.059 840.025>
LayerCount: 2
UndoRedoHistory
Layer: 1
Undoes
EndUndoes
Redoes
EndRedoes
EndUndoRedoHistory
Fore
SplineSet
449 1094 m 6
 450 1094 l 5
 514 1093 574 1077 629 1045 c 4
 683 1013 727 969 759 915 c 4
 791 860 807 800 807 736 c 6
 807 358 l 6
 807 293 791 233 759 178 c 4
 727 123 683 80 629 48 c 4
 574 16 514 0 450 0 c 6
 449 0 l 6
 384 0 324 16 269 48 c 4
 214 80 171 123 139 178 c 4
 107 233 92 293 92 358 c 6
 92 736 l 6
 92 801 107 861 139 916 c 4
 171 970 214 1014 269 1046 c 4
 324 1078 384 1094 449 1094 c 6
448 1059 m 4
 390 1059 336 1044 287 1015 c 4
 237 986 198 947 170 898 c 4
 141 848 127 794 127 736 c 6
 127 358 l 6
 127 299 141 245 170 196 c 5
 198 146 237 107 287 79 c 5
 336 50 390 36 449 36 c 6
 450 36 l 6
 508 36 562 50 611 79 c 4
 660 108 699 147 728 197 c 4
 756 246 771 300 771 358 c 6
 771 736 l 6
 771 794 756 848 728 898 c 5
 699 947 660 986 610 1015 c 4
 560 1044 506 1059 448 1059 c 4
EndSplineSet
Validated: 1
EndChar

StartChar: one
Encoding: 49 49 18
Width: 516
VWidth: 0
GlyphClass: 2
Flags: W
HStem: -0 21G<398.5 403.5> 1074 20G<398.5 403.5>
VStem: 383 36<5.1875 1025>
LayerCount: 2
UndoRedoHistory
Layer: 1
Undoes
EndUndoes
Redoes
EndRedoes
EndUndoRedoHistory
Fore
SplineSet
401 1094 m 5
 406 1094 410 1092 414 1089 c 4
 418 1085 419 1081 419 1076 c 6
 419 18 l 6
 419 13 418 9 414 5 c 4
 410 1 406 -0 401 -0 c 4
 396 -0 392 1 388 5 c 4
 385 9 383 13 383 18 c 6
 383 1025 l 5
 112 687 l 6
 108 682 104 680 98 680 c 4
 94 680 90 681 86 685 c 4
 82 689 80 693 80 698 c 4
 80 703 82 707 84 710 c 6
 386 1088 l 5
 391 1092 396 1094 401 1094 c 5
EndSplineSet
Validated: 1
EndChar

StartChar: two
Encoding: 50 50 19
Width: 734
VWidth: 0
GlyphClass: 2
Flags: W
HStem: -0 36<138 649.963> 530 35<274.363 379.812> 1059 35<274.296 459.356>
VStem: 85 35<718.92 903.356> 614 36<719.535 904.827>
LayerCount: 2
UndoRedoHistory
Layer: 1
Undoes
EndUndoes
Redoes
EndRedoes
EndUndoRedoHistory
Fore
SplineSet
367 1094 m 4
 445 1094 511 1066 567 1011 c 5
 622 955 650 889 650 812 c 4
 650 748 630 690 591 640 c 5
 138 36 l 5
 632 36 l 6
 636 36 640 34 644 30 c 4
 648 26 650 22 650 17 c 4
 650 13 648 9 644 5 c 4
 640 1 636 -0 632 -0 c 6
 102 -0 l 6
 97 -0 93 1 89 5 c 4
 85 9 84 13 84 17 c 4
 84 20 85 23 88 27 c 6
 563 661 l 6
 597 706 614 756 614 811 c 4
 614 879 590 938 542 986 c 4
 494 1034 435 1059 367 1059 c 4
 298 1059 240 1034 192 986 c 4
 144 938 120 879 120 811 c 4
 120 743 144 685 192 637 c 4
 240 589 298 565 367 565 c 6
 368 565 l 6
 372 565 376 563 380 559 c 4
 383 555 385 551 385 546 c 4
 385 541 383 537 380 534 c 4
 376 531 372 530 368 530 c 6
 367 530 l 6
 289 530 222 557 167 612 c 4
 112 667 85 733 85 811 c 4
 85 889 112 955 167 1011 c 4
 222 1066 289 1094 367 1094 c 4
EndSplineSet
Validated: 1
EndChar

StartChar: three
Encoding: 51 51 20
Width: 855
VWidth: 0
GlyphClass: 2
Flags: W
HStem: 0 36<306.392 518.67> 680 36<307.338 517.611> 1059 35<322.372 505.356>
VStem: 660 36<718.65 905.077> 735 35<253.146 464.216>
LayerCount: 2
UndoRedoHistory
Layer: 1
Undoes
EndUndoes
Redoes
EndRedoes
EndUndoRedoHistory
Fore
SplineSet
413 1094 m 4
 491 1094 557 1066 613 1011 c 5
 668 955 696 889 696 812 c 4
 696 746 676 688 636 637 c 5
 645 630 655 621 666 610 c 4
 698 577 724 539 742 496 c 4
 760 452 770 406 770 358 c 4
 770 293 754 233 722 178 c 4
 690 123 646 80 591 48 c 4
 536 16 476 0 412 0 c 4
 364 -0 318 9 273 28 c 4
 230 46 192 71 160 104 c 4
 126 138 100 176 83 219 c 5
 81 221 81 223 81 225 c 4
 81 229 82 233 86 237 c 4
 90 241 94 243 99 243 c 4
 107 243 112 239 116 232 c 5
 132 193 155 159 185 130 c 5
 215 99 249 76 287 61 c 5
 327 44 368 36 412 36 c 4
 470 36 524 50 574 79 c 4
 623 107 662 146 691 196 c 4
 720 245 735 299 735 358 c 4
 735 447 703 523 641 586 c 5
 627 598 614 609 602 619 c 4
 601 619 600 619 599 620 c 6
 598 621 l 5
 542 660 480 680 412 680 c 4
 368 680 327 671 287 655 c 4
 285 654 282 654 280 654 c 4
 275 654 271 655 267 659 c 4
 263 662 262 666 262 671 c 4
 262 679 265 684 273 688 c 4
 318 706 364 716 412 716 c 4
 483 716 548 697 607 659 c 5
 642 703 660 754 660 812 c 4
 660 880 636 938 588 986 c 4
 540 1034 481 1059 413 1059 c 4
 345 1059 287 1034 239 986 c 4
 235 982 231 981 226 981 c 4
 221 981 217 982 213 986 c 4
 209 989 208 993 208 999 c 4
 208 1003 210 1007 214 1011 c 4
 268 1066 335 1094 413 1094 c 4
EndSplineSet
Validated: 1
EndChar

StartChar: four
Encoding: 52 52 21
Width: 882
VWidth: 0
GlyphClass: 2
Flags: W
HStem: -0 21G<629.5 634> 377 37<133 614 650 795.812> 696 20G<629.5 634> 1074 20G<476.5 482.5>
VStem: 614 36<5.1875 377 414 710.812>
LayerCount: 2
UndoRedoHistory
Layer: 1
Undoes
EndUndoes
Redoes
EndRedoes
EndUndoRedoHistory
Fore
SplineSet
480 1094 m 4
 485 1094 489 1092 493 1089 c 5
 496 1085 498 1081 498 1076 c 4
 498 1072 497 1070 496 1068 c 6
 133 414 l 5
 614 414 l 5
 614 698 l 6
 614 703 615 707 619 711 c 4
 623 714 627 716 632 716 c 4
 636 716 640 714 644 711 c 4
 648 707 650 703 650 698 c 6
 650 414 l 5
 782 414 l 5
 783 414 l 6
 788 414 792 412 796 408 c 4
 799 404 801 400 801 396 c 4
 801 391 799 387 796 383 c 4
 792 379 788 377 783 377 c 6
 782 377 l 5
 650 377 l 5
 650 17 l 6
 650 13 648 9 644 5 c 4
 640 1 636 -0 632 -0 c 4
 627 -0 623 1 619 5 c 4
 615 9 614 13 614 17 c 6
 614 377 l 5
 102 377 l 6
 97 377 93 379 89 383 c 4
 85 387 84 391 84 396 c 4
 84 399 85 402 87 405 c 6
 465 1085 l 6
 468 1091 473 1094 480 1094 c 4
EndSplineSet
Validated: 1
EndChar

StartChar: five
Encoding: 53 53 22
Width: 855
VWidth: 0
GlyphClass: 2
Flags: W
HStem: -0 35<306.656 515.854> 679 36<305.718 518.478> 1059 35<165 685.812>
VStem: 130 35<616 1059> 734 35<251.715 463.088>
LayerCount: 2
UndoRedoHistory
Layer: 1
Undoes
EndUndoes
Redoes
EndRedoes
EndUndoRedoHistory
Fore
SplineSet
148 1094 m 6
 673 1094 l 6
 678 1094 682 1092 686 1089 c 4
 690 1085 691 1081 691 1076 c 4
 691 1071 690 1067 686 1064 c 4
 682 1060 678 1059 673 1059 c 6
 165 1059 l 5
 165 616 l 5
 234 682 316 715 411 715 c 4
 476 715 536 699 591 667 c 4
 646 635 689 592 721 537 c 4
 753 482 769 422 769 357 c 4
 769 293 753 233 721 178 c 4
 689 123 646 79 591 47 c 4
 536 15 476 -0 411 -0 c 4
 364 -0 318 9 272 27 c 5
 230 45 192 71 159 103 c 4
 125 137 100 176 82 218 c 4
 81 220 80 222 80 224 c 4
 80 229 82 233 86 237 c 4
 90 241 94 242 98 242 c 4
 106 242 112 239 115 231 c 4
 131 193 154 159 184 129 c 4
 214 99 248 76 286 60 c 4
 326 44 368 35 411 35 c 4
 470 35 524 50 573 78 c 4
 623 107 662 146 691 195 c 4
 720 245 734 299 734 357 c 4
 734 416 720 470 691 519 c 4
 662 569 623 608 573 636 c 5
 524 665 470 679 411 679 c 4
 362 679 316 669 273 648 c 4
 229 627 193 598 163 560 c 4
 159 556 154 553 148 553 c 6
 147 553 l 5
 145 553 l 5
 143 553 l 5
 143 554 l 5
 141 554 l 5
 133 557 130 563 130 572 c 6
 130 573 l 5
 130 1076 l 6
 130 1081 131 1085 135 1089 c 4
 139 1092 143 1094 148 1094 c 6
EndSplineSet
Validated: 1
EndChar

StartChar: six
Encoding: 54 54 23
Width: 892
VWidth: 0
GlyphClass: 2
Flags: W
HStem: 0 36<340.597 556.28> 680 36<342.987 554.785> 1059 35<345.964 551.337>
VStem: 92 35<250.376 840.025> 772 35<253.146 462.044>
LayerCount: 2
UndoRedoHistory
Layer: 1
Undoes
EndUndoes
Redoes
EndRedoes
EndUndoRedoHistory
Fore
SplineSet
450 1094 m 4
 498 1094 545 1084 589 1066 c 5
 630 1048 668 1023 702 989 c 4
 736 955 761 917 779 876 c 4
 780 873 781 870 781 868 c 4
 781 862 779 858 775 855 c 4
 771 851 767 850 763 850 c 4
 754 850 748 853 746 861 c 5
 730 899 707 934 677 964 c 4
 647 994 613 1017 575 1033 c 4
 533 1050 492 1059 450 1059 c 4
 391 1059 337 1044 287 1015 c 4
 237 986 198 947 170 898 c 4
 141 848 127 794 127 736 c 6
 127 514 l 5
 157 574 200 623 258 660 c 4
 316 697 380 716 450 716 c 4
 514 716 574 700 629 668 c 4
 683 636 727 592 759 537 c 4
 791 482 807 422 807 358 c 4
 807 293 791 233 759 178 c 4
 727 123 683 80 629 48 c 4
 574 16 514 0 449 0 c 4
 384 0 324 16 269 48 c 4
 214 80 171 123 139 178 c 4
 107 233 92 293 92 358 c 6
 92 736 l 6
 92 800 107 860 139 915 c 4
 171 970 214 1014 269 1046 c 4
 324 1078 384 1094 450 1094 c 4
449 680 m 4
 391 680 337 665 287 637 c 4
 237 608 198 569 170 520 c 4
 141 470 127 416 127 358 c 6
 127 357 l 5
 127 356 l 6
 127 267 159 191 222 129 c 4
 284 67 360 36 450 36 c 4
 508 36 561 50 611 79 c 4
 661 107 700 146 729 196 c 4
 757 245 772 299 772 358 c 4
 772 416 757 470 729 520 c 5
 700 569 661 608 611 637 c 4
 561 665 507 680 449 680 c 4
EndSplineSet
Validated: 1
EndChar

StartChar: seven
Encoding: 55 55 24
Width: 801
VWidth: 0
GlyphClass: 2
Flags: W
HStem: -0 21G<247.5 254> 377 37<231.013 385 440 565.812> 1059 35<86.1875 676>
VStem: 231 35<0.0385056 10>
LayerCount: 2
UndoRedoHistory
Layer: 1
Undoes
EndUndoes
Redoes
EndRedoes
EndUndoRedoHistory
Fore
SplineSet
100 1094 m 5
 704 1094 l 6
 708 1094 712 1092 716 1089 c 4
 720 1085 722 1081 722 1076 c 4
 722 1073 721 1071 720 1069 c 6
 440 413 l 5
 553 413 l 6
 558 413 562 412 566 408 c 4
 569 404 571 400 571 395 c 4
 571 391 569 387 566 383 c 4
 562 379 558 377 553 377 c 6
 424 377 l 5
 266 10 l 6
 263 3 258 -0 250 -0 c 4
 245 -0 241 1 237 5 c 4
 233 9 231 13 231 17 c 4
 231 20 232 22 233 24 c 6
 385 377 l 5
 249 377 l 6
 245 377 241 379 237 383 c 4
 233 387 231 391 231 395 c 4
 231 400 233 404 237 408 c 4
 241 412 245 414 249 414 c 6
 400 414 l 5
 676 1059 l 5
 99 1059 l 5
 98 1059 l 6
 94 1059 90 1060 86 1064 c 4
 82 1067 80 1071 80 1076 c 4
 80 1081 82 1085 86 1089 c 4
 90 1092 94 1094 99 1094 c 6
 100 1094 l 5
EndSplineSet
Validated: 1
EndChar

StartChar: eight
Encoding: 56 56 25
Width: 890
VWidth: 0
GlyphClass: 2
Flags: W
HStem: 0 35<340.587 549.502> 680 36<336.075 552.283> 1059 35<351.67 535.858>
VStem: 88 35<251.757 461.052> 164 34<719.507 902.707> 692 36<719.088 905.077> 769 35<252.998 460.671>
LayerCount: 2
UndoRedoHistory
Layer: 1
Undoes
EndUndoes
Redoes
EndRedoes
EndUndoRedoHistory
Fore
SplineSet
224 638 m 5
 184 688 164 746 164 811 c 4
 164 857 174 901 195 941 c 4
 216 981 245 1015 281 1041 c 5
 281 1041 281 1042 282 1042 c 6
 284 1042 l 5
 331 1076 385 1094 446 1094 c 4
 523 1094 589 1066 645 1011 c 5
 700 955 728 889 728 812 c 4
 728 747 708 689 668 638 c 5
 710 604 743 563 767 515 c 4
 791 466 804 414 804 358 c 4
 804 293 788 233 756 178 c 4
 724 123 680 80 625 48 c 4
 570 16 510 0 445 0 c 4
 380 0 320 16 266 48 c 4
 211 80 168 123 136 178 c 4
 104 233 88 293 88 358 c 4
 88 414 100 466 124 515 c 4
 148 563 181 604 224 638 c 5
769 357 m 4
 769 415 754 468 726 518 c 4
 698 567 660 606 610 636 c 4
 560 665 505 680 445 680 c 4
 409 680 376 675 345 665 c 5
 343 663 341 663 338 663 c 4
 334 663 330 664 326 668 c 4
 323 672 321 676 321 681 c 4
 321 685 323 688 325 692 c 5
 328 695 331 697 334 698 c 4
 371 710 408 716 445 716 c 4
 516 716 581 697 639 659 c 5
 675 703 692 754 692 812 c 4
 692 880 668 938 620 986 c 4
 572 1034 513 1059 445 1059 c 4
 375 1059 316 1034 269 986 c 4
 222 937 198 879 198 812 c 4
 198 757 213 710 241 670 c 4
 269 630 305 602 349 584 c 4
 357 581 360 576 360 568 c 4
 360 563 359 559 355 555 c 4
 352 551 348 549 343 549 c 4
 340 549 338 550 336 551 c 4
 301 566 271 586 247 611 c 5
 208 581 178 543 156 499 c 4
 134 455 123 408 123 357 c 4
 123 299 137 245 166 195 c 4
 194 146 233 107 283 78 c 4
 333 50 387 35 445 35 c 4
 503 35 557 50 607 78 c 4
 657 107 696 146 725 195 c 4
 754 245 769 299 769 357 c 4
EndSplineSet
Validated: 1
EndChar

StartChar: nine
Encoding: 57 57 26
Width: 891
VWidth: 0
GlyphClass: 2
Flags: W
HStem: 0 36<336.392 548.67> 378 36<334.868 548.108> 1059 35<338.891 545.922>
VStem: 84 35<631.498 840.044> 765 35<253.234 837.575>
LayerCount: 2
UndoRedoHistory
Layer: 1
Undoes
EndUndoes
Redoes
EndRedoes
EndUndoRedoHistory
Fore
SplineSet
442 1094 m 4
 506 1094 566 1078 621 1046 c 4
 676 1014 720 971 752 917 c 4
 784 862 800 802 800 738 c 6
 800 736 l 5
 800 358 l 6
 800 293 784 233 752 178 c 4
 720 123 676 80 621 48 c 4
 566 16 506 0 442 0 c 4
 394 -0 348 9 303 28 c 4
 260 46 222 71 190 104 c 4
 156 138 130 176 113 219 c 5
 111 221 111 223 111 225 c 4
 111 229 112 233 116 237 c 4
 119 241 123 243 129 243 c 4
 137 243 142 239 146 232 c 5
 162 193 185 159 215 130 c 5
 245 99 279 76 317 61 c 5
 357 44 398 36 442 36 c 4
 500 36 554 50 604 79 c 4
 653 107 692 146 721 196 c 4
 750 245 765 299 765 358 c 6
 765 581 l 5
 735 519 691 470 633 433 c 4
 575 396 512 378 442 378 c 4
 377 378 317 394 262 426 c 4
 207 458 164 501 132 556 c 4
 100 611 84 671 84 736 c 4
 84 800 100 860 132 915 c 4
 164 970 207 1014 262 1046 c 4
 317 1078 377 1094 442 1094 c 4
442 1059 m 4
 384 1059 330 1044 280 1015 c 4
 230 986 191 947 162 898 c 5
 134 848 119 794 119 736 c 4
 119 678 134 624 162 574 c 4
 191 524 230 485 280 457 c 4
 330 428 384 414 442 414 c 4
 500 414 554 428 603 457 c 5
 653 485 692 524 721 574 c 4
 750 624 764 678 764 736 c 4
 764 794 750 848 721 898 c 4
 692 947 653 986 603 1015 c 4
 554 1044 500 1059 442 1059 c 4
EndSplineSet
Validated: 1
EndChar

StartChar: colon
Encoding: 58 58 27
Width: 302
VWidth: 0
GlyphClass: 2
Flags: W
HStem: 303 36<134.77 168.719> 378 36<134.77 171.766> 605 36<134.732 168.719> 680 36<134.732 171.766>
VStem: 96 36<341.77 374.794 643.77 676.794> 172 35<341.77 377.456 643.77 679.456>
LayerCount: 2
UndoRedoHistory
Layer: 1
Undoes
EndUndoes
Redoes
EndRedoes
EndUndoRedoHistory
Fore
SplineSet
151 716 m 0
 167 716 180 710 191 699 c 0
 201 688 207 675 207 660 c 0
 207 644 201 631 191 621 c 0
 180 610 167 605 151 605 c 0
 135 605 122 610 111 621 c 0
 101 631 95 644 95 660 c 0
 95 675 101 688 111 699 c 0
 122 710 135 716 151 716 c 0
151 680 m 0
 145 680 141 678 137 674 c 0
 133 670 132 666 132 660 c 0
 132 654 133 650 137 646 c 0
 141 642 145 641 151 641 c 0
 157 641 162 642 166 646 c 0
 170 650 172 654 172 660 c 0
 172 666 170 670 166 674 c 0
 162 678 157 680 151 680 c 0
151 414 m 0
 167 414 180 408 191 397 c 0
 201 386 207 373 207 358 c 0
 207 342 201 329 191 319 c 0
 180 308 167 303 151 303 c 0
 135 303 122 308 112 319 c 1
 101 329 96 342 96 358 c 0
 96 373 101 386 112 397 c 0
 122 408 135 414 151 414 c 0
151 378 m 0
 145 378 141 376 137 372 c 0
 133 368 132 364 132 358 c 0
 132 352 133 348 137 344 c 0
 141 340 145 339 151 339 c 0
 157 339 162 340 166 344 c 0
 170 348 172 352 172 358 c 0
 172 364 170 368 166 372 c 0
 162 376 157 378 151 378 c 0
EndSplineSet
Validated: 1
EndChar

StartChar: semicolon
Encoding: 59 59 28
Width: 304
VWidth: 0
GlyphClass: 2
Flags: W
HStem: 127 36<137.643 174.841> 355 34<137.955 174.782> 430 36<137.955 171.794>
VStem: 100 35<-73.8125 -70 89.2902 123.676 392.333 426.794> 175 36<95 126.55 389.327 426.794>
LayerCount: 2
UndoRedoHistory
Layer: 1
Undoes
EndUndoes
Redoes
EndRedoes
EndUndoRedoHistory
Fore
SplineSet
155 466 m 0
 170 466 183 460 194 449 c 0
 205 438 211 425 211 410 c 0
 211 394 205 381 194 371 c 0
 183 360 170 355 155 355 c 0
 139 355 126 360 116 371 c 1
 105 381 100 394 100 410 c 0
 100 425 105 438 116 449 c 0
 126 460 139 466 155 466 c 0
154 430 m 0
 148 430 144 428 140 424 c 0
 136 420 135 415 135 409 c 0
 135 403 136 399 140 395 c 0
 144 391 148 389 154 389 c 0
 160 389 165 391 169 395 c 0
 173 399 175 403 175 409 c 0
 175 415 173 420 169 424 c 0
 165 428 160 430 154 430 c 0
155 163 m 0
 170 163 183 157 194 146 c 0
 205 136 211 123 211 107 c 0
 211 98 209 90 205 82 c 1
 204 81 l 1
 203 80 l 1
 203 79 l 1
 128 -70 l 2
 125 -76 120 -79 113 -79 c 0
 107 -79 103 -77 100 -74 c 0
 96 -70 95 -66 95 -62 c 0
 95 -59 95 -56 96 -53 c 2
 150 52 l 1
 136 53 124 59 114 69 c 0
 104 80 100 93 100 108 c 0
 100 123 105 136 116 147 c 0
 126 157 139 163 155 163 c 0
154 127 m 0
 148 127 144 125 140 121 c 0
 136 117 135 113 135 107 c 0
 135 101 136 96 140 92 c 0
 144 88 149 86 155 86 c 2
 156 86 l 2
 158 86 161 85 165 83 c 1
 172 95 l 1
 172 96 l 1
 173 97 l 1
 174 101 175 104 175 107 c 0
 175 113 173 117 169 121 c 0
 165 125 160 127 154 127 c 0
EndSplineSet
Validated: 1
EndChar

StartChar: less
Encoding: 60 60 29
Width: 667
VWidth: 0
GlyphClass: 2
Flags: W
HStem: 75 641<557 566>
VStem: 90 489
LayerCount: 2
UndoRedoHistory
Layer: 1
Undoes
EndUndoes
Redoes
EndRedoes
EndUndoRedoHistory
Fore
SplineSet
561 716 m 0
 566 716 570 714 574 710 c 0
 577 707 579 703 579 698 c 0
 579 692 576 687 571 684 c 2
 139 396 l 1
 571 108 l 2
 576 104 579 99 579 93 c 0
 579 88 577 84 574 80 c 0
 570 76 566 75 561 75 c 0
 557 75 554 76 551 79 c 2
 97 381 l 2
 92 385 90 390 90 396 c 0
 90 402 92 407 97 411 c 2
 551 713 l 2
 554 715 557 716 561 716 c 0
EndSplineSet
Validated: 1
EndChar

StartChar: equal
Encoding: 61 61 30
Width: 677
VWidth: 0
GlyphClass: 2
Flags: W
HStem: 163 35<99.1875 577.812> 466 35<100.141 577.812>
VStem: 100 478
LayerCount: 2
UndoRedoHistory
Layer: 1
Undoes
EndUndoes
Redoes
EndRedoes
EndUndoRedoHistory
Fore
SplineSet
113 501 m 2
 565 501 l 2
 570 501 574 499 578 496 c 0
 582 492 584 488 584 483 c 0
 584 478 582 474 578 471 c 0
 574 467 570 466 565 466 c 2
 112 466 l 2
 107 466 103 467 100 471 c 1
 96 474 95 478 95 483 c 0
 95 488 96 492 100 496 c 0
 103 499 107 501 113 501 c 2
112 198 m 2
 565 198 l 2
 570 198 574 196 578 193 c 0
 582 189 583 185 583 180 c 0
 583 175 582 171 578 168 c 0
 574 164 570 163 565 163 c 2
 112 163 l 2
 107 163 103 164 99 168 c 0
 96 171 94 175 94 180 c 0
 94 185 96 189 99 193 c 1
 103 196 107 198 112 198 c 2
EndSplineSet
Validated: 1
EndChar

StartChar: greater
Encoding: 62 62 31
Width: 667
VWidth: 0
GlyphClass: 2
Flags: W
HStem: 75 641<102 111>
VStem: 90 488
LayerCount: 2
UndoRedoHistory
Layer: 1
Undoes
EndUndoes
Redoes
EndRedoes
EndUndoRedoHistory
Fore
SplineSet
108 716 m 0
 111 716 114 715 116 713 c 2
 570 411 l 2
 576 406 578 401 578 396 c 0
 578 390 576 385 570 381 c 2
 116 79 l 1
 114 76 111 75 107 75 c 0
 102 75 98 76 95 80 c 0
 91 84 90 88 90 93 c 0
 90 99 92 104 98 108 c 2
 530 396 l 1
 98 684 l 2
 92 687 90 692 90 698 c 0
 90 703 91 707 95 711 c 0
 98 714 102 716 108 716 c 0
EndSplineSet
Validated: 1
EndChar

StartChar: question
Encoding: 63 63 32
Width: 732
VWidth: 0
GlyphClass: 2
Flags: W
HStem: -0 35<378.186 415.357> 74 36<381.206 415.357> 524 33.3714<278.052 450.932> 1052.39 35.6119<277.043 457.723>
VStem: 85 33.6538<718.918 891.83> 342 36<35.1592 71.1758> 380 34<234.188 240> 418 35<38.2061 71.1758> 613.304 35.458<717.3 894.957>
LayerCount: 2
UndoRedoHistory
Layer: 1
Undoes
EndUndoes
Redoes
EndRedoes
EndUndoRedoHistory
Fore
SplineSet
367 1088 m 2
 376 1088 l 1
 437 1086 492 1065 540 1027 c 0
 589 989 622 939 638 879 c 0
 645.149823563 852.924172887 648.761932456 827.202117241 648.761932456 801.759438839 c 0
 648.761932456 766.707542934 641.90613144 732.185906457 628 698 c 1
 627 697 l 1
 414 240 l 2
 411 232 406 228 398 228 c 0
 393 228 389 230 385 234 c 0
 382 238 380 242 380 247 c 1
 380 247 381 250 382 255 c 1
 594 713 l 1
 606.937041931 743.578462745 613.303889596 774.15692549 613.303889596 805.142081434 c 0
 613.303889596 826.848524886 610.179289593 848.754557466 604 871 c 0
 586 937 548 986 489 1020 c 0
 450.560870071 1041.49985233 410.423875494 1052.38805062 368.865560506 1052.38805062 c 0
 346.636256242 1052.38805062 324.000295334 1049.27280782 301 1043 c 0
 235 1025 186 987 152 928 c 0
 129.769230769 888.769230769 118.653846154 848.683431953 118.653846154 807.183545744 c 0
 118.653846154 785.213017751 121.769230769 762.846153846 128 740 c 0
 146 674 184 624 243 590 c 0
 281.702392069 568.068644494 321.236937 557.371352627 362.140406566 557.371352627 c 0
 384.649249334 557.371352627 407.572631276 560.610717621 431 567 c 1
 434 567 l 2
 435 567 436 568 436 568 c 1
 441 568 445 566 448 562 c 0
 452 558 453 554 453 550 c 0
 453 546 452 542 450 539 c 0
 448 535 444 533 440 533 c 0
 414.5 527 389.5 524 365 524 c 0
 340.5 524 316.5 527 293 533 c 0
 247 545 205 568 169 604 c 0
 133 640 108 682 94 731 c 1
 88 757 85 782.25 85 806.875 c 0
 85 831.5 88 855.5 94 879 c 0
 106 925 129 967 165 1003 c 0
 201 1039 243 1064 292 1078 c 0
 316 1084 341 1088 367 1088 c 2
398 110 m 0
 414 110 427 105 437 94 c 0
 448 83 453 70 453 55 c 0
 453 40 448 27 437 16 c 0
 427 5 414 -0 398 -0 c 0
 383 -0 370 5 359 16 c 0
 348 27 342 40 342 55 c 0
 342 70 348 83 359 94 c 0
 370 105 383 110 398 110 c 0
398 74 m 0
 392 74 388 73 384 69 c 0
 380 65 378 61 378 55 c 0
 378 49 380 45 384 41 c 0
 388 37 392 35 398 35 c 0
 404 35 409 37 413 41 c 0
 417 45 418 49 418 55 c 0
 418 61 417 65 413 69 c 0
 409 73 404 74 398 74 c 0
EndSplineSet
Validated: 524289
EndChar

StartChar: at
Encoding: 64 64 33
Width: 899
VWidth: 0
GlyphClass: 2
Flags: W
HStem: 0 36<341.928 558.243> 202 36<675.522 755.508> 276 36<365.441 537.305> 734 36<365.889 537.305> 1059 35<345.891 552.109>
VStem: 92 34<255.845 837.248> 205 36<436.889 608.896> 625 35<254.517 347 380.132 665.439 700 764.812> 772 35<254.517 840.062>
LayerCount: 2
UndoRedoHistory
Layer: 1
Undoes
EndUndoes
Redoes
EndRedoes
EndUndoRedoHistory
Fore
SplineSet
449 1094 m 0
 514 1094 574 1078 629 1046 c 0
 683 1014 727 970 759 915 c 0
 791 861 807 801 807 735 c 2
 807 293 l 1
 807 291 l 1
 806 266 797 245 779 228 c 0
 761 210 740 202 716 202 c 0
 691 202 670 210 652 228 c 0
 634 246 625 267 625 292 c 2
 625 294 l 1
 625 347 l 1
 577 299 519 276 452 276 c 0
 384 276 325 300 277 348 c 0
 229 396 205 455 205 523 c 0
 205 591 229 649 277 697 c 0
 325 745 384 770 452 770 c 0
 519 770 577 746 625 700 c 1
 625 752 l 2
 625 757 626 761 630 765 c 0
 633 768 637 770 642 770 c 0
 647 770 651 768 655 765 c 1
 658 761 660 757 660 752 c 2
 660 653 l 1
 660 650 l 1
 660 647 l 1
 660 400 l 1
 660 396 l 1
 660 393 l 1
 660 294 l 2
 660 278 665 265 676 254 c 0
 687 243 700 238 716 238 c 0
 731 238 744 243 755 254 c 0
 766 265 772 278 772 294 c 2
 772 736 l 2
 772 794 757 848 729 898 c 1
 700 947 661 986 611 1015 c 0
 561 1044 507 1059 449 1059 c 0
 391 1059 337 1044 287 1015 c 0
 237 986 198 947 169 898 c 1
 141 848 126 794 126 736 c 2
 126 358 l 2
 126 299 141 245 169 196 c 0
 198 146 237 107 287 79 c 0
 337 50 391 36 450 36 c 0
 538 36 614 67 677 130 c 0
 680 132 684 134 689 134 c 0
 694 134 698 132 702 129 c 1
 705 125 707 121 707 116 c 0
 707 111 705 107 702 104 c 0
 669 71 631 45 587 27 c 0
 543 9 498 0 450 0 c 0
 384 0 324 16 269 48 c 0
 214 80 171 123 139 178 c 0
 107 233 92 293 92 358 c 2
 92 736 l 2
 92 800 107 860 139 915 c 0
 171 970 214 1014 269 1046 c 0
 324 1078 384 1094 449 1094 c 0
452 734 m 0
 394 734 344 714 303 672 c 1
 261 631 241 581 241 523 c 0
 241 465 261 415 302 374 c 0
 343 332 393 312 452 312 c 0
 487 312 520 320 550 336 c 0
 580 352 605 373 625 401 c 1
 625 645 l 1
 605 672 580 694 550 710 c 0
 520 726 487 734 452 734 c 0
EndSplineSet
Validated: 1
EndChar

StartChar: A
Encoding: 65 65 34
Width: 923
VWidth: 0
GlyphClass: 2
Flags: W
HStem: -0 21G<81.5 88 836 842> 370 37<242 682> 1074 20G<458 466.5>
VStem: 66 35<5.1875 11> 823 35<0.0088501 11>
LayerCount: 2
UndoRedoHistory
Layer: 1
Undoes
EndUndoes
Redoes
EndRedoes
EndUndoRedoHistory
Fore
SplineSet
463 1094 m 2
 470 1094 475 1090 479 1082 c 1
 724 396 l 2
 724 395 725 394 725 393 c 2
 857 23 l 2
 857 22 858 20 858 17 c 0
 858 13 856 9 852 5 c 0
 848 1 844 -0 840 -0 c 0
 832 -0 826 3 823 11 c 2
 695 370 l 1
 229 370 l 1
 101 11 l 2
 98 3 92 -0 84 -0 c 0
 79 -0 75 1 71 5 c 0
 67 9 66 13 66 17 c 0
 66 20 66 22 67 23 c 2
 198 390 l 2
 198 392 199 395 202 399 c 1
 446 1082 l 2
 448 1090 454 1094 462 1094 c 2
 463 1094 l 2
463 1023 m 1
 242 407 l 1
 682 407 l 1
 463 1023 l 1
EndSplineSet
Validated: 1
EndChar

StartChar: B
Encoding: 66 66 35
Width: 899
VWidth: 0
GlyphClass: 2
Flags: W
HStem: 0 35<350.483 558.502> 679 36<344.991 560.907> 1051 35<311.263 504.661> 1074 20G<110.5 116>
VStem: 96 35<5.1875 869.967 918 1088.81> 685 37<674.035 872.441> 776 36<250.368 463.748>
LayerCount: 2
UndoRedoHistory
Layer: 1
Undoes
EndUndoes
Redoes
EndRedoes
EndUndoRedoHistory
Fore
SplineSet
113 1094 m 1xde
 119 1094 123 1092 126 1089 c 0
 130 1085 131 1081 131 1076 c 2
 131 918 l 1
 158 969 196 1010 246 1040 c 0
 296 1070 350 1086 409 1086 c 0xee
 495 1086 568 1055 630 994 c 0
 691 933 722 859 722 773 c 0
 722 723 710 675 686 629 c 1
 725 596 756 556 778 508 c 0
 800 461 812 411 812 358 c 0
 812 293 796 233 764 178 c 0
 732 123 689 80 634 48 c 0
 579 16 519 0 454 0 c 0
 384 0 321 18 263 55 c 0
 205 92 162 141 132 202 c 1
 132 18 l 2
 132 13 130 9 127 5 c 0
 123 1 119 -0 114 -0 c 0
 109 -0 105 1 101 5 c 0
 97 9 96 13 96 18 c 2
 96 358 l 1
 96 359 l 1
 96 774 l 1
 96 1076 l 2
 96 1081 97 1085 101 1089 c 0
 104 1092 108 1094 113 1094 c 1xde
408 1051 m 0
 332 1051 266 1023 212 969 c 0
 158 915 131 849 131 773 c 2
 131 357 l 2
 131 299 146 245 174 195 c 1
 203 146 242 107 292 78 c 0
 342 50 396 35 454 35 c 0
 512 35 566 50 616 78 c 0
 666 107 705 146 733 195 c 0
 762 245 776 299 776 357 c 0
 776 407 766 454 744 498 c 0
 722 542 692 579 654 609 c 0
 652 611 651 612 649 613 c 0
 593 657 527 679 453 679 c 0
 377 679 310 656 251 608 c 0
 248 605 244 603 239 603 c 0
 234 603 230 605 226 609 c 0
 223 613 221 617 221 621 c 0
 221 627 224 632 228 636 c 0
 294 689 369 715 453 715 c 0
 529 715 597 694 657 651 c 1
 676 690 685 731 685 773 c 0
 685 849 658 915 604 969 c 0
 550 1023 485 1051 408 1051 c 0
EndSplineSet
Validated: 5
EndChar

StartChar: C
Encoding: 67 67 36
Width: 813
VWidth: 0
GlyphClass: 2
Flags: W
HStem: 0 36<336.522 550.62> 1059 35<339.146 546.965>
VStem: 86 36<250.765 842.544>
LayerCount: 2
UndoRedoHistory
Layer: 1
Undoes
EndUndoes
Redoes
EndRedoes
EndUndoRedoHistory
Fore
SplineSet
444 1094 m 0
 504 1094 561 1079 614 1051 c 1
 666 1022 709 983 742 935 c 0
 744 931 745 928 745 925 c 0
 745 920 743 916 740 912 c 0
 736 908 732 907 727 907 c 0
 721 907 716 909 712 915 c 0
 682 959 644 994 597 1020 c 0
 549 1046 498 1059 444 1059 c 0
 385 1059 331 1044 282 1015 c 0
 232 986 193 947 165 898 c 0
 136 848 122 794 122 736 c 2
 122 358 l 2
 122 299 136 245 165 196 c 1
 193 146 232 107 282 79 c 1
 331 50 385 36 444 36 c 0
 498 36 549 48 597 74 c 0
 644 100 682 135 712 179 c 0
 716 184 721 187 727 187 c 0
 732 187 736 185 740 182 c 1
 743 178 745 174 745 169 c 0
 745 165 744 162 742 159 c 0
 709 110 666 71 614 43 c 0
 561 14 504 0 444 0 c 0
 379 0 319 16 264 48 c 0
 209 80 166 123 134 178 c 0
 102 233 86 293 86 358 c 2
 86 736 l 2
 86 800 102 860 134 915 c 0
 166 970 209 1014 264 1046 c 0
 319 1078 379 1094 444 1094 c 0
EndSplineSet
Validated: 1
EndChar

StartChar: D
Encoding: 68 68 37
Width: 843
VWidth: 0
GlyphClass: 2
Flags: W
HStem: -0 35<290.415 497.702> 1059 35<290.124 496.313>
VStem: 93 36<5.1875 117 151.225 929 930 941.474> 716 36<252.975 839.941>
LayerCount: 2
UndoRedoHistory
Layer: 1
Undoes
EndUndoes
Redoes
EndRedoes
EndUndoRedoHistory
Fore
SplineSet
394 1094 m 0
 458 1094 518 1078 573 1046 c 0
 628 1014 672 970 704 915 c 0
 736 860 752 800 752 735 c 2
 752 357 l 2
 752 293 736 233 704 178 c 0
 672 123 628 79 573 47 c 0
 518 15 458 -0 394 -0 c 0
 342 -0 293 10 247 30 c 0
 201 51 162 80 129 117 c 1
 129 18 l 2
 129 13 127 9 123 5 c 0
 119 1 115 -0 111 -0 c 0
 106 -0 102 1 98 5 c 0
 94 9 93 13 93 18 c 2
 93 168 l 1
 93 169 l 1
 93 171 l 1
 93 923 l 1
 93 924 l 1
 93 928 l 1
 93 929 l 1
 94 930 l 1
 94 932 l 1
 95 934 96 935 97 937 c 0
 131 985 173 1024 225 1052 c 0
 277 1080 333 1094 394 1094 c 0
394 1059 m 0
 340 1059 289 1046 243 1021 c 0
 196 996 158 962 129 918 c 1
 129 174 l 1
 158 132 196 98 243 73 c 0
 289 48 340 35 394 35 c 0
 452 35 505 50 555 78 c 0
 605 107 644 146 673 195 c 1
 701 245 716 299 716 357 c 2
 716 735 l 2
 716 794 701 848 673 897 c 0
 644 947 605 986 555 1015 c 0
 505 1044 452 1059 394 1059 c 0
EndSplineSet
Validated: 1
EndChar

StartChar: E
Encoding: 69 69 38
Width: 809
VWidth: 0
GlyphClass: 2
Flags: W
HStem: -0 36<132 735.999> 378 36<132 661.999> 1059 35<132 731.812>
VStem: 95 37<36 378 413 1059>
LayerCount: 2
UndoRedoHistory
Layer: 1
Undoes
EndUndoes
Redoes
EndRedoes
EndUndoRedoHistory
Fore
SplineSet
114 1094 m 2
 719 1094 l 2
 724 1094 728 1092 732 1089 c 1
 735 1085 737 1081 737 1076 c 0
 737 1071 735 1067 732 1064 c 0
 728 1060 724 1059 719 1059 c 2
 132 1059 l 1
 132 413 l 1
 643 414 l 1
 644 414 l 2
 648 414 652 412 656 408 c 0
 660 404 662 400 662 396 c 0
 662 391 660 387 656 383 c 0
 652 379 648 378 644 378 c 2
 643 378 l 1
 132 378 l 1
 132 36 l 1
 719 36 l 2
 724 36 728 34 731 30 c 0
 735 26 736 22 736 18 c 0
 736 13 735 9 731 5 c 0
 728 1 724 -0 718 -0 c 2
 113 -0 l 2
 109 -0 105 1 101 5 c 0
 97 9 95 13 95 18 c 2
 95 393 l 1
 95 396 l 1
 95 399 l 1
 95 1076 l 2
 95 1081 97 1085 101 1089 c 0
 105 1092 109 1094 114 1094 c 2
EndSplineSet
Validated: 1
EndChar

StartChar: F
Encoding: 70 70 39
Width: 801
VWidth: 0
GlyphClass: 2
Flags: W
HStem: -0 21G<111.5 116.5> 371 36<132 661.999> 1059 35<132 731.812>
VStem: 95 37<0.00679779 371 407 1059>
LayerCount: 2
UndoRedoHistory
Layer: 1
Undoes
EndUndoes
Redoes
EndRedoes
EndUndoRedoHistory
Fore
SplineSet
114 1094 m 2
 719 1094 l 2
 724 1094 728 1092 732 1089 c 1
 735 1085 737 1081 737 1076 c 0
 737 1071 735 1067 732 1064 c 0
 728 1060 724 1059 719 1059 c 2
 132 1059 l 1
 132 407 l 1
 643 407 l 1
 644 407 l 2
 648 407 652 405 656 401 c 0
 660 397 662 393 662 389 c 0
 662 384 660 380 656 376 c 0
 652 372 648 371 643 371 c 2
 642 371 l 1
 131 371 l 1
 131 18 l 2
 131 13 130 9 126 5 c 0
 123 1 119 -0 114 -0 c 0
 109 -0 105 1 101 5 c 0
 97 9 95 13 95 18 c 2
 95 386 l 1
 95 389 l 1
 95 391 l 1
 95 1076 l 2
 95 1081 97 1085 101 1089 c 0
 105 1092 109 1094 114 1094 c 2
EndSplineSet
Validated: 1
EndChar

StartChar: G
Encoding: 71 71 40
Width: 842
VWidth: 0
GlyphClass: 2
Flags: W
HStem: 0 36<336.522 550.263> 1059 35<339.146 546.965>
VStem: 86 36<250.765 842.544> 710 35<-230.812 117 153.626 605>
LayerCount: 2
UndoRedoHistory
Layer: 1
Undoes
EndUndoes
Redoes
EndRedoes
EndUndoRedoHistory
Fore
SplineSet
444 1094 m 0
 504 1094 561 1079 614 1051 c 1
 666 1022 709 983 742 935 c 0
 744 931 745 928 745 925 c 0
 745 920 743 916 740 912 c 0
 736 908 732 907 727 907 c 0
 721 907 716 909 712 915 c 0
 682 959 644 994 597 1020 c 0
 549 1046 498 1059 444 1059 c 0
 385 1059 331 1044 282 1015 c 0
 232 986 193 947 165 898 c 0
 136 848 122 794 122 736 c 2
 122 358 l 2
 122 299 136 245 165 196 c 1
 193 146 232 107 282 79 c 1
 331 50 385 36 444 36 c 0
 498 36 548 48 595 73 c 0
 641 98 680 132 710 175 c 1
 710 605 l 1
 639 676 l 2
 635 679 633 683 633 688 c 0
 633 693 634 697 638 701 c 0
 642 704 646 706 651 706 c 0
 656 706 660 704 664 701 c 2
 740 625 l 2
 743 621 745 617 745 613 c 2
 745 171 l 1
 745 169 l 1
 745 167 l 1
 745 -218 l 2
 745 -223 743 -227 740 -231 c 0
 736 -235 732 -237 727 -237 c 0
 722 -237 718 -235 715 -231 c 0
 711 -227 710 -223 710 -218 c 2
 710 117 l 1
 676 80 636 51 590 31 c 0
 544 10 495 0 444 0 c 0
 379 0 319 16 264 48 c 0
 209 80 166 123 134 178 c 0
 102 233 86 293 86 358 c 2
 86 736 l 2
 86 800 102 860 134 915 c 0
 166 970 209 1014 264 1046 c 0
 319 1078 379 1094 444 1094 c 0
EndSplineSet
Validated: 1
EndChar

StartChar: H
Encoding: 72 72 41
Width: 835
VWidth: 0
GlyphClass: 2
Flags: W
HStem: -0 21G<111.5 116.5 716.5 721.5> 378 36<132 701> 1074 20G<111.5 116.5 716.5 721.5>
VStem: 96 36<5.1875 378 414 1088.81> 701 36<5.1875 378 414 1088.81>
LayerCount: 2
UndoRedoHistory
Layer: 1
Undoes
EndUndoes
Redoes
EndRedoes
EndUndoRedoHistory
Fore
SplineSet
114 1094 m 0
 119 1094 123 1092 127 1089 c 1
 130 1085 132 1081 132 1076 c 2
 132 414 l 1
 701 414 l 1
 701 1076 l 2
 701 1081 702 1085 706 1089 c 0
 710 1092 714 1094 719 1094 c 0
 724 1094 728 1092 732 1089 c 1
 735 1085 737 1081 737 1076 c 2
 737 399 l 1
 737 396 l 1
 737 393 l 1
 737 18 l 2
 737 13 735 9 732 5 c 0
 728 1 724 -0 719 -0 c 0
 714 -0 710 1 706 5 c 0
 702 9 701 13 701 18 c 2
 701 378 l 1
 132 378 l 1
 132 18 l 2
 132 13 130 9 127 5 c 0
 123 1 119 -0 114 -0 c 0
 109 -0 105 1 101 5 c 0
 97 9 96 13 96 18 c 2
 96 393 l 1
 96 396 l 1
 96 399 l 1
 96 1076 l 2
 96 1081 97 1085 101 1089 c 0
 105 1092 109 1094 114 1094 c 0
EndSplineSet
Validated: 1
EndChar

StartChar: I
Encoding: 73 73 42
Width: 229
VWidth: 0
GlyphClass: 2
Flags: W
HStem: -0 21G<111.5 116.5> 1074 20G<110.5 116.5>
VStem: 96 36<5.1875 1088.81>
LayerCount: 2
UndoRedoHistory
Layer: 1
Undoes
EndUndoes
Redoes
EndRedoes
EndUndoRedoHistory
Fore
SplineSet
113 1094 m 2
 114 1094 l 2
 119 1094 123 1092 127 1089 c 1
 130 1085 132 1081 132 1076 c 2
 132 18 l 2
 132 13 130 9 127 5 c 0
 123 1 119 -0 114 -0 c 0
 109 -0 105 1 101 5 c 0
 97 9 96 13 96 18 c 2
 96 1076 l 2
 96 1081 97 1085 101 1089 c 0
 104 1092 108 1094 113 1094 c 2
EndSplineSet
Validated: 1
EndChar

StartChar: J
Encoding: 74 74 43
Width: 810
VWidth: 0
GlyphClass: 2
Flags: W
HStem: -219 36<250.171 460.743> 1074 20G<692.5 697.5>
VStem: 678 35<35.1816 1088.81>
LayerCount: 2
UndoRedoHistory
Layer: 1
Undoes
EndUndoes
Redoes
EndRedoes
EndUndoRedoHistory
Fore
SplineSet
695 1094 m 0
 700 1094 704 1092 708 1089 c 0
 712 1085 713 1081 713 1076 c 2
 713 138 l 2
 713 74 697 14 665 -40 c 0
 633 -95 590 -139 535 -171 c 0
 480 -203 420 -219 355 -219 c 0
 294 -219 237 -204 185 -176 c 0
 133 -147 90 -108 58 -60 c 0
 56 -56 55 -53 55 -49 c 0
 55 -44 56 -40 60 -37 c 0
 64 -33 68 -32 73 -32 c 0
 79 -32 83 -34 87 -40 c 0
 116 -84 154 -118 202 -144 c 0
 249 -170 300 -183 355 -183 c 0
 413 -183 467 -168 517 -140 c 0
 567 -111 606 -72 635 -22 c 0
 663 27 678 81 678 139 c 2
 678 1076 l 2
 678 1081 679 1085 683 1089 c 0
 686 1092 690 1094 695 1094 c 0
EndSplineSet
Validated: 1
EndChar

StartChar: K
Encoding: 75 75 44
Width: 801
VWidth: 0
GlyphClass: 2
Flags: W
HStem: -0 21G<111.5 116.5 715 721> 1074 20G<111.5 116.5 641 645>
VStem: 96 36<5.1875 615 661 1088.81> 702 34<5.14136 11>
LayerCount: 2
UndoRedoHistory
Layer: 1
Undoes
EndUndoes
Redoes
EndRedoes
EndUndoRedoHistory
Fore
SplineSet
114 1094 m 0
 119 1094 123 1092 127 1089 c 1
 130 1085 132 1081 132 1076 c 2
 132 661 l 1
 632 1089 l 2
 635 1092 639 1094 643 1094 c 0
 647 1094 651 1092 655 1089 c 0
 659 1085 661 1081 661 1076 c 0
 661 1070 659 1066 655 1063 c 2
 406 848 l 1
 735 23 l 1
 735 23 736 21 736 17 c 0
 736 12 734 8 731 5 c 0
 727 1 723 0 719 0 c 0
 711 0 705 3 702 11 c 2
 377 825 l 1
 132 615 l 1
 132 18 l 2
 132 13 130 9 127 5 c 0
 123 1 119 -0 114 -0 c 0
 109 -0 105 1 101 5 c 0
 97 9 96 13 96 18 c 2
 96 620 l 1
 96 623 l 1
 96 625 l 1
 96 1076 l 2
 96 1081 97 1085 101 1089 c 0
 105 1092 109 1094 114 1094 c 0
EndSplineSet
Validated: 1
EndChar

StartChar: L
Encoding: 76 76 45
Width: 805
VWidth: 0
GlyphClass: 2
Flags: W
HStem: -0 36<132 731.812> 1074 20G<110.5 116.5>
VStem: 96 36<36 1088.81>
LayerCount: 2
UndoRedoHistory
Layer: 1
Undoes
EndUndoes
Redoes
EndRedoes
EndUndoRedoHistory
Fore
SplineSet
113 1094 m 2
 114 1094 l 2
 119 1094 123 1092 127 1089 c 1
 130 1085 132 1081 132 1076 c 2
 132 36 l 1
 718 36 l 1
 719 36 l 2
 724 36 728 34 732 30 c 0
 735 26 737 22 737 18 c 0
 737 13 735 9 732 5 c 0
 728 1 724 -0 719 -0 c 2
 718 -0 l 1
 114 -0 l 2
 109 -0 105 1 101 5 c 0
 97 9 96 13 96 18 c 2
 96 1076 l 2
 96 1081 97 1085 101 1089 c 0
 104 1092 108 1094 113 1094 c 2
EndSplineSet
Validated: 1
EndChar

StartChar: M
Encoding: 77 77 46
Width: 947
VWidth: 0
GlyphClass: 2
Flags: W
HStem: -0 21G<111.5 116.5 828.5 833> 1074 20G<106 117 828 838>
VStem: 96 36<5.1875 1030> 813 36<5.1875 1034>
LayerCount: 2
UndoRedoHistory
Layer: 1
Undoes
EndUndoes
Redoes
EndRedoes
EndUndoRedoHistory
Fore
SplineSet
114 1094 m 2
 120 1094 125 1091 129 1087 c 2
 457 726 l 1
 816 1087 l 2
 820 1091 825 1094 831 1094 c 2
 833 1094 l 1
 836 1094 l 1
 838 1094 l 1
 838 1093 l 1
 839 1093 l 1
 839 1092 l 1
 841 1090 842 1089 843 1089 c 0
 847 1085 849 1081 849 1076 c 2
 849 1074 l 1
 849 18 l 2
 849 13 847 9 843 5 c 0
 839 1 835 -0 831 -0 c 0
 826 -0 822 1 818 5 c 0
 814 9 813 13 813 18 c 2
 813 1034 l 1
 481 701 l 1
 542 635 l 2
 545 631 547 627 547 622 c 0
 547 617 545 613 541 609 c 0
 537 605 533 604 529 604 c 0
 524 604 519 606 515 611 c 2
 446 687 l 1
 444 687 442 689 441 692 c 1
 132 1030 l 1
 132 18 l 2
 132 13 130 9 127 5 c 0
 123 1 119 -0 114 -0 c 0
 109 -0 105 1 101 5 c 0
 97 9 96 13 96 18 c 2
 96 1074 l 1
 96 1076 l 2
 96 1081 98 1086 103 1090 c 2
 104 1091 l 1
 105 1092 l 1
 106 1093 l 1
 108 1094 l 1
 109 1094 l 1
 111 1094 l 1
 113 1094 l 1
 114 1094 l 2
EndSplineSet
Validated: 1
EndChar

StartChar: N
Encoding: 78 78 47
Width: 837
VWidth: 0
GlyphClass: 2
Flags: W
HStem: 0 21G<111.5 115 717 721.5> 1074 20G<112 124 716.5 722>
VStem: 95 36<11 14 15 1052> 701 37<1.07178 763 803 1088.81>
LayerCount: 2
UndoRedoHistory
Layer: 1
Undoes
EndUndoes
Redoes
EndRedoes
EndUndoRedoHistory
Fore
SplineSet
719 1094 m 2
 720 1094 l 2
 724 1094 728 1092 732 1089 c 0
 736 1085 738 1081 738 1076 c 2
 738 18 l 2
 738 13 736 9 732 5 c 0
 728 1 724 -0 719 -0 c 0
 715 -0 711 1 707 5 c 0
 703 9 701 13 701 18 c 2
 701 763 l 1
 131 1052 l 1
 131 18 l 1
 131 15 l 1
 130 14 l 1
 130 12 l 1
 130 11 l 1
 129 10 l 1
 129 9 l 1
 128 7 l 1
 128 7 127 7 126 5 c 2
 124 3 l 2
 121 1 117 0 113 0 c 0
 110 0 108 1 107 1 c 2
 106 1 l 1
 105 1 l 1
 105 2 105 3 104 3 c 2
 102 3 l 1
 102 3 101 4 99 5 c 0
 99 6 99 7 98 9 c 2
 97 10 l 2
 97 11 97 12 96 13 c 2
 96 13 95 14 95 15 c 2
 95 18 l 1
 95 1076 l 1
 95 1080 l 1
 96 1081 l 1
 96 1082 l 1
 97 1083 l 1
 98 1084 l 1
 98 1085 l 1
 99 1086 l 1
 100 1087 l 1
 101 1089 l 2
 102 1089 103 1090 104 1090 c 1
 104 1091 l 1
 105 1091 l 1
 106 1092 l 1
 107 1092 l 1
 107 1092 107 1093 108 1093 c 2
 108 1093 110 1094 114 1094 c 2
 115 1094 l 1
 117 1094 l 1
 118 1094 l 1
 121 1094 l 1
 122 1094 l 1
 123 1094 l 2
 125 1094 127 1093 129 1093 c 1
 130 1092 l 1
 702 803 l 1
 702 1076 l 2
 702 1081 703 1085 707 1089 c 0
 710 1092 714 1094 719 1094 c 2
EndSplineSet
Validated: 1
EndChar

StartChar: O
Encoding: 79 79 48
Width: 894
VWidth: 0
GlyphClass: 2
Flags: W
HStem: 0 36<336.522 550.67> 1059 35<339.146 548.044>
VStem: 86 36<250.765 842.544> 766 36<253.059 840.025>
LayerCount: 2
UndoRedoHistory
Layer: 1
Undoes
EndUndoes
Redoes
EndRedoes
EndUndoRedoHistory
Fore
SplineSet
444 1094 m 0
 508 1094 568 1078 623 1046 c 0
 678 1014 722 970 754 915 c 0
 786 860 802 800 802 736 c 2
 802 358 l 2
 802 293 786 233 754 178 c 0
 722 123 678 80 623 48 c 0
 568 16 508 0 444 0 c 0
 379 0 319 16 264 48 c 0
 209 80 166 123 134 178 c 0
 102 233 86 293 86 358 c 2
 86 736 l 2
 86 800 102 860 134 915 c 0
 166 970 209 1014 264 1046 c 0
 319 1078 379 1094 444 1094 c 0
444 1059 m 0
 385 1059 331 1044 282 1015 c 0
 232 986 193 947 165 898 c 0
 136 848 122 794 122 736 c 2
 122 358 l 2
 122 299 136 245 165 196 c 1
 193 146 232 107 282 79 c 1
 331 50 385 36 444 36 c 0
 502 36 556 50 606 79 c 0
 655 107 694 146 723 196 c 0
 751 245 766 299 766 358 c 2
 766 736 l 2
 766 794 751 848 723 898 c 1
 694 947 655 986 606 1015 c 0
 556 1044 502 1059 444 1059 c 0
EndSplineSet
Validated: 1
EndChar

StartChar: P
Encoding: 80 80 49
Width: 890
VWidth: 0
GlyphClass: 2
Flags: W
HStem: -0 21G<111.5 116.5> 378 36<347.456 560.025> 1059 35<350.028 556.248>
VStem: 96 36<5.1875 1088.81> 777 35<631.587 840.044>
LayerCount: 2
UndoRedoHistory
Layer: 1
Undoes
EndUndoes
Redoes
EndRedoes
EndUndoRedoHistory
Fore
SplineSet
113 1094 m 2
 114 1094 l 2
 119 1094 123 1092 127 1089 c 1
 130 1085 132 1081 132 1076 c 2
 132 892 l 1
 161 952 204 1001 262 1038 c 0
 320 1075 383 1094 453 1094 c 2
 454 1094 l 1
 455 1094 l 2
 519 1094 579 1078 634 1046 c 0
 689 1014 732 970 764 915 c 0
 796 860 812 800 812 736 c 0
 812 671 796 611 764 557 c 0
 732 502 689 459 635 427 c 0
 580 395 520 378 456 378 c 2
 454 378 l 1
 453 378 l 2
 383 378 320 397 262 434 c 0
 204 471 161 520 132 581 c 1
 132 18 l 2
 132 13 130 9 127 5 c 0
 123 1 119 -0 114 -0 c 0
 109 -0 105 1 101 5 c 0
 97 9 96 13 96 18 c 2
 96 736 l 1
 96 1076 l 2
 96 1081 97 1085 101 1089 c 0
 104 1092 108 1094 113 1094 c 2
454 1059 m 0
 396 1059 342 1044 292 1015 c 0
 242 986 203 947 175 898 c 0
 146 848 132 794 132 736 c 0
 132 678 146 624 175 574 c 0
 203 524 242 485 292 457 c 0
 342 428 396 414 454 414 c 0
 512 414 566 428 616 457 c 0
 666 485 705 524 734 574 c 0
 762 624 777 678 777 736 c 0
 777 794 762 848 734 898 c 1
 705 947 666 986 616 1015 c 0
 566 1044 512 1059 454 1059 c 0
EndSplineSet
Validated: 1
EndChar

StartChar: Q
Encoding: 81 81 50
Width: 894
VWidth: 0
GlyphClass: 2
Flags: W
HStem: 0 35<339.146 548.666> 1059 35<339.146 548.044>
VStem: 86 36<250.456 842.235> 766 36<251.817 840.025>
LayerCount: 2
UndoRedoHistory
Layer: 1
Undoes
EndUndoes
Redoes
EndRedoes
EndUndoRedoHistory
Fore
SplineSet
444 1094 m 0
 508 1094 568 1078 623 1046 c 0
 678 1014 722 970 754 915 c 0
 786 860 802 800 802 736 c 2
 802 358 l 2
 802 288 784 224 748 168 c 0
 744 162 738 159 732 159 c 0
 727 159 723 160 719 164 c 0
 715 167 714 171 714 176 c 0
 714 180 715 183 717 185 c 0
 749 237 766 295 766 357 c 2
 766 735 l 2
 766 794 751 848 723 897 c 0
 694 947 655 986 606 1015 c 0
 556 1044 502 1059 444 1059 c 0
 385 1059 331 1044 282 1015 c 0
 232 986 193 947 165 897 c 1
 136 848 122 794 122 735 c 2
 122 357 l 2
 122 299 136 245 165 195 c 0
 193 146 232 107 282 78 c 0
 331 50 385 35 444 35 c 0
 522 35 591 60 651 110 c 1
 386 375 l 2
 382 379 381 383 381 387 c 0
 381 392 382 396 386 400 c 0
 389 404 393 406 399 406 c 0
 404 406 408 404 411 401 c 2
 689 122 l 1
 790 23 l 2
 793 19 795 15 795 10 c 0
 795 5 793 1 789 -2 c 0
 785 -5 781 -7 776 -7 c 0
 771 -7 767 -5 764 -2 c 2
 676 86 l 1
 609 28 532 0 444 0 c 0
 379 0 319 16 264 48 c 0
 209 80 166 123 134 178 c 0
 102 233 86 293 86 358 c 2
 86 736 l 2
 86 800 102 860 134 915 c 0
 166 970 209 1014 264 1046 c 0
 319 1078 379 1094 444 1094 c 0
EndSplineSet
Validated: 1
EndChar

StartChar: R
Encoding: 82 82 51
Width: 891
VWidth: 0
GlyphClass: 2
Flags: W
HStem: -0 21G<111.5 116.5 791.5 796.5> 378 36<359.304 561.132> 1059 35<350.483 557.109>
VStem: 96 36<5.1875 1088.81> 777 35<631.498 840.044>
LayerCount: 2
UndoRedoHistory
Layer: 1
Undoes
EndUndoes
Redoes
EndRedoes
EndUndoRedoHistory
Fore
SplineSet
113 1094 m 2
 114 1094 l 2
 119 1094 123 1092 127 1089 c 1
 130 1085 132 1081 132 1076 c 2
 132 892 l 1
 162 952 205 1001 263 1038 c 0
 321 1075 384 1094 454 1094 c 0
 519 1094 579 1078 634 1046 c 0
 689 1014 732 970 764 915 c 0
 796 860 812 800 812 736 c 0
 812 671 796 611 764 556 c 0
 732 501 689 458 634 426 c 0
 579 394 519 378 454 378 c 0
 427 378 399 381 370 389 c 1
 806 32 l 1
 810 27 812 22 812 18 c 0
 812 13 810 9 807 5 c 0
 803 1 799 0 794 0 c 0
 789 -0 785 1 783 4 c 1
 231 457 l 1
 230 457 l 1
 230 458 l 1
 228 458 l 1
 228 459 l 1
 228 460 l 1
 227 462 l 1
 226 462 l 1
 226 463 l 1
 225 463 l 1
 225 465 l 1
 224 465 l 1
 224 467 l 1
 224 469 l 1
 224 470 l 1
 224 471 l 1
 224 472 l 1
 224 474 l 1
 224 475 l 1
 225 477 l 1
 225 477 226 477 226 478 c 2
 226 479 l 1
 227 480 l 1
 228 481 l 1
 229 483 l 1
 230 484 l 1
 230 484 230 485 231 485 c 2
 233 486 l 1
 234 486 l 1
 234 487 l 1
 235 487 l 1
 235 487 236 488 237 488 c 2
 238 488 l 1
 239 488 l 1
 240 488 l 1
 241 488 l 1
 242 488 l 1
 243 488 l 1
 244 488 l 1
 245 488 l 1
 247 488 l 2
 248 488 249 487 250 486 c 2
 252 485 l 1
 252 484 l 1
 254 484 l 1
 312 437 378 414 454 414 c 0
 512 414 566 428 616 457 c 0
 666 485 705 524 734 574 c 0
 762 624 777 678 777 736 c 0
 777 794 762 848 734 898 c 1
 705 947 666 986 616 1015 c 0
 566 1044 512 1059 454 1059 c 0
 396 1059 342 1044 292 1015 c 0
 242 986 203 947 175 898 c 0
 146 848 132 794 132 736 c 2
 132 735 l 1
 132 18 l 2
 132 13 130 9 127 5 c 0
 123 1 119 -0 114 -0 c 0
 109 -0 105 1 101 5 c 0
 97 9 96 13 96 18 c 2
 96 736 l 1
 96 1076 l 2
 96 1081 97 1085 101 1089 c 0
 104 1092 108 1094 113 1094 c 2
EndSplineSet
Validated: 5
EndChar

StartChar: S
Encoding: 83 83 52
Width: 874
VWidth: 0
GlyphClass: 2
Flags: W
HStem: 0 36<323.522 537.67> 680 36<325.836 536.285> 1059 35<338.296 523.356>
VStem: 73 36<250.765 375.963> 148 36<718.257 905.077> 218 101<583.576 620.682> 678 36<794.019 903.655> 753 36<251.912 463.285>
LayerCount: 2
UndoRedoHistory
Layer: 1
Undoes
EndUndoes
Redoes
EndRedoes
EndUndoRedoHistory
Fore
SplineSet
431 1094 m 0
 509 1094 575 1066 631 1011 c 1
 686 955 714 889 714 812 c 0
 714 806 712 802 708 799 c 0
 704 795 700 794 695 794 c 0
 690 794 686 795 683 799 c 1
 679 802 678 806 678 812 c 0
 678 880 654 938 606 986 c 0
 558 1034 499 1059 431 1059 c 0
 362 1059 304 1034 256 986 c 0
 208 938 184 880 184 812 c 0
 184 754 201 703 237 659 c 1
 296 697 361 716 431 716 c 0
 495 716 555 700 610 668 c 0
 665 636 709 592 741 537 c 0
 773 482 789 422 789 358 c 0
 789 293 773 233 741 178 c 0
 709 123 665 80 610 48 c 0
 555 16 495 0 431 0 c 0
 366 0 306 16 251 48 c 0
 196 80 153 123 121 178 c 0
 89 233 73 293 73 358 c 0
 73 362 74 366 78 370 c 0
 81 374 85 376 90 376 c 0
 95 376 99 374 103 370 c 0
 107 366 109 362 109 358 c 0
 109 299 123 245 152 196 c 1
 180 146 219 107 269 79 c 1
 318 50 372 36 431 36 c 0
 489 36 543 50 593 79 c 0
 642 107 681 146 710 196 c 0
 738 245 753 299 753 358 c 0
 753 416 738 470 710 520 c 1
 681 569 642 608 593 637 c 1
 543 665 489 680 431 680 c 0
 370 680 314 664 262 632 c 1
 277 617 293 605 310 596 c 0
 316 593 319 588 319 581 c 0
 319 575 317 571 314 568 c 0
 310 564 306 563 301 563 c 0
 297 563 294 563 292 565 c 0
 266 579 243 598 223 620 c 0
 220 623 218 625 218 626 c 0
 171 679 148 741 148 812 c 0
 148 889 175 955 231 1011 c 0
 286 1066 353 1094 431 1094 c 0
EndSplineSet
Validated: 1
EndChar

StartChar: T
Encoding: 84 84 53
Width: 838
VWidth: 0
GlyphClass: 2
Flags: W
HStem: -0 21G<415.5 420> 1059 35<65.1414 400 436 769.812>
VStem: 400 36<5.1875 1059>
LayerCount: 2
UndoRedoHistory
Layer: 1
Undoes
EndUndoes
Redoes
EndRedoes
EndUndoRedoHistory
Fore
SplineSet
418 1094 m 1
 421 1094 l 1
 758 1094 l 2
 762 1094 766 1092 770 1089 c 0
 774 1085 776 1081 776 1076 c 0
 776 1071 774 1067 770 1064 c 0
 766 1060 762 1059 758 1059 c 2
 436 1059 l 1
 436 18 l 2
 436 13 434 9 430 5 c 0
 426 1 422 -0 418 -0 c 0
 413 -0 409 1 405 5 c 0
 401 9 400 13 400 18 c 2
 400 1059 l 1
 78 1059 l 2
 72 1059 68 1060 65 1064 c 1
 61 1067 60 1071 60 1076 c 0
 60 1081 61 1085 65 1089 c 0
 68 1092 72 1094 78 1094 c 2
 415 1094 l 1
 418 1094 l 1
EndSplineSet
Validated: 1
EndChar

StartChar: U
Encoding: 85 85 54
Width: 901
VWidth: 0
GlyphClass: 2
Flags: W
HStem: 0 36<341.868 556.132> 1074 20G<106 111.5 786.5 791>
VStem: 92 34<255.845 1088.81> 772 35<253.234 1088.81>
LayerCount: 2
UndoRedoHistory
Layer: 1
Undoes
EndUndoes
Redoes
EndRedoes
EndUndoRedoHistory
Fore
SplineSet
109 1094 m 0
 114 1094 118 1092 121 1089 c 0
 125 1085 126 1081 126 1076 c 2
 126 358 l 2
 126 299 141 245 169 196 c 0
 198 146 237 107 287 79 c 0
 337 50 391 36 449 36 c 0
 507 36 561 50 611 79 c 0
 661 107 700 146 729 196 c 0
 757 245 772 299 772 358 c 2
 772 1076 l 2
 772 1081 773 1085 777 1089 c 0
 780 1092 784 1094 789 1094 c 0
 793 1094 797 1092 801 1089 c 0
 805 1085 807 1081 807 1076 c 2
 807 358 l 2
 807 293 791 233 759 178 c 0
 727 123 683 80 629 48 c 0
 574 16 514 0 449 0 c 0
 384 0 324 16 269 48 c 0
 214 80 171 123 139 178 c 0
 107 233 92 293 92 358 c 2
 92 1076 l 2
 92 1081 93 1085 96 1089 c 0
 99 1092 103 1094 109 1094 c 0
EndSplineSet
Validated: 1
EndChar

StartChar: V
Encoding: 86 86 55
Width: 916
VWidth: 0
GlyphClass: 2
Flags: W
HStem: -0 21G<453 461> 1074 20G<75.5 82 830 836.5>
VStem: 62 33<1082 1087.81> 817 36<1082 1088.81>
LayerCount: 2
UndoRedoHistory
Layer: 1
Undoes
EndUndoes
Redoes
EndRedoes
EndUndoRedoHistory
Fore
SplineSet
78 1094 m 1
 86 1094 92 1090 95 1082 c 2
 456 69 l 1
 817 1082 l 1
 821 1090 826 1094 834 1094 c 0
 839 1094 843 1092 847 1089 c 0
 851 1085 853 1081 853 1076 c 0
 853 1073 852 1071 852 1070 c 2
 474 11 l 1
 470 3 465 -0 457 -0 c 0
 449 -0 443 3 441 11 c 2
 62 1070 l 1
 62 1076 l 2
 62 1080 63 1084 66 1088 c 0
 69 1092 73 1094 78 1094 c 1
EndSplineSet
Validated: 5
EndChar

StartChar: W
Encoding: 87 87 56
Width: 1295
VWidth: 0
GlyphClass: 2
Flags: W
HStem: -0 21G<453 461 831 839> 1074 20G<75.5 82.5 454 460 830 836.5 1209 1215.5>
VStem: 62 33<1082 1087.81> 438 35<1082 1088.81> 817 36<1082 1088.81> 1196 35<1082 1088.81>
LayerCount: 2
UndoRedoHistory
Layer: 1
Undoes
EndUndoes
Redoes
EndRedoes
EndUndoRedoHistory
Fore
SplineSet
78 1094 m 1
 87 1094 93 1090 95 1082 c 2
 456 69 l 1
 626 546 l 1
 440 1070 l 2
 439 1072 438 1074 438 1076 c 0
 438 1081 440 1085 444 1089 c 0
 448 1092 452 1094 456 1094 c 0
 464 1094 470 1090 473 1082 c 2
 645 599 l 1
 817 1082 l 1
 821 1090 826 1094 834 1094 c 0
 839 1094 843 1092 847 1089 c 0
 851 1085 853 1081 853 1076 c 0
 853 1073 852 1071 852 1070 c 2
 665 546 l 1
 835 69 l 1
 1196 1082 l 2
 1199 1090 1205 1094 1213 1094 c 0
 1218 1094 1222 1092 1226 1089 c 1
 1229 1085 1231 1081 1231 1076 c 0
 1231 1074 1230 1072 1230 1070 c 2
 852 11 l 2
 849 3 843 -0 835 -0 c 0
 827 -0 821 3 818 11 c 2
 646 493 l 1
 474 11 l 1
 470 3 465 -0 457 -0 c 0
 449 -0 443 3 441 11 c 2
 62 1070 l 1
 62 1076 l 2
 62 1080 63 1084 66 1088 c 0
 69 1092 73 1094 78 1094 c 1
EndSplineSet
Validated: 5
EndChar

StartChar: X
Encoding: 88 88 57
Width: 923
VWidth: 0
GlyphClass: 2
Flags: W
HStem: 0 21G<84.5 90 834 839>
LayerCount: 2
UndoRedoHistory
Layer: 1
Undoes
EndUndoes
Redoes
EndRedoes
EndUndoRedoHistory
Fore
SplineSet
87 1091 m 0
 93 1091 98 1088 102 1084 c 2
 462 575 l 1
 822 1084 l 2
 826 1088 831 1091 837 1091 c 0
 841 1091 845 1089 849 1086 c 0
 853 1082 855 1078 855 1073 c 0
 855 1069 853 1066 851 1063 c 2
 484 545 l 1
 851 28 l 2
 853 24 855 21 855 18 c 0
 855 13 853 9 849 5 c 0
 845 1 841 0 837 0 c 0
 831 -0 826 2 822 7 c 2
 462 515 l 1
 102 7 l 2
 98 2 93 0 87 0 c 0
 82 -0 78 1 75 5 c 0
 71 9 70 13 70 18 c 0
 70 21 71 24 73 28 c 2
 441 545 l 1
 73 1063 l 2
 71 1066 70 1069 70 1073 c 0
 70 1078 71 1082 74 1086 c 0
 77 1089 81 1091 87 1091 c 0
EndSplineSet
Validated: 1
EndChar

StartChar: Y
Encoding: 89 89 58
Width: 1130
VWidth: 0
GlyphClass: 2
Flags: W
HStem: -221.672 35.3005<249.248 453.899> 1074 20G<290 296.5 1045 1051>
VStem: 275 35<1083 1093.99> 1033 34<1083 1088.81>
LayerCount: 2
UndoRedoHistory
Layer: 1
Undoes
EndUndoes
Redoes
EndRedoes
EndUndoRedoHistory
Fore
SplineSet
292 1094 m 1
 301 1094 307 1090 310 1083 c 2
 671 70 l 1
 1033 1083 l 2
 1035 1090 1041 1094 1049 1094 c 0
 1053 1094 1057 1092 1061 1089 c 0
 1065 1085 1067 1081 1067 1076 c 0
 1067 1073 1066 1071 1066 1071 c 1
 688 14 l 2
 688 12 687 10 687 8 c 0
 669 -36 644 -76 611 -110 c 0
 578 -144 541 -171 500 -189 c 0
 459 -207 415 -217 368 -221 c 1
 360.853204876 -221.446674695 353.750747147 -221.671662409 346.686025351 -221.671662409 c 0
 306.301976012 -221.671662409 267.150988006 -214.319951828 228 -199 c 1
 157 -173 100 -129 58 -67 c 0
 56 -63 55 -60 55 -58 c 0
 55 -52 56 -48 60 -45 c 0
 64 -41 68 -40 73 -40 c 0
 79 -40 83 -42 87 -47 c 0
 126 -103 177 -143 241 -166 c 1
 276.075774975 -180.03030999 312.689437438 -186.371182542 349.492422502 -186.371182542 c 0
 354.659127448 -186.371182542 359.829563724 -186.246211251 365 -186 c 0
 407 -183 447 -174 484 -158 c 0
 521 -142 554 -118 584 -88 c 1
 613 -57 636 -21 652 18 c 1
 276 1071 l 2
 275 1071 275 1073 275 1076 c 0
 275 1080 276 1084 280 1088 c 0
 284 1092 288 1094 292 1094 c 1
EndSplineSet
Validated: 524293
EndChar

StartChar: Z
Encoding: 90 90 59
Width: 933
VWidth: 0
GlyphClass: 2
Flags: W
HStem: 0 36<122 861.999> 1059 35<75.1414 809>
LayerCount: 2
UndoRedoHistory
Layer: 1
Undoes
EndUndoes
Redoes
EndRedoes
EndUndoRedoHistory
Fore
SplineSet
87 1094 m 2
 844 1094 l 2
 848 1094 852 1092 856 1089 c 1
 859 1085 861 1081 861 1076 c 0
 861 1072 860 1069 858 1066 c 2
 122 36 l 1
 844 36 l 2
 848 36 852 34 856 30 c 0
 860 26 862 22 862 18 c 0
 862 13 860 9 856 5 c 0
 852 1 848 0 844 0 c 2
 87 0 l 2
 82 -0 78 1 75 5 c 0
 71 9 70 13 70 18 c 0
 70 21 71 24 73 28 c 2
 809 1059 l 1
 87 1059 l 2
 82 1059 78 1060 75 1064 c 1
 71 1067 70 1071 70 1076 c 0
 70 1081 71 1085 75 1089 c 0
 78 1092 82 1094 87 1094 c 2
EndSplineSet
Validated: 1
EndChar

StartChar: bracketleft
Encoding: 91 91 60
Width: 325
VWidth: 0
GlyphClass: 2
Flags: W
HStem: -103 37<172.996 245.993> 1182 35<174.509 240.859>
VStem: 98 36<-26.0063 1141.41>
LayerCount: 2
UndoRedoHistory
Layer: 1
Undoes
EndUndoes
Redoes
EndRedoes
EndUndoRedoHistory
Fore
SplineSet
229 1217 m 0
 234 1217 238 1215 241 1212 c 0
 245 1208 246 1204 246 1199 c 0
 246 1194 245 1190 241 1187 c 1
 238 1183 234 1182 229 1182 c 0
 203 1182 180 1172 162 1154 c 0
 143 1135 134 1112 134 1086 c 2
 134 28 l 2
 134 2 143 -20 162 -38 c 1
 180 -57 203 -66 229 -66 c 0
 234 -66 238 -68 241 -72 c 0
 245 -76 246 -80 246 -85 c 0
 246 -89 245 -93 241 -97 c 0
 238 -101 234 -103 229 -103 c 0
 193 -103 162 -90 136 -64 c 0
 110 -38 98 -8 98 28 c 2
 98 1086 l 2
 98 1122 110 1152 136 1178 c 0
 162 1204 193 1217 229 1217 c 0
EndSplineSet
Validated: 1
EndChar

StartChar: backslash
Encoding: 92 92 61
Width: 872
VWidth: 0
GlyphClass: 2
Flags: W
VStem: 78 33<1208 1211.81>
LayerCount: 2
UndoRedoHistory
Layer: 1
Undoes
EndUndoes
Redoes
EndRedoes
EndUndoRedoHistory
Fore
SplineSet
777 -254 m 2
 776 -254 l 2
 768 -254 762 -250 760 -244 c 2
 79 1192 l 2
 78 1194 78 1197 78 1200 c 0
 78 1204 79 1208 83 1212 c 0
 86 1215 90 1217 95 1217 c 0
 103 1217 109 1214 111 1208 c 2
 791 -228 l 2
 793 -231 793 -234 793 -237 c 0
 793 -241 792 -245 788 -249 c 0
 785 -252 781 -254 777 -254 c 2
EndSplineSet
Validated: 1
EndChar

StartChar: bracketright
Encoding: 93 93 62
Width: 325
VWidth: 0
GlyphClass: 2
Flags: W
HStem: -103 36<78.0015 152.006> 1182 35<84.1875 152.006>
VStem: 194 34<-24.3281 1138.59>
LayerCount: 2
UndoRedoHistory
Layer: 1
Undoes
EndUndoes
Redoes
EndRedoes
EndUndoRedoHistory
Fore
SplineSet
98 1217 m 2
 134 1217 164 1204 190 1178 c 0
 215 1152 228 1122 228 1086 c 2
 228 27 l 2
 228 -8 215 -38 190 -64 c 0
 164 -90 134 -103 98 -103 c 2
 97 -103 l 2
 92 -103 88 -101 84 -97 c 0
 80 -93 78 -89 78 -85 c 0
 78 -80 80 -76 84 -72 c 0
 88 -68 92 -67 97 -67 c 2
 98 -67 l 2
 124 -67 146 -57 165 -39 c 0
 184 -20 194 1 194 27 c 2
 194 1086 l 2
 194 1112 184 1135 165 1154 c 0
 146 1172 124 1182 98 1182 c 2
 97 1182 l 2
 92 1182 88 1183 84 1187 c 0
 80 1190 78 1194 78 1199 c 0
 78 1204 80 1208 84 1212 c 0
 88 1215 92 1217 97 1217 c 2
 98 1217 l 2
EndSplineSet
Validated: 1
EndChar

StartChar: asciicircum
Encoding: 94 94 63
Width: 508
VWidth: 0
GlyphClass: 2
Flags: W
HStem: 913 181
VStem: 92 327
LayerCount: 2
UndoRedoHistory
Layer: 1
Undoes
EndUndoes
Redoes
EndRedoes
EndUndoRedoHistory
Fore
SplineSet
255 1094 m 0
 259 1094 263 1092 267 1089 c 2
 419 938 l 1
 394 913 l 1
 255 1051 l 1
 117 913 l 1
 92 938 l 1
 242 1089 l 2
 245 1092 249 1094 255 1094 c 0
EndSplineSet
Validated: 1
EndChar

StartChar: underscore
Encoding: 95 95 64
Width: 772
VWidth: 0
GlyphClass: 2
Flags: W
HStem: -75 35<108.141 661.859>
VStem: 103 564<-69.8125 -40>
LayerCount: 2
UndoRedoHistory
Layer: 1
Undoes
EndUndoes
Redoes
EndRedoes
EndUndoRedoHistory
Fore
SplineSet
121 -40 m 2
 650 -40 l 2
 655 -40 659 -41 662 -45 c 1
 666 -48 667 -52 667 -57 c 0
 667 -62 666 -66 662 -70 c 0
 659 -73 655 -75 649 -75 c 2
 120 -75 l 2
 115 -75 111 -73 108 -70 c 0
 104 -66 103 -62 103 -57 c 0
 103 -52 104 -48 108 -45 c 1
 111 -41 115 -40 121 -40 c 2
EndSplineSet
Validated: 1
EndChar

StartChar: quoteleft
Encoding: 8216 8216 65
Width: 443
VWidth: 0
GlyphClass: 2
Flags: W
HStem: 907 187
VStem: 92 261
LayerCount: 2
UndoRedoHistory
Layer: 1
Undoes
EndUndoes
Redoes
EndRedoes
EndUndoRedoHistory
Fore
SplineSet
109 1094 m 0
 112 1094 115 1093 118 1091 c 2
 345 940 l 2
 351 936 353 931 353 925 c 0
 353 920 352 916 348 912 c 0
 344 908 340 907 335 907 c 0
 332 907 329 908 326 910 c 2
 100 1062 l 2
 94 1065 92 1070 92 1076 c 0
 92 1081 93 1085 97 1089 c 0
 100 1092 104 1094 109 1094 c 0
EndSplineSet
Validated: 1
EndChar

StartChar: a
Encoding: 97 97 66
Width: 809
VWidth: 0
GlyphClass: 2
Flags: W
HStem: 0 36<310.522 524.752> 680 36<311.912 522.484>
VStem: 60 36<250.522 464.67> 684 35<4.1875 117 153.626 561.942 599 710.812>
LayerCount: 2
UndoRedoHistory
Layer: 1
Undoes
EndUndoes
Redoes
EndRedoes
EndUndoRedoHistory
Fore
SplineSet
418 716 m 0
 470 716 519 705 565 685 c 0
 611 664 650 635 684 599 c 1
 684 698 l 2
 684 703 685 707 689 711 c 0
 692 714 696 716 701 716 c 0
 706 716 710 714 714 711 c 1
 717 707 719 703 719 698 c 2
 719 548 l 1
 719 546 l 1
 719 545 l 1
 719 171 l 1
 719 170 l 1
 719 169 l 1
 719 168 l 1
 719 167 l 1
 719 18 l 1
 719 17 l 2
 719 12 717 8 714 4 c 0
 710 0 706 -1 701 -1 c 0
 696 -1 692 0 689 4 c 0
 685 8 684 12 684 17 c 2
 684 18 l 1
 684 117 l 1
 650 80 611 51 565 31 c 0
 519 10 470 0 418 0 c 0
 353 0 293 16 238 48 c 0
 183 80 140 123 108 178 c 0
 76 233 60 293 60 358 c 0
 60 422 76 482 108 537 c 0
 140 592 183 636 238 668 c 0
 293 700 353 716 418 716 c 0
418 680 m 0
 359 680 305 665 256 637 c 0
 206 608 167 569 139 520 c 0
 110 470 96 416 96 358 c 0
 96 299 110 245 139 196 c 1
 167 146 206 107 256 79 c 1
 305 50 359 36 418 36 c 0
 472 36 522 48 569 73 c 0
 615 98 654 132 684 175 c 1
 684 541 l 1
 654 583 615 617 569 642 c 0
 522 667 472 680 418 680 c 0
EndSplineSet
Validated: 1
EndChar

StartChar: b
Encoding: 98 98 67
Width: 842
VWidth: 0
GlyphClass: 2
Flags: W
HStem: -0 35<292.294 501.044> 679 36<288.881 503.67> 1074 20G<110.5 116.5>
VStem: 96 36<5.1875 117 150.225 564.238 598 1088.81> 719 36<251.715 463.088>
LayerCount: 2
UndoRedoHistory
Layer: 1
Undoes
EndUndoes
Redoes
EndRedoes
EndUndoRedoHistory
Fore
SplineSet
113 1094 m 2
 114 1094 l 2
 119 1094 123 1092 127 1089 c 1
 130 1085 132 1081 132 1076 c 2
 132 598 l 1
 165 635 204 664 250 684 c 0
 296 705 345 715 397 715 c 0
 461 715 521 699 576 667 c 0
 631 635 675 592 707 537 c 0
 739 482 755 422 755 357 c 0
 755 293 739 233 707 178 c 0
 675 123 631 79 576 47 c 0
 521 15 461 -0 397 -0 c 0
 345 -0 296 10 250 30 c 0
 204 51 165 80 132 117 c 1
 132 18 l 2
 132 13 130 9 127 5 c 0
 123 1 119 -0 114 -0 c 0
 109 -0 105 1 101 5 c 0
 97 9 96 13 96 18 c 2
 96 168 l 1
 96 169 l 1
 96 170 l 1
 96 547 l 1
 96 1076 l 2
 96 1081 97 1085 101 1089 c 0
 104 1092 108 1094 113 1094 c 2
397 679 m 0
 343 679 292 667 246 643 c 0
 200 618 162 584 132 541 c 1
 132 173 l 1
 162 131 200 97 246 72 c 0
 292 48 343 35 397 35 c 0
 455 35 509 50 559 78 c 1
 608 107 647 146 676 195 c 1
 704 245 719 299 719 357 c 0
 719 416 704 470 676 519 c 0
 647 569 608 608 559 636 c 0
 509 665 455 679 397 679 c 0
EndSplineSet
Validated: 1
EndChar

StartChar: c
Encoding: 99 99 68
Width: 813
VWidth: 0
GlyphClass: 2
Flags: W
HStem: 0 36<329.868 544.575> 680 36<331.257 542.086>
VStem: 79 36<250.522 464.67>
LayerCount: 2
UndoRedoHistory
Layer: 1
Undoes
EndUndoes
Redoes
EndRedoes
EndUndoRedoHistory
Fore
SplineSet
437 716 m 0
 498 716 555 701 608 673 c 1
 660 644 703 605 735 556 c 0
 737 554 738 551 738 547 c 0
 738 541 736 537 733 534 c 0
 729 530 725 529 721 529 c 0
 715 529 710 531 706 537 c 0
 676 581 638 615 591 641 c 0
 543 667 492 680 437 680 c 0
 379 680 325 665 275 637 c 0
 225 608 186 569 158 520 c 0
 129 470 115 416 115 358 c 0
 115 299 129 245 158 196 c 1
 186 146 225 107 275 79 c 0
 325 50 379 36 437 36 c 0
 492 36 543 48 591 74 c 0
 638 100 676 135 706 179 c 0
 709 183 714 186 720 186 c 0
 724 186 728 184 732 181 c 0
 736 178 738 174 738 169 c 0
 738 164 737 161 735 159 c 0
 703 110 660 71 608 43 c 0
 555 14 498 0 437 0 c 0
 372 0 312 16 257 48 c 0
 202 80 159 123 127 178 c 0
 95 233 79 293 79 358 c 0
 79 422 95 482 127 537 c 0
 159 592 202 636 257 668 c 0
 312 700 372 716 437 716 c 0
EndSplineSet
Validated: 1
EndChar

StartChar: d
Encoding: 100 100 69
Width: 835
VWidth: 0
GlyphClass: 2
Flags: W
HStem: 0 36<328.522 542.263> 680 36<329.912 539.997> 1074 20G<715.5 720.5>
VStem: 78 35<251.912 463.285> 701 35<5.1875 117 152.631 561.942 599 1088.81>
LayerCount: 2
UndoRedoHistory
Layer: 1
Undoes
EndUndoes
Redoes
EndRedoes
EndUndoRedoHistory
Fore
SplineSet
718 1094 m 0
 723 1094 727 1092 731 1089 c 1
 734 1085 736 1081 736 1076 c 2
 736 169 l 1
 736 18 l 2
 736 13 734 9 731 5 c 0
 727 1 723 0 718 0 c 0
 713 0 709 1 706 5 c 0
 702 9 701 13 701 18 c 2
 701 117 l 1
 667 80 628 51 582 31 c 0
 536 10 487 0 436 0 c 0
 371 0 311 16 256 48 c 0
 201 80 158 123 126 178 c 0
 94 233 78 293 78 358 c 0
 78 422 94 482 126 537 c 0
 158 592 201 636 256 668 c 0
 311 700 371 716 436 716 c 0
 487 716 536 705 582 685 c 0
 628 664 667 635 701 599 c 1
 701 1076 l 2
 701 1081 702 1085 706 1089 c 0
 709 1092 713 1094 718 1094 c 0
436 680 m 0
 377 680 323 665 274 637 c 0
 224 608 185 569 156 520 c 0
 127 470 113 416 113 358 c 0
 113 299 127 245 156 196 c 0
 185 146 224 107 274 79 c 1
 323 50 377 36 436 36 c 0
 490 36 540 48 587 73 c 0
 633 97 671 131 701 174 c 1
 701 541 l 1
 671 583 633 617 587 642 c 0
 540 667 490 680 436 680 c 0
EndSplineSet
Validated: 1
EndChar

StartChar: e
Encoding: 101 101 70
Width: 874
VWidth: 0
GlyphClass: 2
Flags: W
HStem: 0 36<329.868 544.575> 377 37<193.007 755> 680 36<331.257 542.214>
VStem: 79 36<250.522 464.67>
LayerCount: 2
UndoRedoHistory
Layer: 1
Undoes
EndUndoes
Redoes
EndRedoes
EndUndoRedoHistory
Fore
SplineSet
437 716 m 0
 529 716 608 685 676 624 c 0
 744 563 783 488 793 398 c 1
 793 396 l 1
 794 396 l 1
 794 391 792 387 788 383 c 0
 784 379 780 377 776 377 c 2
 211 377 l 2
 205 377 201 379 198 383 c 0
 194 387 193 391 193 396 c 0
 193 400 194 404 198 408 c 0
 201 412 205 414 211 414 c 2
 755 414 l 1
 741 490 705 554 645 604 c 0
 585 654 516 680 437 680 c 0
 379 680 325 665 275 637 c 0
 225 608 186 569 158 520 c 0
 129 470 115 416 115 358 c 0
 115 299 129 245 158 196 c 1
 186 146 225 107 275 79 c 0
 325 50 379 36 437 36 c 0
 492 36 543 48 591 74 c 0
 638 100 676 135 706 179 c 0
 710 184 715 187 721 187 c 0
 725 187 729 185 733 182 c 0
 737 178 739 174 739 169 c 0
 739 165 737 162 735 159 c 0
 703 110 660 71 608 43 c 0
 555 14 498 0 437 0 c 0
 372 0 312 16 257 48 c 0
 202 80 159 123 127 178 c 0
 95 233 79 293 79 358 c 0
 79 422 95 482 127 537 c 0
 159 592 202 636 257 668 c 0
 312 700 372 716 437 716 c 0
EndSplineSet
Validated: 1
EndChar

StartChar: f
Encoding: 102 102 71
Width: 704
VWidth: 0
GlyphClass: 2
Flags: W
HStem: 377 37<62.0068 221 256 475.987> 1059 35<474.964 680.877>
VStem: 221 35<-220.812 377 414 842.544>
LayerCount: 2
UndoRedoHistory
Layer: 1
Undoes
EndUndoes
Redoes
EndRedoes
EndUndoRedoHistory
Fore
SplineSet
579 1094 m 0
 631 1094 681 1083 728 1061 c 0
 775 1039 815 1008 849 970 c 0
 852 967 854 963 854 959 c 0
 854 954 852 950 848 946 c 0
 844 942 840 940 836 940 c 0
 831 940 826 943 822 947 c 0
 792 982 755 1009 713 1029 c 0
 671 1049 626 1059 579 1059 c 0
 520 1059 466 1044 416 1015 c 0
 366 986 327 947 298 898 c 1
 270 848 255 794 255 736 c 2
 255 414 l 1
 457 414 l 2
 462 414 466 412 470 408 c 0
 474 404 476 400 476 395 c 0
 476 391 474 387 470 383 c 0
 466 379 462 377 458 377 c 2
 256 377 l 1
 256 -208 l 1
 256 -209 l 2
 256 -213 254 -217 251 -221 c 0
 247 -225 243 -227 238 -227 c 0
 233 -227 229 -225 226 -221 c 0
 222 -217 221 -213 221 -209 c 2
 221 -208 l 1
 221 377 l 1
 80 377 l 2
 74 377 70 379 67 383 c 0
 63 387 62 391 62 395 c 0
 62 400 63 404 67 408 c 0
 70 412 74 414 80 414 c 2
 221 414 l 1
 221 736 l 2
 221 800 236 860 268 915 c 0
 300 970 343 1014 398 1046 c 0
 453 1078 513 1094 579 1094 c 0
EndSplineSet
Validated: 1
EndChar

StartChar: g
Encoding: 103 103 72
Width: 837
VWidth: 0
GlyphClass: 2
Flags: W
HStem: -362 36<272.677 487.317> 0 36<329.868 544.136> 680 36<331.257 541.858>
VStem: 79 35<253.146 462.044> 703 35<-108.766 117 152.631 561.942 599 710.812>
LayerCount: 2
UndoRedoHistory
Layer: 1
Undoes
EndUndoes
Redoes
EndRedoes
EndUndoRedoHistory
Fore
SplineSet
720 716 m 2
 721 716 l 2
 725 716 729 714 733 711 c 1
 736 707 738 703 738 698 c 2
 738 548 l 1
 738 547 l 1
 738 546 l 1
 738 169 l 1
 738 -4 l 2
 738 -69 722 -129 690 -184 c 0
 658 -239 614 -282 560 -314 c 0
 505 -346 445 -362 381 -362 c 0
 333 -362 288 -354 246 -336 c 0
 204 -319 166 -295 134 -263 c 0
 130 -259 128 -255 128 -250 c 0
 128 -246 129 -242 133 -238 c 0
 137 -234 141 -232 146 -232 c 0
 150 -232 154 -234 158 -238 c 0
 187 -266 221 -288 259 -303 c 0
 297 -319 338 -326 381 -326 c 0
 439 -326 492 -312 542 -283 c 0
 592 -255 631 -216 660 -166 c 0
 688 -117 703 -63 703 -4 c 2
 703 117 l 1
 669 80 630 51 584 31 c 0
 538 10 489 0 437 0 c 0
 372 0 312 16 257 48 c 0
 202 80 159 123 127 178 c 0
 95 233 79 293 79 358 c 0
 79 422 95 482 127 537 c 0
 159 592 202 636 257 668 c 0
 312 700 372 716 437 716 c 0
 489 716 538 705 584 685 c 0
 630 664 669 635 703 599 c 1
 703 698 l 2
 703 703 704 707 708 711 c 0
 711 714 715 716 720 716 c 2
437 680 m 0
 379 680 325 665 275 637 c 0
 225 608 186 569 157 520 c 1
 129 470 114 416 114 358 c 0
 114 299 129 245 157 196 c 0
 186 146 225 107 275 79 c 0
 325 50 379 36 437 36 c 0
 491 36 542 48 589 73 c 0
 635 97 673 131 703 174 c 1
 703 541 l 1
 673 583 635 617 589 642 c 0
 542 667 491 680 437 680 c 0
EndSplineSet
Validated: 1
EndChar

StartChar: h
Encoding: 104 104 73
Width: 828
VWidth: 0
GlyphClass: 2
Flags: W
HStem: -0 21G<111.5 116.5 715.5 720.5> 680 36<272.929 486.52> 1074 20G<111.5 116.5>
VStem: 96 36<5.1875 584.406 617 1088.81> 701 35<5.1875 462.002>
LayerCount: 2
UndoRedoHistory
Layer: 1
Undoes
EndUndoes
Redoes
EndRedoes
EndUndoRedoHistory
Fore
SplineSet
114 1094 m 0
 119 1094 123 1092 127 1089 c 1
 130 1085 132 1081 132 1076 c 2
 132 617 l 1
 201 683 283 716 378 716 c 0
 442 716 501 700 556 669 c 1
 610 637 654 595 686 541 c 0
 718 487 734 429 736 366 c 1
 736 18 l 2
 736 13 734 9 731 5 c 0
 727 1 723 -0 718 -0 c 0
 713 -0 709 1 706 5 c 0
 702 9 701 13 701 18 c 2
 701 366 l 1
 699 453 666 527 604 588 c 0
 541 649 466 680 378 680 c 0
 329 680 283 669 241 649 c 0
 198 629 162 601 132 565 c 1
 132 18 l 2
 132 13 130 9 127 5 c 0
 123 1 119 -0 114 -0 c 0
 109 -0 105 1 101 5 c 0
 97 9 96 13 96 18 c 2
 96 570 l 1
 96 572 l 1
 96 574 l 1
 96 1076 l 2
 96 1081 97 1085 101 1089 c 0
 105 1092 109 1094 114 1094 c 0
EndSplineSet
Validated: 1
EndChar

StartChar: i
Encoding: 105 105 74
Width: 258
VWidth: 0
GlyphClass: 2
Flags: W
HStem: -0 21G<124.5 129> 695 20G<123.5 129> 982 37<110.096 143.794> 1059 35<107.443 146.456>
VStem: 71 36<1021.73 1058.77> 109 35<5.1875 709.859> 147 35<1021.73 1058.74>
LayerCount: 2
UndoRedoHistory
Layer: 1
Undoes
EndUndoes
Redoes
EndRedoes
EndUndoRedoHistory
Fore
SplineSet
127 1094 m 0
 142 1094 155 1088 166 1078 c 1
 176 1067 182 1054 182 1038 c 0
 182 1022 176 1009 166 998 c 1
 155 988 142 982 127 982 c 0
 111 982 98 988 87 998 c 0
 76 1009 71 1022 71 1038 c 0
 71 1054 76 1067 87 1078 c 0
 98 1088 111 1094 127 1094 c 0
127 1059 m 0
 121 1059 117 1057 113 1053 c 0
 109 1049 107 1044 107 1038 c 0
 107 1032 109 1028 113 1024 c 0
 117 1020 121 1019 127 1019 c 0
 133 1019 137 1020 141 1024 c 0
 145 1028 147 1032 147 1038 c 0
 147 1044 145 1049 141 1053 c 0
 137 1057 133 1059 127 1059 c 0
126 715 m 2
 127 715 l 2
 131 715 135 714 139 710 c 0
 142 707 144 703 144 697 c 2
 144 17 l 2
 144 12 142 8 139 4 c 1
 135 1 131 -0 127 -0 c 0
 122 -0 118 1 114 5 c 0
 110 9 109 13 109 17 c 2
 109 697 l 2
 109 703 110 707 114 710 c 1
 117 714 121 715 126 715 c 2
EndSplineSet
Validated: 1
EndChar

StartChar: j
Encoding: 106 106 75
Width: 557
VWidth: 0
GlyphClass: 2
Flags: W
HStem: -362 36<-4.33794 206.743> 696 20G<439 443.5> 983 36<421.234 461.841> 1059 35<421.261 461.814>
VStem: 386 35<1019.39 1058.46> 423 36<-110.544 710.812> 462 35<1019.44 1058.81>
LayerCount: 2
UndoRedoHistory
Layer: 1
Undoes
EndUndoes
Redoes
EndRedoes
EndUndoRedoHistory
Fore
SplineSet
442 1094 m 0
 457 1094 470 1088 481 1078 c 1
 491 1067 497 1054 497 1039 c 0
 497 1023 491 1010 481 999 c 0
 470 988 457 983 442 983 c 0
 426 983 413 988 402 999 c 0
 391 1010 386 1023 386 1039 c 0
 386 1054 391 1067 402 1078 c 0
 413 1088 426 1094 442 1094 c 0
442 1059 m 0
 436 1059 431 1057 427 1053 c 0
 423 1049 421 1045 421 1039 c 0
 421 1033 423 1029 427 1025 c 0
 431 1021 435 1019 441 1019 c 0
 447 1019 452 1021 456 1025 c 0
 460 1029 462 1033 462 1039 c 0
 462 1045 460 1049 456 1053 c 0
 452 1057 448 1059 442 1059 c 0
441 716 m 0
 446 716 450 715 454 711 c 0
 458 707 459 703 459 698 c 2
 459 -4 l 2
 459 -68 443 -128 411 -183 c 0
 379 -238 336 -282 281 -314 c 0
 226 -346 166 -362 101 -362 c 0
 6 -362 -75 -329 -145 -264 c 0
 -148 -260 -150 -255 -150 -251 c 0
 -150 -246 -148 -242 -145 -238 c 0
 -141 -234 -137 -233 -132 -233 c 0
 -128 -233 -124 -234 -120 -238 c 0
 -58 -296 15 -326 101 -326 c 0
 159 -326 213 -311 263 -283 c 0
 313 -254 352 -215 380 -166 c 0
 409 -116 423 -62 423 -4 c 2
 423 698 l 2
 423 703 425 707 429 711 c 0
 433 715 437 716 441 716 c 0
EndSplineSet
Validated: 1
EndChar

StartChar: k
Encoding: 107 107 76
Width: 828
VWidth: 0
GlyphClass: 2
Flags: W
HStem: -0 21G<111.5 116.5 715.5 720.5> 680 36<346.537 486.52> 1074 20G<111.5 116.5>
VStem: 96 36<5.1875 465 519 1088.81> 701 35<5.1875 461.776>
LayerCount: 2
UndoRedoHistory
Layer: 1
Undoes
EndUndoes
Redoes
EndRedoes
EndUndoRedoHistory
Fore
SplineSet
114 1094 m 0
 119 1094 123 1092 127 1089 c 1
 130 1085 132 1081 132 1076 c 2
 132 519 l 1
 286 699 l 1
 289 702 l 1
 289 703 l 1
 554 1012 l 2
 557 1016 562 1019 569 1019 c 0
 573 1019 577 1017 581 1014 c 1
 584 1010 586 1006 586 1001 c 0
 586 995 584 991 582 989 c 2
 346 714 l 1
 360 715 370 716 378 716 c 0
 442 716 501 700 556 669 c 1
 610 637 654 595 686 541 c 0
 718 487 734 429 736 366 c 1
 736 365 l 1
 736 18 l 2
 736 13 734 9 731 5 c 0
 727 1 723 -0 718 -0 c 0
 713 -0 709 1 706 5 c 0
 702 9 701 13 701 18 c 2
 701 365 l 1
 699 453 666 527 604 588 c 0
 541 649 466 680 378 680 c 0
 354 680 332 677 310 673 c 1
 132 465 l 1
 132 18 l 2
 132 13 130 9 127 5 c 0
 123 1 119 -0 114 -0 c 0
 109 -0 105 1 101 5 c 0
 97 9 96 13 96 18 c 2
 96 469 l 1
 96 471 l 1
 96 474 l 1
 96 1076 l 2
 96 1081 97 1085 101 1089 c 0
 105 1092 109 1094 114 1094 c 0
EndSplineSet
Validated: 1
EndChar

StartChar: l
Encoding: 108 108 77
Width: 229
VWidth: 0
GlyphClass: 2
Flags: W
HStem: -0 21G<111.5 116.5> 1074 20G<110.5 116.5>
VStem: 96 36<5.1875 1088.81>
LayerCount: 2
UndoRedoHistory
Layer: 1
Undoes
EndUndoes
Redoes
EndRedoes
EndUndoRedoHistory
Fore
SplineSet
113 1094 m 2
 114 1094 l 2
 119 1094 123 1092 127 1089 c 1
 130 1085 132 1081 132 1076 c 2
 132 18 l 2
 132 13 130 9 127 5 c 0
 123 1 119 -0 114 -0 c 0
 109 -0 105 1 101 5 c 0
 97 9 96 13 96 18 c 2
 96 1076 l 2
 96 1081 97 1085 101 1089 c 0
 104 1092 108 1094 113 1094 c 2
EndSplineSet
Validated: 1
EndChar

StartChar: m
Encoding: 109 109 78
Width: 1281
VWidth: 0
GlyphClass: 2
Flags: W
HStem: -0 21G<109.5 114.5 714.5 719 1167.5 1172.5> 680 36<271.899 483.642 724.048 939.374>
VStem: 95 35<5.1875 582.854 617 710.812> 699 36<5.1875 465.037> 1153 35<5.1875 462.002>
LayerCount: 2
UndoRedoHistory
Layer: 1
Undoes
EndUndoes
Redoes
EndRedoes
EndUndoRedoHistory
Fore
SplineSet
112 716 m 0
 117 716 121 714 125 711 c 1
 128 707 130 703 130 699 c 2
 130 698 l 1
 130 617 l 1
 200 683 282 716 377 716 c 0
 441 716 500 700 554 669 c 0
 608 637 652 595 684 541 c 0
 716 487 733 429 735 366 c 1
 735 18 l 2
 735 13 733 9 729 5 c 0
 725 1 721 -0 717 -0 c 0
 712 -0 708 1 704 5 c 0
 700 9 699 13 699 18 c 2
 699 365 l 1
 699 366 l 1
 697 453 664 527 602 588 c 0
 539 649 464 680 377 680 c 0
 328 680 282 669 240 649 c 0
 197 629 160 601 130 565 c 1
 130 18 l 2
 130 13 128 9 125 5 c 0
 121 1 117 -0 112 -0 c 0
 107 -0 103 1 100 5 c 0
 96 9 95 13 95 18 c 2
 95 569 l 1
 95 572 l 1
 95 574 l 1
 95 698 l 1
 95 699 l 2
 95 703 96 707 100 711 c 0
 103 714 107 716 112 716 c 0
831 716 m 0
 895 716 954 700 1008 669 c 0
 1062 637 1106 595 1138 541 c 0
 1170 487 1186 429 1188 366 c 1
 1188 18 l 2
 1188 13 1186 9 1183 5 c 0
 1179 1 1175 0 1170 0 c 0
 1165 -0 1161 1 1158 5 c 0
 1154 9 1153 13 1153 18 c 2
 1153 365 l 1
 1153 366 l 1
 1151 453 1118 527 1056 588 c 0
 994 649 919 680 831 680 c 0
 765 680 705 662 651 626 c 0
 647 624 644 623 642 623 c 0
 636 623 632 624 629 628 c 1
 625 631 624 635 624 641 c 0
 624 647 626 652 632 656 c 0
 691 696 757 716 831 716 c 0
EndSplineSet
Validated: 1
EndChar

StartChar: n
Encoding: 110 110 79
Width: 828
VWidth: 0
GlyphClass: 2
Flags: W
HStem: -0 21G<109.5 114.5 714.5 719> 680 36<271.899 483.642>
VStem: 95 35<5.1875 582.854 617 710.812> 699 36<5.1875 465.037>
LayerCount: 2
UndoRedoHistory
Layer: 1
Undoes
EndUndoes
Redoes
EndRedoes
EndUndoRedoHistory
Fore
SplineSet
112 716 m 2
 113 716 l 2
 117 716 121 714 125 711 c 1
 128 707 130 703 130 699 c 2
 130 698 l 1
 130 617 l 1
 200 683 282 716 377 716 c 0
 441 716 500 700 554 669 c 0
 608 637 652 595 684 541 c 0
 716 487 733 429 735 366 c 1
 735 18 l 2
 735 13 733 9 729 5 c 0
 725 1 721 -0 717 -0 c 0
 712 -0 708 1 704 5 c 0
 700 9 699 13 699 18 c 2
 699 365 l 1
 699 366 l 1
 697 453 664 527 602 588 c 0
 539 649 464 680 377 680 c 0
 328 680 282 669 240 649 c 0
 197 629 160 601 130 565 c 1
 130 18 l 2
 130 13 128 9 125 5 c 0
 121 1 117 -0 112 -0 c 0
 107 -0 103 1 100 5 c 0
 96 9 95 13 95 18 c 2
 95 570 l 1
 95 572 l 1
 95 574 l 1
 95 698 l 1
 95 699 l 2
 95 703 96 707 99 711 c 0
 102 714 106 716 112 716 c 2
EndSplineSet
Validated: 1
EndChar

StartChar: o
Encoding: 111 111 80
Width: 884
VWidth: 0
GlyphClass: 2
Flags: W
HStem: -0 35<334.009 541.062> 679 37<329.279 437 438 545.721>
VStem: 79 35<252.998 461.895> 760 35<252.956 461.854>
LayerCount: 2
UndoRedoHistory
Layer: 1
Undoes
EndUndoes
Redoes
EndRedoes
EndUndoRedoHistory
Fore
SplineSet
437 716 m 1
 438 715 l 1
 503 715 563 699 618 667 c 0
 672 635 715 592 747 537 c 0
 779 482 795 422 795 357 c 0
 795 293 779 233 747 178 c 0
 715 123 672 79 617 47 c 0
 562 15 502 -0 437 -0 c 2
 436 -0 l 2
 371 -0 311 16 257 48 c 0
 202 80 159 124 127 178 c 0
 95 233 79 293 79 358 c 0
 79 422 95 482 127 537 c 0
 159 592 202 636 257 668 c 0
 312 700 372 716 437 716 c 1
437 679 m 0
 379 679 325 665 275 636 c 0
 225 608 186 569 157 519 c 0
 129 470 114 416 114 357 c 0
 114 299 129 245 157 195 c 1
 186 146 225 107 275 78 c 0
 325 50 379 35 437 35 c 0
 495 35 549 50 599 78 c 0
 649 107 688 146 717 195 c 1
 745 245 760 299 760 357 c 0
 760 416 745 470 717 519 c 0
 688 569 649 608 599 636 c 0
 549 665 495 679 437 679 c 0
EndSplineSet
Validated: 1
EndChar

StartChar: p
Encoding: 112 112 81
Width: 842
VWidth: 0
GlyphClass: 2
Flags: W
HStem: -377 21G<109.5 114.5> 0 35<291.688 500.044> 679 37<287.178 503.908>
VStem: 95 35<-371.859 117 152.626 561.942 599 710.812> 718 35<252.998 461.895>
LayerCount: 2
UndoRedoHistory
Layer: 1
Undoes
EndUndoes
Redoes
EndRedoes
EndUndoRedoHistory
Fore
SplineSet
112 716 m 0
 117 716 121 714 125 710 c 0
 128 707 130 703 130 698 c 2
 130 599 l 1
 164 635 204 664 250 685 c 0
 296 705 344 716 396 716 c 0
 460 716 520 700 575 668 c 0
 630 636 673 592 705 537 c 0
 737 482 753 422 753 358 c 0
 753 293 737 233 705 178 c 0
 673 123 630 80 575 48 c 0
 520 16 460 0 396 0 c 0
 344 -0 296 10 250 31 c 0
 204 51 164 80 130 117 c 1
 130 -359 l 2
 130 -365 128 -369 125 -372 c 0
 121 -376 117 -377 112 -377 c 0
 107 -377 103 -376 100 -372 c 1
 96 -369 95 -365 95 -359 c 2
 95 166 l 1
 95 169 l 1
 95 173 l 1
 95 543 l 1
 95 546 l 1
 95 550 l 1
 95 698 l 2
 95 703 96 707 100 711 c 0
 103 714 107 716 112 716 c 0
396 679 m 0
 342 679 291 667 245 642 c 0
 198 617 160 583 130 541 c 1
 130 174 l 1
 160 131 198 97 245 72 c 0
 291 48 342 35 396 35 c 0
 454 35 508 50 558 78 c 1
 607 107 646 146 675 195 c 1
 703 245 718 299 718 357 c 0
 718 416 703 470 675 519 c 0
 646 569 607 608 558 636 c 0
 508 665 454 679 396 679 c 0
EndSplineSet
Validated: 1
EndChar

StartChar: q
Encoding: 113 113 82
Width: 837
VWidth: 0
GlyphClass: 2
Flags: W
HStem: -377 21G<718.5 723> 0 36<329.868 544.136> 680 36<331.257 541.858>
VStem: 79 36<250.522 464.67> 703 35<-371.859 117 152.631 561.942 599 710.812>
LayerCount: 2
UndoRedoHistory
Layer: 1
Undoes
EndUndoes
Redoes
EndRedoes
EndUndoRedoHistory
Fore
SplineSet
720 716 m 2
 721 716 l 2
 725 716 729 714 733 711 c 1
 736 707 738 703 738 698 c 2
 738 548 l 1
 738 169 l 1
 738 -359 l 2
 738 -365 736 -369 733 -372 c 0
 729 -376 725 -377 721 -377 c 0
 716 -377 712 -376 708 -372 c 0
 704 -369 703 -365 703 -359 c 2
 703 117 l 1
 669 80 630 51 584 31 c 0
 538 10 489 0 437 0 c 0
 372 0 312 16 257 48 c 0
 202 80 159 123 127 178 c 0
 95 233 79 293 79 358 c 0
 79 422 95 482 127 537 c 0
 159 592 202 636 257 668 c 0
 312 700 372 716 437 716 c 0
 489 716 538 705 584 685 c 0
 630 664 669 635 703 599 c 1
 703 698 l 2
 703 703 704 707 708 711 c 0
 711 714 715 716 720 716 c 2
437 680 m 0
 379 680 325 665 275 637 c 0
 225 608 186 569 158 520 c 0
 129 470 115 416 115 358 c 0
 115 299 129 245 158 196 c 1
 186 146 225 107 275 79 c 0
 325 50 379 36 437 36 c 0
 491 36 542 48 589 73 c 0
 635 97 673 131 703 174 c 1
 703 541 l 1
 673 583 635 617 589 642 c 0
 542 667 491 680 437 680 c 0
EndSplineSet
Validated: 1
EndChar

StartChar: r
Encoding: 114 114 83
Width: 801
VWidth: 0
GlyphClass: 2
Flags: W
HStem: -0 21G<109.5 114.5> 673 36<290.688 500.263> 696 20G<109.5 114.5>
VStem: 95 35<5.1875 554.942 591 710.812>
LayerCount: 2
UndoRedoHistory
Layer: 1
Undoes
EndUndoes
Redoes
EndRedoes
EndUndoRedoHistory
Fore
SplineSet
112 716 m 0xb0
 117 716 121 714 125 711 c 1
 128 707 130 703 130 699 c 2
 130 698 l 1
 130 591 l 1
 164 628 203 657 249 678 c 0
 295 698 343 709 395 709 c 0
 442 709 489 699 535 680 c 0
 577 662 615 637 649 603 c 0
 682 570 707 532 725 489 c 0
 726 487 727 485 727 482 c 0
 727 477 725 473 721 470 c 0
 717 466 713 465 709 465 c 0
 701 465 695 468 693 476 c 1
 677 514 654 548 624 578 c 0
 593 608 559 632 521 648 c 0
 481 664 439 673 395 673 c 0xd0
 341 673 290 660 244 635 c 0
 198 610 160 576 130 534 c 1
 130 18 l 2
 130 13 128 9 125 5 c 0
 121 1 117 -0 112 -0 c 0
 107 -0 103 1 100 5 c 0
 96 9 95 13 95 18 c 2
 95 537 l 1
 95 539 l 1
 95 542 l 1
 95 698 l 1
 95 699 l 2
 95 703 96 707 100 711 c 0
 103 714 107 716 112 716 c 0xb0
EndSplineSet
Validated: 1
EndChar

StartChar: s
Encoding: 115 115 84
Width: 710
VWidth: 0
GlyphClass: 2
Flags: W
HStem: -0 21G<38.5 44> 3 31<329.406 498.153> 785 32<277.061 366.008>
VStem: 218 32<668.803 757.686> 393 19<679.003 748.453> 638 32<173.286 330.105>
LayerCount: 2
UndoRedoHistory
Layer: 1
Undoes
EndUndoes
Redoes
EndRedoes
EndUndoRedoHistory
Fore
SplineSet
322 817 m 0xbc
 350 817 375 806 395 786 c 0
 415 766 425 742 425 714 c 0
 425 696 421 680 413 665 c 0
 413 664 412 663 412 663 c 1
 412 662 l 1
 370 586 l 1
 566 454 l 1
 567 453 l 1
 597 428 622 399 641 365 c 0
 660 331 670 294 670 256 c 0
 670 186 645 127 596 77 c 0
 546 27 487 3 417 3 c 0
 372 3 329 12 289 32 c 1
 248 51 216 77 194 110 c 0
 192 113 191 116 191 120 c 0
 191 124 192 128 196 131 c 1
 199 135 203 136 207 136 c 0
 213 136 217 134 221 128 c 0
 240 99 268 76 304 59 c 0
 340 43 377 34 417 34 c 0x7c
 478 34 530 56 573 99 c 0
 616 143 638 195 638 255 c 0
 638 289 629 321 612 351 c 0
 595 381 573 407 546 428 c 0
 545 428 545 429 545 429 c 1
 355 557 l 1
 55 7 l 2
 52 2 47 -0 41 -0 c 0
 36 -0 32 1 29 4 c 0
 26 7 25 11 25 15 c 0
 25 18 25 21 27 24 c 2
 329 578 l 1
 265 627 l 1
 264 628 l 1
 233 648 218 677 218 714 c 0
 218 742 228 766 248 786 c 0
 268 806 293 817 322 817 c 0xbc
322 785 m 0
 302 785 285 778 271 764 c 0
 257 750 250 733 250 714 c 0
 250 688 261 668 283 654 c 1
 283 653 l 1
 284 653 l 1
 285 652 l 1
 345 606 l 1
 384 679 l 1
 390 689 393 701 393 714 c 0
 393 733 386 750 372 764 c 0
 358 778 342 785 322 785 c 0
EndSplineSet
Validated: 5
EndChar

StartChar: t
Encoding: 116 116 85
Width: 764
VWidth: 0
GlyphClass: 2
Flags: W
HStem: -0 35<343.146 553.324> 679 36<126 346.812>
VStem: 90 36<250.456 679 715 1078.96>
LayerCount: 2
UndoRedoHistory
Layer: 1
Undoes
EndUndoes
Redoes
EndRedoes
EndUndoRedoHistory
Fore
SplineSet
107 1079 m 1
 112 1079 116 1077 120 1073 c 0
 124 1069 126 1065 126 1061 c 2
 126 715 l 1
 335 715 l 2
 339 715 343 714 347 710 c 0
 350 707 352 703 352 698 c 0
 352 693 350 689 347 685 c 0
 343 681 339 679 335 679 c 2
 126 679 l 1
 126 357 l 2
 126 299 140 245 169 195 c 0
 197 146 236 107 286 78 c 0
 335 50 389 35 448 35 c 0
 534 35 608 65 670 123 c 0
 674 127 678 129 682 129 c 0
 686 129 690 128 694 124 c 0
 698 120 700 116 700 111 c 0
 700 106 698 102 694 98 c 0
 624 32 542 -0 448 -0 c 0
 383 -0 323 15 268 47 c 0
 213 79 170 123 138 178 c 0
 106 233 90 293 90 357 c 2
 90 695 l 1
 90 697 l 1
 90 700 l 1
 90 1061 l 2
 90 1065 91 1069 95 1073 c 0
 98 1077 102 1079 107 1079 c 1
EndSplineSet
Validated: 5
EndChar

StartChar: u
Encoding: 117 117 86
Width: 825
VWidth: 0
GlyphClass: 2
Flags: W
HStem: 0 36<335.104 549.894> 696 20G<100.5 105.5 705.5 710.5>
VStem: 86 36<250.254 710.812> 691 36<0.0192642 99 131.501 714.981>
LayerCount: 2
UndoRedoHistory
Layer: 1
Undoes
EndUndoes
Redoes
EndRedoes
EndUndoRedoHistory
Fore
SplineSet
103 716 m 0
 108 716 112 714 116 710 c 0
 120 707 122 703 122 698 c 2
 122 351 l 1
 124 263 156 188 218 127 c 0
 280 66 356 36 444 36 c 0
 492 36 538 46 581 66 c 0
 624 86 661 115 691 151 c 1
 691 698 l 2
 691 703 692 707 696 710 c 1
 699 714 703 715 708 715 c 0
 713 715 717 714 721 710 c 0
 725 707 727 703 727 698 c 2
 727 146 l 1
 727 144 l 1
 727 143 l 1
 727 18 l 2
 727 13 725 9 721 5 c 0
 717 1 713 -0 708 -0 c 0
 703 -0 699 1 696 5 c 0
 692 9 691 13 691 18 c 2
 691 99 l 1
 658 67 620 43 578 26 c 0
 535 8 490 0 444 0 c 0
 380 0 320 15 266 47 c 1
 211 78 168 120 136 174 c 0
 104 228 87 286 86 350 c 1
 86 351 l 1
 86 698 l 2
 86 703 87 707 91 711 c 0
 94 714 98 716 103 716 c 0
EndSplineSet
Validated: 1
EndChar

StartChar: v
Encoding: 118 118 87
Width: 780
VWidth: 0
GlyphClass: 2
Flags: W
HStem: 0 21G<384 392> 696 20G<82.5 89 686 692.5>
VStem: 68 33<706 710.812> 674 35<706 710.812>
LayerCount: 2
UndoRedoHistory
Layer: 1
Undoes
EndUndoes
Redoes
EndRedoes
EndUndoRedoHistory
Fore
SplineSet
85 716 m 1
 93 716 99 712 101 706 c 2
 387 62 l 1
 674 706 l 2
 677 712 682 716 690 716 c 0
 695 716 699 714 703 711 c 0
 707 707 709 703 709 698 c 0
 709 695 708 693 707 691 c 2
 404 11 l 2
 401 3 396 0 388 0 c 0
 380 0 374 3 372 11 c 1
 70 691 l 1
 68 693 68 695 68 698 c 0
 68 703 69 707 73 711 c 0
 76 714 80 716 85 716 c 1
EndSplineSet
Validated: 1
EndChar

StartChar: w
Encoding: 119 119 88
Width: 1082
VWidth: 0
GlyphClass: 2
Flags: W
HStem: 0 21G<384 392 687 695> 696 20G<82.5 89 385 391 686 692.5 989 995>
VStem: 68 33<706 710.812> 369 34<705 714.965> 674 35<705 714.961> 977 34<706 710.812>
LayerCount: 2
UndoRedoHistory
Layer: 1
Undoes
EndUndoes
Redoes
EndRedoes
EndUndoRedoHistory
Fore
SplineSet
85 716 m 1
 93 716 99 712 101 706 c 2
 387 62 l 1
 519 358 l 1
 371 691 l 2
 370 693 369 695 369 698 c 0
 369 703 371 707 375 710 c 0
 379 714 383 715 387 715 c 0
 395 715 401 712 403 705 c 1
 538 401 l 1
 674 705 l 2
 677 712 682 715 690 715 c 0
 695 715 699 714 703 710 c 0
 707 707 709 703 709 698 c 0
 709 695 708 693 707 691 c 2
 559 358 l 1
 691 62 l 1
 977 706 l 2
 979 712 985 716 993 716 c 0
 997 716 1001 714 1005 711 c 0
 1009 707 1011 703 1011 698 c 0
 1011 695 1010 693 1009 691 c 2
 707 11 l 2
 704 3 699 0 691 0 c 0
 683 0 677 3 675 11 c 1
 539 314 l 1
 404 11 l 2
 401 3 396 0 388 0 c 0
 380 0 374 3 372 11 c 1
 70 691 l 1
 68 693 68 695 68 698 c 0
 68 703 69 707 73 711 c 0
 76 714 80 716 85 716 c 1
EndSplineSet
Validated: 1
EndChar

StartChar: x
Encoding: 120 120 89
Width: 790
VWidth: 0
GlyphClass: 2
Flags: W
HStem: -0 21G<89.5 94.5 694 699.5> 692 20G<89 94.5 694.5 699.5>
VStem: 75 639<13 22 690 698>
LayerCount: 2
UndoRedoHistory
Layer: 1
Undoes
EndUndoes
Redoes
EndRedoes
EndUndoRedoHistory
Fore
SplineSet
92 712 m 0
 97 712 101 710 105 706 c 2
 393 382 l 1
 683 706 l 2
 687 710 692 712 697 712 c 0
 702 712 706 710 709 706 c 0
 713 702 714 698 714 694 c 0
 714 690 713 686 709 682 c 2
 418 356 l 1
 709 30 l 2
 713 26 714 22 714 18 c 0
 714 13 713 9 709 5 c 0
 706 1 702 -0 697 -0 c 0
 691 -0 687 1 684 5 c 2
 394 328 l 1
 106 5 l 2
 102 1 97 -0 92 -0 c 0
 87 -0 83 1 80 5 c 0
 76 9 75 13 75 18 c 0
 75 22 76 26 79 30 c 2
 371 356 l 1
 79 682 l 2
 76 685 75 689 75 694 c 0
 75 698 76 702 79 706 c 0
 82 709 86 711 92 712 c 0
EndSplineSet
Validated: 1
EndChar

StartChar: y
Encoding: 121 121 90
Width: 856
VWidth: 0
GlyphClass: 2
Flags: W
HStem: -275.094 35.7576<79.084 289.232> 696 19G<221.5 225 826 832>
VStem: -149 34<-71.4176 -29.1875> 207 34<705 710.812> 814 34<705 714.965>
LayerCount: 2
UndoRedoHistory
Layer: 1
Undoes
EndUndoes
Redoes
EndRedoes
EndUndoRedoHistory
Fore
SplineSet
224 716 m 1
 225 715 l 1
 233 715 238 712 241 705 c 2
 527 61 l 1
 814 705 l 1
 816 712 822 715 830 715 c 0
 834 715 838 714 842 710 c 0
 846 707 848 703 848 698 c 0
 848 695 847 693 846 691 c 2
 545 13 l 2
 545 11 544 10 543 8 c 2
 509 -68 l 1
 509 -69 l 1
 488 -113 460 -151 424 -183 c 0
 388 -215 348 -238 306 -254 c 0
 266.625 -268.0625 224.61328125 -275.09375 179.96484375 -275.09375 c 0
 176.98828125 -275.09375 174 -275.0625 171 -275 c 0
 123 -273 77 -262 33 -242 c 0
 -9 -222 -46 -195 -77 -162 c 0
 -108 -128 -132 -91 -148 -49 c 0
 -149 -47 -149 -45 -149 -42 c 0
 -149 -37 -148 -33 -144 -29 c 0
 -140 -25 -136 -24 -131 -24 c 0
 -123 -24 -118 -28 -115 -36 c 0
 -101 -73 -79 -107 -51 -137 c 0
 -23 -167 9 -191 48 -209 c 0
 87 -228 128 -238 172 -239 c 1
 176.838265671 -239.225035613 181.651210829 -239.336128915 186.437410968 -239.336128915 c 0
 224.188479347 -239.336128915 260.27567664 -232.424750712 294 -220 c 0
 332 -206 368 -185 400 -156 c 0
 432 -127 457 -92 476 -52 c 2
 508 18 l 1
 209 691 l 1
 207 693 207 695 207 698 c 0
 207 703 208 707 212 711 c 0
 215 714 219 716 224 716 c 1
EndSplineSet
Validated: 524289
EndChar

StartChar: z
Encoding: 122 122 91
Width: 861
VWidth: 0
GlyphClass: 2
Flags: W
HStem: -0 36<129 778.812> 680 36<151.141 723>
LayerCount: 2
UndoRedoHistory
Layer: 1
Undoes
EndUndoes
Redoes
EndRedoes
EndUndoRedoHistory
Fore
SplineSet
164 716 m 2
 766 716 l 2
 771 716 775 714 779 711 c 1
 782 707 784 703 784 698 c 0
 784 693 782 689 778 685 c 2
 129 36 l 1
 766 36 l 2
 771 36 775 34 779 30 c 0
 782 26 784 22 784 18 c 0
 784 13 782 9 779 5 c 0
 775 1 771 -0 766 -0 c 2
 86 -0 l 2
 81 -0 77 1 73 5 c 0
 69 9 68 13 68 18 c 0
 68 22 69 26 73 30 c 2
 723 680 l 1
 164 680 l 2
 158 680 154 681 151 685 c 0
 147 689 146 693 146 698 c 0
 146 703 147 707 151 711 c 0
 154 714 158 716 164 716 c 2
EndSplineSet
Validated: 1
EndChar

StartChar: braceleft
Encoding: 123 123 92
Width: 356
VWidth: 0
GlyphClass: 2
Flags: W
VStem: 92 35<-37.8763 287.168 643.463 963.772> 122 68<424.469 465.578 466.406 506.531>
LayerCount: 2
UndoRedoHistory
Layer: 1
Undoes
EndUndoes
Redoes
EndRedoes
EndUndoRedoHistory
Fore
SplineSet
261 1277 m 2x80
 265 1277 269 1275 273 1272 c 1
 276 1268 278 1264 278 1259 c 0
 278 1254 277 1251 275 1249 c 0
 227 1186 191 1117 165 1041 c 0
 139 965 127 887 127 806 c 0x80
 127 701 147 602 188 510 c 0
 189 508 190 505 190 503 c 0
 190 498 188 494 185 492 c 2
 163 466 l 1
 185 439 l 2
 188 436 190 432 190 428 c 0x40
 190 425 189 422 188 420 c 0
 147 328 127 230 127 126 c 0
 127 -7 159 -131 225 -243 c 0
 227 -247 228 -250 228 -252 c 0
 228 -257 226 -261 223 -265 c 0
 219 -269 215 -270 211 -270 c 0
 203 -270 197 -267 194 -261 c 0
 126 -142 92 -13 92 126 c 0x80
 92 230 111 329 151 424 c 1
 126 454 l 1
 123 456 122 460 122 466 c 0x40
 122 470 123 473 126 477 c 2
 151 507 l 1
 111 601 92 701 92 806 c 0
 92 978 143 1132 246 1270 c 0
 250 1274 254 1277 260 1277 c 2
 261 1277 l 2x80
EndSplineSet
Validated: 1
EndChar

StartChar: bar
Encoding: 124 124 93
Width: 229
VWidth: 0
GlyphClass: 2
Flags: W
HStem: 1074 20G<112.5 117.5>
VStem: 98 36<-221.999 1088.81>
LayerCount: 2
UndoRedoHistory
Layer: 1
Undoes
EndUndoes
Redoes
EndRedoes
EndUndoRedoHistory
Fore
SplineSet
115 1094 m 1
 120 1094 124 1092 128 1089 c 0
 132 1085 134 1081 134 1076 c 2
 134 -203 l 2
 134 -208 132 -212 128 -216 c 0
 124 -220 120 -222 116 -222 c 0
 111 -222 107 -220 103 -216 c 0
 99 -212 98 -208 98 -204 c 2
 98 1076 l 2
 98 1081 99 1085 103 1089 c 0
 106 1092 110 1094 115 1094 c 1
EndSplineSet
Validated: 5
EndChar

StartChar: braceright
Encoding: 125 125 94
Width: 356
VWidth: 0
GlyphClass: 2
Flags: W
VStem: 166 68<438.469 464.578 465.406 490.531> 229 36<-37.6324 285.993 643.584 963.37>
LayerCount: 2
UndoRedoHistory
Layer: 1
Undoes
EndUndoes
Redoes
EndRedoes
EndUndoRedoHistory
Fore
SplineSet
96 1277 m 0x40
 102 1277 107 1274 110 1270 c 0
 213 1132 265 977 265 805 c 0x40
 265 701 245 601 205 506 c 1
 230 476 l 2
 232 474 234 470 234 465 c 0x80
 234 460 232 456 230 453 c 2
 205 423 l 1
 245 329 265 229 265 125 c 0
 265 -12 230 -141 161 -262 c 0
 157 -268 152 -271 146 -271 c 0
 141 -271 137 -269 133 -265 c 0
 129 -261 128 -257 128 -253 c 0
 128 -249 128 -246 130 -244 c 0
 196 -130 229 -7 229 125 c 0x40
 229 228 208 326 168 419 c 0
 166 422 166 425 166 427 c 0
 166 431 167 435 171 438 c 1
 194 465 l 1
 171 491 l 2
 167 495 166 498 166 502 c 0x80
 166 505 166 507 168 509 c 1
 208 603 229 702 229 805 c 0
 229 887 216 965 190 1041 c 0
 164 1117 128 1186 82 1249 c 1
 79 1251 78 1255 78 1260 c 0
 78 1264 79 1268 83 1272 c 0
 86 1275 90 1277 96 1277 c 0x40
EndSplineSet
Validated: 1
EndChar

StartChar: asciitilde
Encoding: 126 126 95
Width: 664
VWidth: 0
GlyphClass: 2
Flags: W
HStem: 479.523 36.5469<386.407 498.312> 653.93 36.7625<165.199 277.977>
VStem: 95 34<514.094 616.875> 537.93 35.4095<555.99 647.812>
LayerCount: 2
UndoRedoHistory
Layer: 1
Undoes
EndUndoes
Redoes
EndRedoes
EndUndoRedoHistory
Fore
SplineSet
192 687 m 0
 202.461538462 689.461538462 212.828402367 690.692307692 223.042330451 690.692307692 c 0
 246.023668639 690.692307692 268.230769231 684.461538462 289 672 c 0
 320 653 340 626 348 592 c 1
 349 591 l 1
 349 590 l 1
 355 564 370 544 392 530 c 0
 406.919841629 520.505555327 422.759524887 516.070239614 439.519049774 516.070239614 c 0
 447.472223365 516.070239614 455.632540107 517.069047717 464 519 c 0
 490 525 510 539 524 561 c 0
 533.494444673 575.919841629 537.929760386 592.219445702 537.929760386 609.274998971 c 0
 537.929760386 617.36865179 536.930952283 625.632540107 535 634 c 1
 535 635 l 1
 534 639 535 644 537 648 c 0
 540 652 544 654 548 656 c 1
 553 657 557 656 561 653 c 0
 565 651 568 647 569 642 c 0
 571.892857143 630.75 573.339285714 619.706632653 573.339285714 608.869897959 c 0
 573.339285714 585.992346939 566.892857143 564.035714286 554 543 c 0
 536 512 509 492 473 483 c 0
 463.078933705 480.66563146 453.243012355 479.52329215 443.51708091 479.52329215 c 0
 419.911749435 479.52329215 396.954321907 486.252329215 375 499 c 0
 344 518 324 545 315 579 c 1
 315 580 l 1
 314 581 l 1
 308 607 294 626 272 640 c 0
 257.080158371 649.494444673 240.780554298 653.929760386 223.725001029 653.929760386 c 0
 215.63134821 653.929760386 207.367459893 652.930952283 199 651 c 0
 173 645 154 631 140 609 c 0
 130.505555327 594.080158371 126.070239614 577.780554298 126.070239614 560.725001029 c 0
 126.070239614 552.63134821 127.069047717 544.367459893 129 536 c 1
 129 535 l 1
 130 531 129 526 127 522 c 0
 125 518 121 516 116 514 c 0
 111 513 107 514 103 517 c 0
 99 519 96 523 95 528 c 1
 95 529 l 1
 92.1071428571 540.25 90.6607142857 551.293367347 90.6607142857 562.130102041 c 0
 90.6607142857 585.007653061 97.1071428571 606.964285714 110 628 c 0
 129 658 156 678 192 687 c 0
EndSplineSet
Validated: 524289
EndChar

StartChar: sterling
Encoding: 163 163 96
Width: 1028
VWidth: 0
GlyphClass: 2
Flags: W
HStem: -0 35<268 943.812> 377 36<81.0007 232 268 565.812> 1059 35<486.891 691.977>
VStem: 232 36<35 377 414 842.235>
LayerCount: 2
UndoRedoHistory
Layer: 1
Undoes
EndUndoes
Redoes
EndRedoes
EndUndoRedoHistory
Fore
SplineSet
590 1094 m 0
 638 1094 685 1084 730 1066 c 1
 772 1048 810 1023 844 989 c 0
 877 955 902 918 920 876 c 0
 921 873 922 870 922 867 c 0
 922 863 920 859 916 855 c 0
 912 851 908 849 904 849 c 0
 896 849 890 853 888 860 c 0
 871 899 848 933 818 963 c 0
 788 993 754 1016 716 1033 c 1
 674 1050 632 1059 590 1059 c 0
 532 1059 478 1044 428 1015 c 0
 378 986 339 947 311 897 c 1
 282 848 268 794 268 735 c 2
 268 413 l 1
 553 413 l 2
 558 413 562 412 566 408 c 0
 569 404 571 400 571 395 c 0
 571 391 569 387 566 383 c 0
 562 379 558 377 553 377 c 2
 268 377 l 1
 268 35 l 1
 931 35 l 1
 932 35 l 2
 936 35 940 34 944 30 c 0
 947 26 949 22 949 17 c 0
 949 12 947 8 944 4 c 1
 940 1 936 -0 932 -0 c 2
 931 -0 l 1
 250 -0 l 2
 245 -0 241 1 237 5 c 0
 233 9 232 13 232 17 c 2
 232 377 l 1
 100 377 l 1
 99 377 l 2
 94 377 90 379 86 383 c 0
 82 387 81 391 81 395 c 0
 81 400 82 404 86 408 c 0
 90 412 94 414 99 414 c 2
 100 414 l 1
 232 414 l 1
 232 736 l 2
 232 800 248 860 280 915 c 0
 312 970 355 1014 410 1046 c 0
 465 1078 525 1094 590 1094 c 0
EndSplineSet
Validated: 1
EndChar

StartChar: dieresis
Encoding: 168 168 97
Width: 528
VWidth: 0
GlyphClass: 2
Flags: W
HStem: 983 36<132.643 169.841 366.77 402.841> 1059 35<132.643 169.814 366.77 402.814>
VStem: 95 35<1022.41 1055.79> 170 36<1019.41 1058.8> 328 36<1022.41 1055.79> 403 36<1019.37 1058.84>
LayerCount: 2
UndoRedoHistory
Layer: 1
Undoes
EndUndoes
Redoes
EndRedoes
EndUndoRedoHistory
Fore
SplineSet
150 1094 m 0
 165 1094 178 1088 189 1078 c 0
 200 1067 206 1054 206 1039 c 0
 206 1023 200 1010 189 999 c 0
 178 988 165 983 150 983 c 0
 134 983 121 988 111 999 c 0
 100 1010 95 1023 95 1039 c 0
 95 1054 100 1067 111 1078 c 0
 121 1088 134 1094 150 1094 c 0
383 1094 m 0
 398 1094 411 1088 422 1078 c 0
 433 1067 439 1054 439 1039 c 0
 439 1023 433 1010 422 999 c 0
 411 988 398 983 383 983 c 0
 367 983 354 988 344 999 c 0
 333 1010 328 1023 328 1039 c 0
 328 1054 333 1067 344 1078 c 0
 354 1088 367 1094 383 1094 c 0
149 1059 m 0
 143 1059 139 1057 135 1053 c 0
 131 1049 130 1045 130 1039 c 0
 130 1033 131 1029 135 1025 c 0
 139 1021 143 1019 149 1019 c 0
 155 1019 160 1021 164 1025 c 0
 168 1029 170 1033 170 1039 c 0
 170 1045 168 1049 164 1053 c 0
 160 1057 155 1059 149 1059 c 0
383 1059 m 0
 377 1059 373 1057 369 1053 c 0
 365 1049 364 1045 364 1039 c 0
 364 1033 365 1029 369 1025 c 0
 373 1021 377 1019 383 1019 c 0
 389 1019 393 1021 397 1025 c 0
 401 1029 403 1033 403 1039 c 0
 403 1045 401 1049 397 1053 c 0
 393 1057 389 1059 383 1059 c 0
EndSplineSet
Validated: 1
EndChar

StartChar: copyright
Encoding: 169 169 98
Width: 931
VWidth: 0
GlyphClass: 2
Flags: W
HStem: 90 33<360.452 569.992> 256 33<397.201 546.536> 641 33<399.33 544.414> 806 33<362.866 568.518>
VStem: 92 33<358.434 570.328> 264 33<389.201 539.916> 808 32<362.663 567.556>
LayerCount: 2
UndoRedoHistory
Layer: 1
Undoes
EndUndoes
Redoes
EndRedoes
EndUndoRedoHistory
Fore
SplineSet
466 839 m 1
 467 839 l 2
 535 839 597 822 655 789 c 1
 712 755 757 710 790 652 c 0
 824 594 840 532 840 464 c 0
 840 396 824 334 790 277 c 1
 757 219 712 174 654 140 c 0
 597 106 534 90 466 90 c 2
 465 90 l 1
 463 90 l 2
 396 90 334 106 277 140 c 0
 219 174 174 219 141 277 c 0
 108 334 92 396 92 464 c 0
 92 532 108 594 141 652 c 0
 174 710 219 755 277 789 c 0
 334 822 396 839 464 839 c 2
 466 839 l 1
466 806 m 0
 404 806 346 790 294 760 c 0
 242 730 200 688 170 636 c 0
 140 584 125 527 125 465 c 0
 125 403 140 345 170 293 c 0
 200 241 242 199 294 169 c 0
 346 138 404 123 466 123 c 0
 528 123 585 138 637 169 c 0
 689 199 731 241 762 293 c 0
 792 345 808 403 808 465 c 0
 808 527 792 584 762 636 c 0
 731 688 689 730 637 760 c 0
 585 790 528 806 466 806 c 0
473 674 m 0
 508 674 541 665 572 649 c 1
 602 632 627 609 646 581 c 0
 648 577 650 574 650 572 c 0
 650 567 648 563 644 560 c 0
 640 556 637 555 633 555 c 0
 626 555 621 557 619 562 c 1
 603 586 582 605 556 619 c 0
 530 633 503 641 473 641 c 0
 424 641 382 623 348 589 c 0
 314 555 297 513 297 465 c 0
 297 416 314 374 348 340 c 0
 382 306 424 289 473 289 c 0
 503 289 530 296 556 310 c 0
 582 324 603 343 619 367 c 0
 621 371 626 374 633 374 c 0
 637 374 640 372 644 369 c 0
 648 366 650 362 650 358 c 0
 650 355 648 352 646 349 c 0
 627 320 602 297 572 281 c 0
 541 264 508 256 473 256 c 0
 415 256 366 276 325 317 c 0
 284 358 264 407 264 465 c 0
 264 522 284 571 325 612 c 0
 366 653 415 674 473 674 c 0
EndSplineSet
Validated: 1
EndChar

StartChar: guillemotleft
Encoding: 171 171 99
Width: 818
VWidth: 0
GlyphClass: 2
Flags: W
HStem: 81 635
VStem: 95 629
LayerCount: 2
UndoRedoHistory
Layer: 1
Undoes
EndUndoes
Redoes
EndRedoes
EndUndoRedoHistory
Fore
SplineSet
485 716 m 0
 489 716 493 714 497 710 c 0
 501 707 503 703 503 698 c 0
 503 692 501 688 497 684 c 2
 136 396 l 1
 497 107 l 1
 501 102 503 98 503 94 c 0
 503 89 501 85 497 81 c 0
 493 77 489 76 484 76 c 0
 480 76 477 77 473 79 c 2
 95 382 l 2
 91 385 89 390 89 396 c 0
 89 402 91 406 95 410 c 2
 473 712 l 2
 476 714 480 716 485 716 c 0
711 715 m 0
 716 715 720 714 724 710 c 0
 728 707 730 703 730 698 c 0
 730 692 727 688 723 684 c 2
 363 396 l 1
 723 107 l 2
 727 103 730 99 730 93 c 0
 730 88 728 84 724 80 c 0
 720 76 716 74 711 74 c 0
 707 74 703 76 700 78 c 2
 322 381 l 2
 318 385 316 389 316 395 c 0
 316 401 318 406 322 409 c 2
 700 711 l 2
 703 714 707 715 711 715 c 0
EndSplineSet
Validated: 1
EndChar

StartChar: degree
Encoding: 176 176 100
Width: 445
VWidth: 0
GlyphClass: 2
Flags: W
HStem: 832 36<168.997 279.97> 1059 35<169.466 278.772>
VStem: 93 36<907.997 1018.67> 320 36<908.466 1018.03>
LayerCount: 2
UndoRedoHistory
Layer: 1
Undoes
EndUndoes
Redoes
EndRedoes
EndUndoRedoHistory
Fore
SplineSet
224 1094 m 0
 260 1094 291 1081 317 1055 c 0
 343 1029 356 998 356 963 c 0
 356 927 343 896 317 870 c 0
 291 844 260 832 224 832 c 0
 188 832 157 844 131 870 c 0
 105 896 93 927 93 963 c 0
 93 999 105 1029 131 1055 c 0
 157 1081 188 1094 224 1094 c 0
224 1059 m 0
 198 1059 175 1049 157 1031 c 0
 138 1012 129 989 129 963 c 0
 129 937 138 914 157 896 c 1
 175 877 198 868 224 868 c 0
 250 868 273 877 292 896 c 0
 310 914 320 937 320 963 c 0
 320 989 310 1012 292 1031 c 1
 273 1049 250 1059 224 1059 c 0
EndSplineSet
Validated: 1
EndChar

StartChar: acute
Encoding: 180 180 101
Width: 443
VWidth: 0
GlyphClass: 2
Flags: W
HStem: 907 187
VStem: 92 261
LayerCount: 2
UndoRedoHistory
Layer: 1
Undoes
EndUndoes
Redoes
EndRedoes
EndUndoRedoHistory
Fore
SplineSet
335 1094 m 1
 340 1094 344 1092 348 1089 c 0
 352 1085 353 1081 353 1076 c 0
 353 1070 351 1065 345 1062 c 2
 118 910 l 2
 115 908 112 907 109 907 c 0
 104 907 100 908 97 912 c 0
 93 916 92 920 92 925 c 0
 92 931 94 936 100 940 c 2
 326 1091 l 2
 329 1093 332 1094 335 1094 c 1
EndSplineSet
Validated: 5
EndChar

StartChar: uni00B5
Encoding: 181 181 102
Width: 837
VWidth: 0
GlyphClass: 2
Flags: W
HStem: 0 36<348.495 562.831> 696 20G<115.5 118.5 718.5 723.5>
VStem: 99 35<-145.812 202 253.886 706.984 707 708 708 709.953> 703 36<5.1875 99 131.501 709.859>
LayerCount: 2
UndoRedoHistory
Layer: 1
Undoes
EndUndoes
Redoes
EndRedoes
EndUndoRedoHistory
Fore
SplineSet
117 716 m 0
 120 716 122 715 123 715 c 0
 125 714 127 712 130 710 c 0
 131 709 131 708 131 708 c 2
 133 706 133 705 133 705 c 2
 134 702 134 700 134 700 c 1
 134 698 l 1
 134 351 l 1
 136 263 169 188 231 127 c 0
 294 66 369 36 457 36 c 0
 505 36 551 46 594 66 c 0
 637 86 673 115 703 151 c 1
 703 698 l 2
 703 703 705 707 708 710 c 0
 712 714 716 715 721 715 c 0
 726 715 730 714 734 710 c 0
 738 707 739 703 739 698 c 2
 739 147 l 1
 739 144 l 1
 739 143 l 1
 739 18 l 2
 739 13 738 9 734 5 c 0
 730 1 726 -0 721 -0 c 0
 716 -0 712 1 708 5 c 0
 705 9 703 13 703 18 c 2
 703 99 l 1
 634 33 552 0 457 0 c 0
 387 0 324 18 266 55 c 0
 208 92 164 141 134 202 c 1
 134 -134 l 2
 134 -138 133 -142 129 -146 c 0
 126 -149 122 -151 117 -151 c 0
 112 -151 108 -149 104 -146 c 1
 101 -142 99 -138 99 -134 c 2
 99 350 l 1
 99 351 l 1
 99 698 l 1
 99 699 l 1
 99 701 l 1
 99 702 l 1
 99 703 l 2
 99 705 100 706 100 706 c 1
 101 707 l 1
 101 708 l 1
 102 708 103 708 103 709 c 2
 103 710 l 1
 104 712 l 2
 105 712 106 713 106 713 c 2
 107 713 108 714 108 714 c 2
 109 714 110 715 111 715 c 0
 112 715 114 716 117 716 c 0
EndSplineSet
Validated: 1
EndChar

StartChar: guillemotright
Encoding: 187 187 103
Width: 818
VWidth: 0
GlyphClass: 2
Flags: W
HStem: 75 641<102 111>
VStem: 95 627
LayerCount: 2
UndoRedoHistory
Layer: 1
Undoes
EndUndoes
Redoes
EndRedoes
EndUndoRedoHistory
Fore
SplineSet
107 716 m 1
 111 716 115 714 117 712 c 2
 496 410 l 2
 500 406 502 402 502 396 c 0
 502 390 500 385 496 382 c 2
 117 79 l 1
 115 76 111 75 107 75 c 0
 102 75 98 76 95 80 c 0
 91 84 90 88 90 93 c 0
 90 99 92 103 96 107 c 2
 457 396 l 1
 96 684 l 2
 92 688 90 692 90 698 c 0
 90 703 91 707 95 711 c 0
 98 714 102 716 107 716 c 1
333 716 m 2
 334 716 l 2
 338 716 342 714 344 712 c 2
 722 410 l 2
 727 406 729 402 729 396 c 0
 729 390 727 385 722 382 c 2
 344 79 l 1
 342 76 338 75 334 75 c 0
 329 75 325 76 321 80 c 0
 318 84 316 88 316 93 c 0
 316 99 318 103 322 107 c 2
 683 396 l 1
 322 684 l 2
 318 688 316 692 316 698 c 0
 316 703 318 707 321 711 c 1
 325 714 329 716 333 716 c 2
EndSplineSet
Validated: 5
EndChar

StartChar: Agrave
Encoding: 192 192 104
Width: 923
VWidth: 0
GlyphClass: 2
Flags: W
HStem: -0 21G<81.5 88 836 842> 370 37<242 682> 1074 20G<457 466>
VStem: 65 36<0.0199814 11> 823 35<0.0088501 11>
LayerCount: 2
UndoRedoHistory
Layer: 1
Undoes
EndUndoes
Redoes
EndRedoes
EndUndoRedoHistory
Fore
SplineSet
343 1324 m 0
 347 1324 349 1323 351 1321 c 2
 578 1170 l 2
 584 1165 586 1160 586 1155 c 0
 586 1150 585 1146 581 1142 c 0
 578 1138 574 1137 569 1137 c 0
 565 1137 562 1138 560 1140 c 2
 333 1291 l 2
 327 1295 325 1300 325 1306 c 0
 325 1310 326 1314 330 1318 c 0
 333 1322 337 1324 343 1324 c 0
462 1094 m 2
 470 1094 475 1090 479 1082 c 1
 724 396 l 2
 724 395 725 394 725 393 c 2
 857 23 l 2
 857 22 858 20 858 17 c 0
 858 13 856 9 852 5 c 0
 848 1 844 -0 840 -0 c 0
 832 -0 826 3 823 11 c 2
 695 370 l 1
 229 370 l 1
 101 11 l 2
 98 3 92 -0 84 -0 c 0
 79 -0 75 1 71 5 c 0
 67 9 65 13 65 17 c 0
 65 20 66 22 66 23 c 2
 197 390 l 2
 197 392 199 395 201 399 c 2
 445 1082 l 2
 448 1090 453 1094 461 1094 c 2
 462 1094 l 2
463 1023 m 1
 242 407 l 1
 682 407 l 1
 463 1023 l 1
EndSplineSet
Validated: 1
EndChar

StartChar: Aacute
Encoding: 193 193 105
Width: 923
VWidth: 0
GlyphClass: 2
Flags: W
HStem: -0 21G<81.5 88 836 842> 370 36<242 682> 1074 20G<458 466.5>
VStem: 66 35<5.1875 11> 823 35<0.0088501 11>
LayerCount: 2
UndoRedoHistory
Layer: 1
Undoes
EndUndoes
Redoes
EndRedoes
EndUndoRedoHistory
Fore
SplineSet
585 1327 m 1
 586 1328 l 1
 590 1328 594 1326 598 1322 c 0
 601 1318 603 1314 603 1310 c 0
 603 1303 600 1298 595 1294 c 2
 369 1143 l 2
 366 1141 362 1140 358 1140 c 0
 353 1140 349 1141 345 1145 c 0
 341 1149 340 1153 340 1158 c 0
 340 1163 342 1168 348 1173 c 2
 575 1324 l 2
 577 1326 581 1327 585 1327 c 1
463 1094 m 2
 470 1094 475 1090 479 1082 c 1
 724 395 l 1
 724 395 725 394 725 392 c 2
 857 22 l 1
 857 22 858 20 858 17 c 0
 858 13 856 9 852 5 c 0
 848 1 844 -0 840 -0 c 0
 832 -0 826 3 823 11 c 2
 695 370 l 1
 229 370 l 1
 101 11 l 2
 98 3 92 -0 84 -0 c 0
 79 -0 75 1 71 5 c 0
 67 9 66 13 66 17 c 0
 66 20 66 22 67 22 c 2
 198 389 l 2
 198 391 199 394 202 398 c 1
 446 1082 l 2
 448 1090 454 1094 462 1094 c 2
 463 1094 l 2
463 1023 m 1
 242 406 l 1
 682 406 l 1
 463 1023 l 1
EndSplineSet
Validated: 1
EndChar

StartChar: Acircumflex
Encoding: 194 194 106
Width: 923
VWidth: 0
GlyphClass: 2
Flags: W
HStem: -0 21G<81.5 88 836 842> 370 37<242 682> 1074 20G<458 466.5>
VStem: 66 35<5.1875 11> 823 35<0.0088501 11>
LayerCount: 2
UndoRedoHistory
Layer: 1
Undoes
EndUndoes
Redoes
EndRedoes
EndUndoRedoHistory
Fore
SplineSet
469 1328 m 0
 473 1328 478 1326 482 1322 c 2
 633 1170 l 1
 608 1145 l 1
 469 1285 l 1
 330 1145 l 1
 305 1170 l 1
 457 1322 l 2
 461 1326 465 1328 469 1328 c 0
463 1094 m 2
 470 1094 475 1090 479 1082 c 1
 724 396 l 2
 724 395 725 394 725 393 c 2
 857 23 l 2
 857 22 858 20 858 17 c 0
 858 13 856 9 852 5 c 0
 848 1 844 -0 840 -0 c 0
 832 -0 826 3 823 11 c 2
 695 370 l 1
 229 370 l 1
 101 11 l 2
 98 3 92 -0 84 -0 c 0
 79 -0 75 1 71 5 c 0
 67 9 66 13 66 17 c 0
 66 20 66 22 67 23 c 2
 198 390 l 2
 198 392 199 395 202 399 c 1
 446 1082 l 2
 448 1090 454 1094 462 1094 c 2
 463 1094 l 2
463 1023 m 1
 242 407 l 1
 682 407 l 1
 463 1023 l 1
EndSplineSet
Validated: 1
EndChar

StartChar: Atilde
Encoding: 195 195 107
Width: 923
VWidth: 0
GlyphClass: 2
Flags: W
HStem: -0 21G<81.5 88 836 842> 370 37<242 682> 1074 20G<458 466.5>
VStem: 66 35<5.1875 11> 823 35<0.0088501 11>
LayerCount: 2
UndoRedoHistory
Layer: 1
Undoes
EndUndoes
Redoes
EndRedoes
EndUndoRedoHistory
Fore
SplineSet
463 1094 m 2
 470 1094 475 1090 479 1082 c 1
 724 396 l 2
 724 395 725 394 725 393 c 2
 857 23 l 2
 857 22 858 20 858 17 c 0
 858 13 856 9 852 5 c 0
 848 1 844 -0 840 -0 c 0
 832 -0 826 3 823 11 c 2
 695 370 l 1
 229 370 l 1
 101 11 l 2
 98 3 92 -0 84 -0 c 0
 79 -0 75 1 71 5 c 0
 67 9 66 13 66 17 c 0
 66 20 66 22 67 23 c 2
 198 390 l 2
 198 392 199 395 202 399 c 1
 446 1082 l 2
 448 1090 454 1094 462 1094 c 2
 463 1094 l 2
463 1023 m 1
 242 407 l 1
 682 407 l 1
 463 1023 l 1
EndSplineSet
Validated: 1
EndChar

StartChar: Adieresis
Encoding: 196 196 108
Width: 923
VWidth: 0
GlyphClass: 2
Flags: W
HStem: -0 21G<81.5 88 836 842> 370 37<242 682> 1074 20G<457 466> 1213 35<324.261 364.814 557.261 597.814> 1288 36<324.234 364.841 557.234 597.841>
VStem: 65 36<0.0199814 11> 289 35<1248.49 1287.46> 365 35<1248.43 1287.61> 522 35<1248.49 1287.46> 598 35<1248.43 1287.61> 823 35<0.0088501 11>
LayerCount: 2
UndoRedoHistory
Layer: 1
Undoes
EndUndoes
Redoes
EndRedoes
EndUndoRedoHistory
Fore
SplineSet
345 1324 m 0
 360 1324 373 1318 384 1308 c 1
 394 1297 400 1284 400 1268 c 0
 400 1252 394 1239 384 1229 c 0
 373 1218 360 1213 345 1213 c 0
 329 1213 316 1218 305 1229 c 0
 294 1239 289 1252 289 1268 c 0
 289 1283 294 1296 305 1307 c 0
 316 1318 329 1324 345 1324 c 0
578 1324 m 0
 593 1324 606 1318 617 1308 c 1
 627 1297 633 1284 633 1268 c 0
 633 1252 627 1239 617 1229 c 0
 606 1218 593 1213 578 1213 c 0
 562 1213 549 1218 538 1229 c 0
 527 1239 522 1252 522 1268 c 0
 522 1283 527 1296 538 1307 c 0
 549 1318 562 1324 578 1324 c 0
345 1288 m 0
 339 1288 334 1286 330 1282 c 0
 326 1278 324 1274 324 1268 c 0
 324 1262 326 1258 330 1254 c 0
 334 1250 339 1248 345 1248 c 0
 351 1248 355 1250 359 1254 c 0
 363 1258 365 1262 365 1268 c 0
 365 1274 363 1278 359 1282 c 0
 355 1286 351 1288 345 1288 c 0
578 1288 m 0
 572 1288 567 1286 563 1282 c 0
 559 1278 557 1274 557 1268 c 0
 557 1262 559 1258 563 1254 c 0
 567 1250 572 1248 578 1248 c 0
 584 1248 588 1250 592 1254 c 0
 596 1258 598 1262 598 1268 c 0
 598 1274 596 1278 592 1282 c 0
 588 1286 584 1288 578 1288 c 0
462 1094 m 2
 470 1094 475 1090 479 1082 c 1
 724 396 l 2
 724 395 725 394 725 393 c 2
 857 23 l 2
 857 22 858 20 858 17 c 0
 858 13 856 9 852 5 c 0
 848 1 844 -0 840 -0 c 0
 832 -0 826 3 823 11 c 2
 695 370 l 1
 229 370 l 1
 101 11 l 2
 98 3 92 -0 84 -0 c 0
 79 -0 75 1 71 5 c 0
 67 9 65 13 65 17 c 0
 65 20 66 22 66 23 c 2
 197 390 l 2
 197 392 199 395 201 399 c 2
 445 1082 l 2
 448 1090 453 1094 461 1094 c 2
 462 1094 l 2
463 1023 m 1
 242 407 l 1
 682 407 l 1
 463 1023 l 1
EndSplineSet
Validated: 1
EndChar

StartChar: Aring
Encoding: 197 197 109
Width: 923
VWidth: 0
GlyphClass: 2
Flags: W
HStem: -0 21G<81.5 88 836 842> 370 37<242 682> 1074 20G<458 466.5>
VStem: 66 35<5.1875 11> 823 35<0.0088501 11>
LayerCount: 2
UndoRedoHistory
Layer: 1
Undoes
EndUndoes
Redoes
EndRedoes
EndUndoRedoHistory
Fore
SplineSet
463 1094 m 2
 470 1094 475 1090 479 1082 c 1
 724 396 l 2
 724 395 725 394 725 393 c 2
 857 23 l 2
 857 22 858 20 858 17 c 0
 858 13 856 9 852 5 c 0
 848 1 844 -0 840 -0 c 0
 832 -0 826 3 823 11 c 2
 695 370 l 1
 229 370 l 1
 101 11 l 2
 98 3 92 -0 84 -0 c 0
 79 -0 75 1 71 5 c 0
 67 9 66 13 66 17 c 0
 66 20 66 22 67 23 c 2
 198 390 l 2
 198 392 199 395 202 399 c 1
 446 1082 l 2
 448 1090 454 1094 462 1094 c 2
 463 1094 l 2
463 1023 m 1
 242 407 l 1
 682 407 l 1
 463 1023 l 1
EndSplineSet
Validated: 1
EndChar

StartChar: AE
Encoding: 198 198 110
Width: 1305
VWidth: 0
GlyphClass: 2
Flags: W
HStem: 0 32<705 1234> 377 33<327 671 705 1152.81> 1059 33<705 1228.81>
VStem: 671 34<32 377 410 1012>
LayerCount: 2
UndoRedoHistory
Layer: 1
Undoes
EndUndoes
Redoes
EndRedoes
EndUndoRedoHistory
Fore
SplineSet
687 1092 m 1
 688 1092 l 1
 1217 1092 l 2
 1221 1092 1225 1090 1229 1087 c 1
 1232 1083 1234 1079 1234 1075 c 0
 1234 1070 1232 1066 1229 1063 c 0
 1225 1060 1221 1059 1217 1059 c 2
 705 1059 l 1
 705 410 l 1
 1141 410 l 2
 1145 410 1149 409 1153 405 c 0
 1156 402 1158 398 1158 394 c 0
 1158 390 1156 386 1153 382 c 1
 1149 379 1145 377 1141 377 c 2
 705 377 l 1
 705 32 l 1
 1217 32 l 2
 1221 32 1225 31 1229 27 c 0
 1232 24 1234 20 1234 16 c 0
 1234 12 1232 8 1229 5 c 0
 1225 1 1221 0 1217 0 c 2
 691 0 l 1
 688 0 l 2
 683 0 679 1 676 5 c 1
 672 8 671 12 671 16 c 2
 671 378 l 1
 309 378 l 1
 97 8 l 2
 94 2 89 0 82 0 c 0
 78 0 74 1 70 5 c 0
 67 8 65 12 65 16 c 0
 65 17 66 20 68 25 c 2
 283 400 l 1
 283 402 l 1
 286 405 l 1
 673 1083 l 1
 674 1084 l 1
 675 1085 l 1
 676 1086 l 1
 676 1087 l 1
 677 1088 l 1
 678 1089 l 1
 679 1089 l 1
 679 1089 680 1090 681 1090 c 2
 682 1090 l 1
 683 1090 l 1
 684 1091 l 1
 686 1091 l 1
 687 1092 l 1
671 1012 m 1
 327 410 l 1
 671 410 l 1
 671 1012 l 1
EndSplineSet
Validated: 1
EndChar

StartChar: Ccedilla
Encoding: 199 199 111
Width: 811
VWidth: 0
GlyphClass: 2
Flags: W
HStem: -303 33<389.643 495.086> 0 32<341.108 425 458 541.875> 1058 33<340.635 543.7>
VStem: 85 33<254.434 835.677> 312 33<-224.698 -161.141> 425 33<-46.9538 0> 538 34<-227.726 -116.937>
LayerCount: 2
UndoRedoHistory
Layer: 1
Undoes
EndUndoes
Redoes
EndRedoes
EndUndoRedoHistory
Fore
SplineSet
443 1091 m 0
 503 1091 560 1076 612 1048 c 0
 664 1019 707 980 739 932 c 0
 741 928 742 925 742 923 c 0
 742 919 741 915 737 911 c 0
 733 907 729 906 725 906 c 0
 719 906 714 908 711 914 c 0
 681 958 643 993 596 1019 c 0
 549 1045 498 1058 442 1058 c 0
 384 1058 330 1043 280 1015 c 0
 230 986 191 947 162 897 c 0
 133 847 118 793 118 735 c 2
 118 356 l 2
 118 298 133 244 161 194 c 0
 190 144 229 105 278 76 c 0
 328 47 382 32 440 32 c 2
 441 32 l 1
 442 33 l 1
 443 32 l 1
 445 32 l 2
 499 32 550 46 597 72 c 0
 644 98 682 133 711 177 c 0
 714 181 719 184 725 184 c 0
 730 184 734 182 737 179 c 0
 741 175 742 172 742 168 c 0
 742 164 741 161 739 158 c 0
 708 111 668 74 619 46 c 0
 570 18 516 2 458 0 c 1
 458 -44 l 1
 490 -48 517 -62 539 -87 c 0
 561 -111 572 -140 572 -173 c 0
 572 -208 560 -238 534 -264 c 0
 508 -290 478 -303 442 -303 c 0
 407 -303 377 -290 351 -264 c 0
 325 -238 312 -208 312 -173 c 0
 312 -168 314 -164 317 -161 c 0
 321 -157 325 -156 329 -156 c 0
 333 -156 337 -157 340 -161 c 1
 344 -164 345 -168 345 -173 c 0
 345 -199 355 -222 374 -241 c 0
 393 -260 416 -270 442 -270 c 0
 469 -270 492 -260 510 -241 c 0
 529 -222 538 -199 538 -172 c 0
 538 -145 529 -122 510 -104 c 1
 492 -85 469 -76 442 -76 c 0
 438 -76 434 -74 430 -71 c 1
 427 -67 425 -63 425 -59 c 2
 425 -0 l 1
 363 2 306 20 254 53 c 0
 202 85 160 128 130 182 c 0
 100 235 85 293 85 356 c 2
 85 735 l 2
 85 799 101 858 133 913 c 0
 165 968 209 1011 263 1043 c 0
 318 1075 378 1091 443 1091 c 0
EndSplineSet
Validated: 1
EndChar

StartChar: Egrave
Encoding: 200 200 112
Width: 809
VWidth: 0
GlyphClass: 2
Flags: W
HStem: -0 36<132 735.999> 378 36<132 661.999> 1059 35<132 731.812>
VStem: 95 37<36 378 413 1059>
LayerCount: 2
UndoRedoHistory
Layer: 1
Undoes
EndUndoes
Redoes
EndRedoes
EndUndoRedoHistory
Fore
SplineSet
297 1324 m 0
 301 1324 304 1323 307 1321 c 2
 534 1170 l 1
 539 1165 542 1160 542 1155 c 0
 542 1150 540 1146 536 1142 c 0
 532 1138 528 1137 523 1137 c 0
 519 1137 516 1138 513 1140 c 2
 287 1291 l 2
 281 1295 278 1300 278 1306 c 0
 278 1310 280 1314 284 1318 c 0
 288 1322 292 1324 297 1324 c 0
114 1094 m 2
 719 1094 l 2
 724 1094 728 1092 732 1089 c 1
 735 1085 737 1081 737 1076 c 0
 737 1071 735 1067 732 1064 c 0
 728 1060 724 1059 719 1059 c 2
 132 1059 l 1
 132 413 l 1
 643 414 l 1
 644 414 l 2
 648 414 652 412 656 408 c 0
 660 404 662 400 662 396 c 0
 662 391 660 387 656 383 c 0
 652 379 648 378 644 378 c 2
 643 378 l 1
 132 378 l 1
 132 36 l 1
 719 36 l 2
 724 36 728 34 731 30 c 0
 735 26 736 22 736 18 c 0
 736 13 735 9 731 5 c 0
 728 1 724 -0 718 -0 c 2
 113 -0 l 2
 109 -0 105 1 101 5 c 0
 97 9 95 13 95 18 c 2
 95 393 l 1
 95 396 l 1
 95 399 l 1
 95 1076 l 2
 95 1081 97 1085 101 1089 c 0
 105 1092 109 1094 114 1094 c 2
EndSplineSet
Validated: 1
EndChar

StartChar: Eacute
Encoding: 201 201 113
Width: 809
VWidth: 0
GlyphClass: 2
Flags: W
HStem: -0 36<132 735.999> 378 36<132 661.999> 1059 35<132 731.812>
VStem: 95 37<36 378 413 1059>
LayerCount: 2
UndoRedoHistory
Layer: 1
Undoes
EndUndoes
Redoes
EndRedoes
EndUndoRedoHistory
Fore
SplineSet
539 1327 m 1
 540 1328 l 1
 545 1328 549 1326 552 1322 c 0
 556 1318 557 1314 557 1310 c 0
 557 1303 555 1298 549 1294 c 2
 322 1143 l 2
 320 1141 317 1140 312 1140 c 0
 307 1140 303 1141 300 1145 c 0
 296 1149 295 1153 295 1158 c 0
 295 1163 297 1168 303 1173 c 2
 530 1324 l 2
 532 1326 535 1327 539 1327 c 1
114 1094 m 2
 719 1094 l 2
 724 1094 728 1092 732 1089 c 1
 735 1085 737 1081 737 1076 c 0
 737 1071 735 1067 732 1064 c 0
 728 1060 724 1059 719 1059 c 2
 132 1059 l 1
 132 413 l 1
 643 414 l 1
 644 414 l 2
 648 414 652 412 656 408 c 0
 660 404 662 400 662 396 c 0
 662 391 660 387 656 383 c 0
 652 379 648 378 644 378 c 2
 643 378 l 1
 132 378 l 1
 132 36 l 1
 719 36 l 2
 724 36 728 34 731 30 c 0
 735 26 736 22 736 18 c 0
 736 13 735 9 731 5 c 0
 728 1 724 -0 718 -0 c 2
 113 -0 l 2
 109 -0 105 1 101 5 c 0
 97 9 95 13 95 18 c 2
 95 393 l 1
 95 396 l 1
 95 399 l 1
 95 1076 l 2
 95 1081 97 1085 101 1089 c 0
 105 1092 109 1094 114 1094 c 2
EndSplineSet
Validated: 1
EndChar

StartChar: Ecircumflex
Encoding: 202 202 114
Width: 809
VWidth: 0
GlyphClass: 2
Flags: W
HStem: -0 36<132 735.999> 378 36<132 661.999> 1059 35<132 731.812>
VStem: 95 37<36 378 413 1059>
LayerCount: 2
UndoRedoHistory
Layer: 1
Undoes
EndUndoes
Redoes
EndRedoes
EndUndoRedoHistory
Fore
SplineSet
424 1328 m 0
 428 1328 432 1326 436 1322 c 2
 587 1170 l 1
 562 1145 l 1
 424 1285 l 1
 285 1145 l 1
 260 1170 l 1
 411 1322 l 2
 414 1326 418 1328 424 1328 c 0
114 1094 m 2
 719 1094 l 2
 724 1094 728 1092 732 1089 c 1
 735 1085 737 1081 737 1076 c 0
 737 1071 735 1067 732 1064 c 0
 728 1060 724 1059 719 1059 c 2
 132 1059 l 1
 132 413 l 1
 643 414 l 1
 644 414 l 2
 648 414 652 412 656 408 c 0
 660 404 662 400 662 396 c 0
 662 391 660 387 656 383 c 0
 652 379 648 378 644 378 c 2
 643 378 l 1
 132 378 l 1
 132 36 l 1
 719 36 l 2
 724 36 728 34 731 30 c 0
 735 26 736 22 736 18 c 0
 736 13 735 9 731 5 c 0
 728 1 724 -0 718 -0 c 2
 113 -0 l 2
 109 -0 105 1 101 5 c 0
 97 9 95 13 95 18 c 2
 95 393 l 1
 95 396 l 1
 95 399 l 1
 95 1076 l 2
 95 1081 97 1085 101 1089 c 0
 105 1092 109 1094 114 1094 c 2
EndSplineSet
Validated: 1
EndChar

StartChar: Edieresis
Encoding: 203 203 115
Width: 809
VWidth: 0
GlyphClass: 2
Flags: W
HStem: -0 36<132 731.812> 378 36<132 661.999> 1059 35<132 731.812> 1213 35<278.447 318.696 515.913 551.696> 1288 36<278.109 318.723 515.913 551.723>
VStem: 96 36<36 378 413 1059> 244 34<1248.53 1287.41> 319 36<1248.1 1287.63> 477 36<1251.14 1284.79> 552 36<1248.1 1287.63>
LayerCount: 2
UndoRedoHistory
Layer: 1
Undoes
EndUndoes
Redoes
EndRedoes
EndUndoRedoHistory
Fore
SplineSet
300 1324 m 0
 315 1324 328 1318 339 1308 c 1
 349 1297 355 1284 355 1268 c 0
 355 1252 349 1239 339 1229 c 0
 328 1218 315 1213 300 1213 c 0
 284 1213 271 1218 260 1229 c 0
 249 1239 244 1252 244 1268 c 0
 244 1283 249 1296 260 1307 c 0
 271 1318 284 1324 300 1324 c 0
533 1324 m 0
 548 1324 561 1318 572 1308 c 1
 582 1297 588 1284 588 1268 c 0
 588 1252 582 1239 572 1229 c 0
 561 1218 548 1213 533 1213 c 0
 517 1213 504 1218 493 1229 c 0
 482 1239 477 1252 477 1268 c 0
 477 1283 482 1296 493 1307 c 0
 504 1318 517 1324 533 1324 c 0
299 1288 m 0
 293 1288 288 1286 284 1282 c 0
 280 1278 278 1274 278 1268 c 0
 278 1262 280 1258 284 1254 c 0
 288 1250 293 1248 299 1248 c 0
 305 1248 309 1250 313 1254 c 0
 317 1258 319 1262 319 1268 c 0
 319 1274 317 1278 313 1282 c 0
 309 1286 305 1288 299 1288 c 0
532 1288 m 0
 526 1288 522 1286 518 1282 c 0
 514 1278 513 1274 513 1268 c 0
 513 1262 514 1258 518 1254 c 0
 522 1250 526 1248 532 1248 c 0
 538 1248 542 1250 546 1254 c 0
 550 1258 552 1262 552 1268 c 0
 552 1274 550 1278 546 1282 c 0
 542 1286 538 1288 532 1288 c 0
114 1094 m 2
 719 1094 l 2
 724 1094 728 1092 732 1089 c 1
 735 1085 737 1081 737 1076 c 0
 737 1071 735 1067 732 1064 c 0
 728 1060 724 1059 719 1059 c 2
 132 1059 l 1
 132 413 l 1
 643 414 l 1
 644 414 l 2
 648 414 652 412 656 408 c 0
 660 404 662 400 662 396 c 0
 662 391 660 387 656 383 c 0
 652 379 648 378 644 378 c 2
 643 378 l 1
 132 378 l 1
 132 36 l 1
 719 36 l 2
 724 36 728 34 732 30 c 0
 735 26 737 22 737 18 c 0
 737 13 735 9 732 5 c 0
 728 1 724 -0 719 -0 c 2
 114 -0 l 2
 109 -0 105 1 101 5 c 0
 97 9 96 13 96 18 c 2
 96 393 l 1
 96 396 l 1
 96 399 l 1
 96 1076 l 2
 96 1081 97 1085 101 1089 c 0
 105 1092 109 1094 114 1094 c 2
EndSplineSet
Validated: 1
EndChar

StartChar: Igrave
Encoding: 204 204 116
Width: 373
VWidth: 0
GlyphClass: 2
Flags: W
HStem: -0 21G<189.5 194> 1074 20G<189 193.5>
VStem: 173 37<0.00679779 1088.81>
LayerCount: 2
UndoRedoHistory
Layer: 1
Undoes
EndUndoes
Redoes
EndRedoes
EndUndoRedoHistory
Fore
SplineSet
73 1324 m 0
 77 1324 80 1323 82 1321 c 2
 308 1170 l 2
 314 1165 317 1160 317 1155 c 0
 317 1150 316 1146 312 1142 c 0
 308 1138 304 1137 299 1137 c 0
 295 1137 292 1138 289 1140 c 2
 62 1291 l 2
 57 1295 54 1300 54 1306 c 0
 54 1310 56 1314 60 1318 c 0
 64 1322 68 1324 73 1324 c 0
191 1094 m 0
 196 1094 200 1092 204 1089 c 0
 208 1085 210 1081 210 1076 c 2
 210 18 l 2
 210 13 208 9 204 5 c 0
 200 1 196 -0 192 -0 c 0
 187 -0 183 1 179 5 c 0
 175 9 173 13 173 18 c 2
 173 1076 l 2
 173 1081 175 1085 179 1089 c 0
 183 1092 187 1094 191 1094 c 0
EndSplineSet
Validated: 1
EndChar

StartChar: Iacute
Encoding: 205 205 117
Width: 373
VWidth: 0
GlyphClass: 2
Flags: W
HStem: -0 21G<173.5 178.5> 1074 20G<173.5 179>
VStem: 159 35<5.1875 1088.81>
LayerCount: 2
UndoRedoHistory
Layer: 1
Undoes
EndUndoes
Redoes
EndRedoes
EndUndoRedoHistory
Fore
SplineSet
299 1327 m 1
 300 1328 l 1
 304 1328 308 1326 312 1322 c 0
 316 1318 318 1314 318 1310 c 0
 318 1303 315 1298 309 1294 c 2
 83 1143 l 2
 80 1141 77 1140 73 1140 c 0
 68 1140 64 1141 60 1145 c 0
 56 1149 55 1153 55 1158 c 0
 55 1164 57 1169 62 1173 c 2
 289 1324 l 2
 291 1326 295 1327 299 1327 c 1
176 1094 m 2
 177 1094 l 2
 181 1094 185 1092 189 1089 c 1
 192 1085 194 1081 194 1076 c 2
 194 18 l 2
 194 13 192 9 189 5 c 0
 185 1 181 -0 176 -0 c 0
 171 -0 167 1 164 5 c 0
 160 9 159 13 159 18 c 2
 159 1076 l 2
 159 1081 160 1085 164 1089 c 0
 167 1092 171 1094 176 1094 c 2
EndSplineSet
Validated: 1
EndChar

StartChar: Icircumflex
Encoding: 206 206 118
Width: 438
VWidth: 0
GlyphClass: 2
Flags: W
HStem: -0 21G<208.5 213.5> 1074 20G<208.5 213.5>
VStem: 194 35<5.1875 1088.81>
LayerCount: 2
UndoRedoHistory
Layer: 1
Undoes
EndUndoes
Redoes
EndRedoes
EndUndoRedoHistory
Fore
SplineSet
218 1328 m 2
 219 1328 l 2
 223 1328 227 1326 231 1322 c 2
 382 1170 l 1
 357 1145 l 1
 219 1285 l 1
 80 1145 l 1
 55 1170 l 1
 206 1322 l 2
 209 1326 213 1328 218 1328 c 2
211 1094 m 0
 216 1094 220 1092 224 1089 c 1
 227 1085 229 1081 229 1076 c 2
 229 18 l 2
 229 13 227 9 224 5 c 0
 220 1 216 -0 211 -0 c 0
 206 -0 202 1 199 5 c 0
 195 9 194 13 194 18 c 2
 194 1076 l 2
 194 1081 195 1085 199 1089 c 0
 202 1092 206 1094 211 1094 c 0
EndSplineSet
Validated: 1
EndChar

StartChar: Idieresis
Encoding: 207 207 119
Width: 455
VWidth: 0
GlyphClass: 2
Flags: W
HStem: -0 21G<224.5 229.5> 1074 20G<224 229.5> 1213 35<89.312 126.176 322.261 362.607> 1288 36<89.2856 126.176 322.234 362.634>
VStem: 55 34<1248.53 1287.52> 129 37<1251.14 1284.79> 209 35<5.1875 1088.81> 287 35<1248.49 1287.56> 363 36<1248.1 1287.84>
LayerCount: 2
UndoRedoHistory
Layer: 1
Undoes
EndUndoes
Redoes
EndRedoes
EndUndoRedoHistory
Fore
SplineSet
110 1324 m 0
 125 1324 138 1318 149 1307 c 0
 160 1296 166 1283 166 1268 c 0
 166 1252 160 1239 149 1229 c 0
 138 1218 125 1213 110 1213 c 0
 94 1213 81 1218 71 1229 c 1
 60 1239 55 1252 55 1268 c 0
 55 1284 60 1297 71 1308 c 0
 81 1318 94 1324 110 1324 c 0
343 1324 m 0
 359 1324 372 1318 383 1307 c 0
 393 1296 399 1283 399 1268 c 0
 399 1252 393 1239 383 1229 c 0
 372 1218 359 1213 343 1213 c 0
 327 1213 314 1218 303 1229 c 0
 293 1239 287 1252 287 1268 c 0
 287 1284 293 1297 303 1308 c 1
 314 1318 327 1324 343 1324 c 0
110 1288 m 0
 104 1288 99 1286 95 1282 c 0
 91 1278 89 1274 89 1268 c 0
 89 1262 91 1258 95 1254 c 0
 99 1250 104 1248 110 1248 c 0
 116 1248 120 1250 124 1254 c 0
 128 1258 129 1262 129 1268 c 0
 129 1274 128 1278 124 1282 c 0
 120 1286 116 1288 110 1288 c 0
343 1288 m 0
 337 1288 332 1286 328 1282 c 0
 324 1278 322 1274 322 1268 c 0
 322 1262 324 1258 328 1254 c 0
 332 1250 337 1248 343 1248 c 0
 349 1248 353 1250 357 1254 c 0
 361 1258 363 1262 363 1268 c 0
 363 1274 361 1278 357 1282 c 0
 353 1286 349 1288 343 1288 c 0
226 1094 m 2
 227 1094 l 2
 232 1094 236 1092 239 1089 c 0
 243 1085 244 1081 244 1076 c 2
 244 17 l 2
 244 13 243 9 239 5 c 0
 236 1 232 -0 227 -0 c 0
 222 -0 218 1 214 5 c 0
 211 9 209 13 209 17 c 2
 209 1076 l 2
 209 1081 211 1085 214 1089 c 1
 218 1092 222 1094 226 1094 c 2
EndSplineSet
Validated: 1
EndChar

StartChar: Ntilde
Encoding: 209 209 120
Width: 837
VWidth: 0
GlyphClass: 2
Flags: W
HStem: 0 21G<111.5 115 717 721.5> 1074 20G<112 124 716.5 722> 1168.29 35.2486<490.598 600.491> 1328.03 35.4256<272.751 383.595>
VStem: 95 36<11 11.9993 12 14 15 1052> 203 29.9737<1182.19 1283.28> 641.026 35.4558<1244.4 1341.81> 701 37<1.07178 762 802 1088.81>
LayerCount: 2
UndoRedoHistory
Layer: 1
Undoes
EndUndoes
Redoes
EndRedoes
EndUndoRedoHistory
Fore
SplineSet
290 1358 m 0
 302.469514256 1361.66750419 314.804522642 1363.45192621 327.005025157 1363.45192621 c 0
 348.071021803 1363.45192621 368.736013417 1358.13199329 389 1348 c 0
 421 1332 442 1307 454 1273 c 1
 454 1272 l 1
 462 1246 477 1227 501 1215 c 0
 515.963409192 1207.5182954 530.926818383 1203.53508479 546.132585894 1203.53508479 c 0
 555.315539936 1203.53508479 564.586884574 1204.98780306 574 1208 c 0
 599 1216 618 1231 630 1255 c 0
 637.430021764 1269.86004353 641.026347458 1284.72008706 641.026347458 1299.81750096 c 0
 641.026347458 1309.10345666 639.665820638 1318.47921201 637 1328 c 0
 635 1333 635 1338 637 1342 c 0
 639 1346 643 1349 648 1351 c 0
 659 1354 666 1350 670 1339 c 0
 674.321428571 1325.25 676.482142857 1311.65433673 676.482142857 1298.27364249 c 0
 676.482142857 1277.59438776 671.321428571 1257.42857143 661 1238 c 0
 644 1206 618 1184 584 1174 c 0
 571.111002551 1170.2091184 558.365712936 1168.28643863 545.764131153 1168.28643863 c 0
 525.123889256 1168.28643863 504.869178872 1173.44449872 485 1184 c 0
 453 1200 432 1226 420 1260 c 1
 419 1261 l 1
 412 1286 397 1305 373 1317 c 0
 358.139956472 1324.43002176 343.279912943 1328.02634746 328.182499038 1328.02634746 c 0
 318.896543336 1328.02634746 309.520787991 1326.66582064 300 1324 c 0
 275 1316 256 1300 244 1277 c 0
 236.569978236 1262.13995647 232.973652542 1247.27991294 232.973652542 1232.18249904 c 0
 232.973652542 1222.89654334 234.334179362 1213.52078799 237 1204 c 0
 241 1193 237 1186 225 1182 c 0
 215 1178 207 1181 203 1193 c 1
 203 1194 l 1
 199.153846154 1207.07692308 197.230769231 1220.15384615 197.230769231 1233.1169777 c 0
 197.230769231 1253.85798817 202.153846154 1274.30769231 212 1294 c 0
 229 1326 255 1347 290 1358 c 0
719 1094 m 2
 720 1094 l 2
 724 1094 728 1092 732 1089 c 0
 736 1085 738 1081 738 1076 c 2
 738 17 l 2
 738 13 736 9 732 5 c 0
 728 1 724 -0 719 -0 c 0
 715 -0 711 1 707 5 c 0
 703 9 701 13 701 17 c 2
 701 762 l 1
 131 1052 l 1
 131 17 l 1
 131 15 l 1
 130 14 l 1
 130 12 l 1
 130 11 l 1
 129 10 l 1
 129 9 l 1
 128 7 l 1
 128 7 127 7 126 5 c 2
 124 3 l 2
 121 1 117 0 113 0 c 0
 110 0 108 1 107 1 c 2
 106 1 l 1
 105 1 l 1
 105 2 105 3 104 3 c 2
 102 3 l 1
 102 3 101 4 99 5 c 0
 99 6 99 7 98 9 c 2
 97 10 l 2
 97 11 97 12 96 12 c 1
 96 13 95 14 95 14 c 1
 95 17 l 1
 95 1076 l 1
 95 1080 l 1
 96 1081 l 1
 96 1082 l 1
 97 1083 l 1
 98 1084 l 1
 98 1085 l 1
 99 1086 l 1
 100 1087 l 1
 101 1089 l 2
 102 1089 103 1090 104 1090 c 1
 104 1091 l 1
 105 1091 l 1
 106 1092 l 1
 107 1092 l 1
 107 1092 107 1093 108 1093 c 2
 108 1093 110 1094 114 1094 c 2
 115 1094 l 1
 117 1094 l 1
 118 1094 l 1
 121 1094 l 1
 122 1094 l 1
 123 1094 l 2
 125 1094 127 1093 129 1093 c 1
 130 1092 l 1
 702 802 l 1
 702 1076 l 2
 702 1081 703 1085 707 1089 c 0
 710 1092 714 1094 719 1094 c 2
EndSplineSet
Validated: 524289
EndChar

StartChar: Ograve
Encoding: 210 210 121
Width: 894
VWidth: 0
GlyphClass: 2
Flags: W
HStem: 0 36<336.33 550.478> 1059 35<338.956 547.854>
VStem: 85 36<253.059 840.025> 765 36<250.765 842.544>
LayerCount: 2
UndoRedoHistory
Layer: 1
Undoes
EndUndoes
Redoes
EndRedoes
EndUndoRedoHistory
Fore
SplineSet
325 1324 m 0
 329 1324 332 1323 334 1321 c 2
 560 1170 l 2
 566 1165 568 1160 568 1155 c 0
 568 1150 567 1146 563 1142 c 0
 560 1138 556 1137 551 1137 c 0
 547 1137 544 1138 541 1140 c 2
 314 1291 l 2
 309 1295 306 1300 306 1306 c 0
 306 1310 308 1314 312 1318 c 0
 316 1322 320 1324 325 1324 c 0
443 1094 m 0
 508 1094 568 1078 623 1046 c 0
 678 1014 721 970 753 915 c 0
 785 860 801 800 801 736 c 2
 801 358 l 2
 801 293 785 233 753 178 c 0
 721 123 678 80 623 48 c 0
 568 16 508 0 443 0 c 0
 379 0 319 16 264 48 c 0
 209 80 165 123 133 178 c 0
 101 233 85 293 85 358 c 2
 85 736 l 2
 85 800 101 860 133 915 c 0
 165 970 209 1014 264 1046 c 0
 319 1078 379 1094 443 1094 c 0
443 1059 m 0
 385 1059 331 1044 281 1015 c 0
 232 986 193 947 164 898 c 1
 136 848 121 794 121 736 c 2
 121 358 l 2
 121 299 136 245 164 196 c 0
 193 146 232 107 281 79 c 0
 331 50 385 36 443 36 c 0
 502 36 556 50 605 79 c 1
 655 107 694 146 722 196 c 1
 751 245 765 299 765 358 c 2
 765 736 l 2
 765 794 751 848 722 898 c 0
 694 947 655 986 605 1015 c 0
 556 1044 502 1059 443 1059 c 0
EndSplineSet
Validated: 1
EndChar

StartChar: Oacute
Encoding: 211 211 122
Width: 894
VWidth: 0
GlyphClass: 2
Flags: W
HStem: -0 35<338.956 547.854> 1059 35<338.956 547.854>
VStem: 85 36<252.975 839.941> 765 36<250.456 842.235>
LayerCount: 2
UndoRedoHistory
Layer: 1
Undoes
EndUndoes
Redoes
EndRedoes
EndUndoRedoHistory
Fore
SplineSet
567 1327 m 1
 567 1328 l 1
 572 1328 576 1326 580 1322 c 0
 584 1318 586 1314 586 1310 c 0
 586 1303 583 1298 578 1294 c 2
 351 1143 l 2
 348 1141 344 1140 340 1140 c 0
 335 1140 331 1141 327 1145 c 0
 323 1149 322 1153 322 1158 c 0
 322 1163 324 1168 330 1173 c 2
 557 1324 l 2
 559 1326 563 1327 567 1327 c 1
443 1094 m 0
 508 1094 568 1078 623 1046 c 0
 678 1014 721 970 753 915 c 0
 785 860 801 800 801 735 c 2
 801 357 l 2
 801 293 785 233 753 178 c 0
 721 123 678 79 623 47 c 0
 568 15 508 -0 443 -0 c 0
 379 -0 319 15 264 47 c 0
 209 79 165 123 133 178 c 0
 101 233 85 293 85 357 c 2
 85 735 l 2
 85 800 101 860 133 915 c 0
 165 970 209 1014 264 1046 c 0
 319 1078 379 1094 443 1094 c 0
443 1059 m 0
 385 1059 331 1044 281 1015 c 0
 232 986 193 947 164 897 c 0
 136 848 121 794 121 735 c 2
 121 357 l 2
 121 299 136 245 164 195 c 1
 193 146 232 107 281 78 c 1
 331 50 385 35 443 35 c 0
 502 35 556 50 605 78 c 0
 655 107 694 146 722 195 c 0
 751 245 765 299 765 357 c 2
 765 735 l 2
 765 794 751 848 722 897 c 1
 694 947 655 986 605 1015 c 0
 556 1044 502 1059 443 1059 c 0
EndSplineSet
Validated: 1
EndChar

StartChar: Ocircumflex
Encoding: 212 212 123
Width: 894
VWidth: 0
GlyphClass: 2
Flags: W
HStem: 0 36<336.522 550.67> 1059 35<339.146 548.044>
VStem: 86 36<250.765 842.544> 766 36<253.059 840.025>
LayerCount: 2
UndoRedoHistory
Layer: 1
Undoes
EndUndoes
Redoes
EndRedoes
EndUndoRedoHistory
Fore
SplineSet
451 1328 m 0
 455 1328 459 1326 463 1322 c 2
 615 1170 l 1
 590 1145 l 1
 451 1285 l 1
 313 1145 l 1
 288 1170 l 1
 438 1322 l 2
 442 1326 446 1328 451 1328 c 0
444 1094 m 0
 508 1094 568 1078 623 1046 c 0
 678 1014 722 970 754 915 c 0
 786 860 802 800 802 736 c 2
 802 358 l 2
 802 293 786 233 754 178 c 0
 722 123 678 80 623 48 c 0
 568 16 508 0 444 0 c 0
 379 0 319 16 264 48 c 0
 209 80 166 123 134 178 c 0
 102 233 86 293 86 358 c 2
 86 736 l 2
 86 800 102 860 134 915 c 0
 166 970 209 1014 264 1046 c 0
 319 1078 379 1094 444 1094 c 0
444 1059 m 0
 385 1059 331 1044 282 1015 c 0
 232 986 193 947 165 898 c 0
 136 848 122 794 122 736 c 2
 122 358 l 2
 122 299 136 245 165 196 c 1
 193 146 232 107 282 79 c 1
 331 50 385 36 444 36 c 0
 502 36 556 50 606 79 c 0
 655 107 694 146 723 196 c 0
 751 245 766 299 766 358 c 2
 766 736 l 2
 766 794 751 848 723 898 c 1
 694 947 655 986 606 1015 c 0
 556 1044 502 1059 444 1059 c 0
EndSplineSet
Validated: 1
EndChar

StartChar: Otilde
Encoding: 213 213 124
Width: 894
VWidth: 0
GlyphClass: 2
Flags: W
HStem: -0 35<339.146 548.044> 1059 35<339.146 548.044> 1168.29 35.2486<517.598 626.743> 1327.8 35.6519<300.751 411.243>
VStem: 86 36<250.456 842.235> 224.518 35.6821<1194 1287.88> 667.8 35.6821<1243.48 1341.81> 766 36<252.975 839.941>
LayerCount: 2
UndoRedoHistory
Layer: 1
Undoes
EndUndoes
Redoes
EndRedoes
EndUndoRedoHistory
Fore
SplineSet
318 1358 m 0
 330.102763837 1361.66750419 342.205527673 1363.45192621 354.258961425 1363.45192621 c 0
 375.071021803 1363.45192621 395.736013417 1358.13199329 416 1348 c 0
 448 1332 469 1307 481 1273 c 1
 481 1272 l 1
 482 1272 l 1
 489 1246 504 1227 528 1215 c 0
 542.339933809 1207.5182954 557.06858917 1203.53508479 572.428324404 1203.53508479 c 0
 581.704261489 1203.53508479 591.210359957 1204.98780306 601 1208 c 0
 626 1216 645 1231 657 1255 c 0
 664.2 1269.4 667.8 1283.8 667.8 1298.416 c 0
 667.8 1308.16 666.2 1318 663 1328 c 0
 662 1333 663 1338 665 1342 c 0
 667 1346 671 1349 675 1351 c 0
 686 1354 693 1350 697 1339 c 0
 701.321428571 1325.25 703.482142857 1311.65433673 703.482142857 1298.27364249 c 0
 703.482142857 1277.59438776 698.321428571 1257.42857143 688 1238 c 0
 672 1206 646 1184 611 1174 c 0
 598.111002551 1170.2091184 585.365712936 1168.28643863 572.764131153 1168.28643863 c 0
 552.123889256 1168.28643863 531.869178872 1173.44449872 512 1184 c 0
 480 1200 459 1226 448 1260 c 1
 447 1261 l 1
 439 1286 424 1305 400 1317 c 0
 386.2 1324.2 372.04 1327.8 357.304 1327.8 c 0
 347.48 1327.8 337.4 1326.2 327 1323 c 0
 302 1315 283 1300 271 1277 c 0
 263.8 1262.6 260.2 1248.2 260.2 1233.584 c 0
 260.2 1223.84 261.8 1214 265 1204 c 1
 266 1204 l 1
 269 1193 265 1186 254 1182 c 0
 242 1178 235 1181 232 1193 c 1
 231 1194 l 1
 226.678571429 1207.35714286 224.517857143 1220.71428571 224.517857143 1233.95016399 c 0
 224.517857143 1254.40561224 229.678571429 1274.57142857 240 1294 c 0
 257 1326 283 1347 318 1358 c 0
444 1094 m 0
 508 1094 568 1078 623 1046 c 0
 678 1014 722 970 754 915 c 0
 786 860 802 800 802 735 c 2
 802 357 l 2
 802 293 786 233 754 178 c 0
 722 123 678 79 623 47 c 0
 568 15 508 -0 444 -0 c 0
 379 -0 319 15 264 47 c 0
 209 79 166 123 134 178 c 0
 102 233 86 293 86 357 c 2
 86 735 l 2
 86 800 102 860 134 915 c 0
 166 970 209 1014 264 1046 c 0
 319 1078 379 1094 444 1094 c 0
444 1059 m 0
 385 1059 331 1044 282 1015 c 0
 232 986 193 947 165 897 c 1
 136 848 122 794 122 735 c 2
 122 357 l 2
 122 299 136 245 165 195 c 0
 193 146 232 107 282 78 c 0
 331 50 385 35 444 35 c 0
 502 35 556 50 606 78 c 1
 655 107 694 146 723 195 c 1
 751 245 766 299 766 357 c 2
 766 735 l 2
 766 794 751 848 723 897 c 0
 694 947 655 986 606 1015 c 0
 556 1044 502 1059 444 1059 c 0
EndSplineSet
Validated: 524293
EndChar

StartChar: Odieresis
Encoding: 214 214 125
Width: 894
VWidth: 0
GlyphClass: 2
Flags: W
HStem: 0 36<336.522 550.67> 1059 35<339.146 548.044> 1213 35<307.393 346.814 540.393 579.607> 1288 36<307.366 346.841 540.366 579.634>
VStem: 86 36<250.765 842.544> 271 36<1248.1 1287.84> 347 35<1248.43 1287.61> 504 36<1248.1 1287.84> 580 36<1248.1 1287.63> 766 36<253.059 840.025>
LayerCount: 2
UndoRedoHistory
Layer: 1
Undoes
EndUndoes
Redoes
EndRedoes
EndUndoRedoHistory
Fore
SplineSet
327 1324 m 0
 342 1324 355 1318 366 1308 c 1
 376 1297 382 1284 382 1268 c 0
 382 1252 376 1239 366 1229 c 0
 355 1218 342 1213 327 1213 c 0
 311 1213 298 1218 287 1229 c 0
 276 1239 271 1252 271 1268 c 0
 271 1283 276 1296 287 1307 c 0
 298 1318 311 1324 327 1324 c 0
560 1324 m 0
 576 1324 589 1318 600 1308 c 1
 610 1297 616 1284 616 1268 c 0
 616 1252 610 1239 600 1229 c 0
 589 1218 576 1213 560 1213 c 0
 544 1213 531 1218 520 1229 c 0
 510 1239 504 1252 504 1268 c 0
 504 1283 510 1296 520 1307 c 0
 531 1318 544 1324 560 1324 c 0
327 1288 m 0
 321 1288 317 1286 313 1282 c 0
 309 1278 307 1274 307 1268 c 0
 307 1262 309 1258 313 1254 c 0
 317 1250 321 1248 327 1248 c 0
 333 1248 337 1250 341 1254 c 0
 345 1258 347 1262 347 1268 c 0
 347 1274 345 1278 341 1282 c 0
 337 1286 333 1288 327 1288 c 0
560 1288 m 0
 554 1288 550 1286 546 1282 c 0
 542 1278 540 1274 540 1268 c 0
 540 1262 542 1258 546 1254 c 0
 550 1250 554 1248 560 1248 c 0
 566 1248 570 1250 574 1254 c 0
 578 1258 580 1262 580 1268 c 0
 580 1274 578 1278 574 1282 c 0
 570 1286 566 1288 560 1288 c 0
444 1094 m 0
 508 1094 568 1078 623 1046 c 0
 678 1014 722 970 754 915 c 0
 786 860 802 800 802 736 c 2
 802 358 l 2
 802 293 786 233 754 178 c 0
 722 123 678 80 623 48 c 0
 568 16 508 0 444 0 c 0
 379 0 319 16 264 48 c 0
 209 80 166 123 134 178 c 0
 102 233 86 293 86 358 c 2
 86 736 l 2
 86 800 102 860 134 915 c 0
 166 970 209 1014 264 1046 c 0
 319 1078 379 1094 444 1094 c 0
444 1059 m 0
 385 1059 331 1044 282 1015 c 0
 232 986 193 947 165 898 c 0
 136 848 122 794 122 736 c 2
 122 358 l 2
 122 299 136 245 165 196 c 1
 193 146 232 107 282 79 c 1
 331 50 385 36 444 36 c 0
 502 36 556 50 606 79 c 0
 655 107 694 146 723 196 c 0
 751 245 766 299 766 358 c 2
 766 736 l 2
 766 794 751 848 723 898 c 1
 694 947 655 986 606 1015 c 0
 556 1044 502 1059 444 1059 c 0
EndSplineSet
Validated: 1
EndChar

StartChar: multiply
Encoding: 215 215 126
Width: 634
VWidth: 0
GlyphClass: 2
Flags: W
HStem: 134 491<84 93 538 547>
VStem: 70 491<147 157 601 611>
LayerCount: 2
UndoRedoHistory
Layer: 1
Undoes
EndUndoes
Redoes
EndRedoes
EndUndoRedoHistory
Fore
SplineSet
89 625 m 0
 93 625 98 623 102 619 c 2
 316 405 l 1
 531 619 l 2
 534 623 538 625 543 625 c 0
 547 625 551 623 555 619 c 0
 559 615 561 611 561 607 c 0
 561 601 559 597 556 594 c 2
 341 380 l 1
 556 165 l 2
 559 161 561 157 561 152 c 0
 561 147 559 143 556 139 c 0
 552 135 548 134 543 134 c 0
 538 134 534 136 531 140 c 2
 316 355 l 1
 102 140 l 2
 98 136 93 134 89 134 c 0
 84 134 80 135 76 139 c 0
 72 143 70 147 70 152 c 0
 70 157 72 161 76 165 c 2
 290 380 l 1
 76 594 l 2
 72 597 70 601 70 606 c 0
 70 611 72 615 76 619 c 0
 80 623 84 625 89 625 c 0
EndSplineSet
Validated: 1
EndChar

StartChar: Oslash
Encoding: 216 216 127
Width: 894
VWidth: 0
GlyphClass: 2
Flags: W
HStem: 0 35<339.803 548.044> 1059 35<339.146 545.924>
VStem: 86 36<252.18 842.235> 766 36<253.059 841.489>
LayerCount: 2
UndoRedoHistory
Layer: 1
Undoes
EndUndoes
Redoes
EndRedoes
EndUndoRedoHistory
Fore
SplineSet
444 1094 m 0
 498 1094 548 1082 596 1060 c 0
 643 1038 683 1007 717 968 c 0
 718 966 719 964 721 962 c 0
 775 896 802 820 802 736 c 2
 802 358 l 2
 802 293 786 233 754 178 c 0
 722 123 678 80 623 48 c 0
 568 16 508 0 444 0 c 0
 390 0 340 11 293 33 c 0
 246 55 206 85 173 125 c 1
 169 127 167 129 166 133 c 1
 112 198 86 273 86 358 c 2
 86 736 l 2
 86 800 102 860 134 915 c 0
 166 970 209 1014 264 1046 c 0
 319 1078 379 1094 444 1094 c 0
444 1059 m 0
 385 1059 331 1044 282 1015 c 0
 232 986 193 947 165 897 c 1
 136 848 122 794 122 735 c 2
 122 357 l 2
 122 289 141 227 181 170 c 1
 684 951 l 1
 653 985 617 1011 576 1030 c 0
 534 1049 490 1059 444 1059 c 0
707 922 m 1
 205 141 l 1
 235 108 270 82 312 63 c 0
 353 45 397 35 444 35 c 0
 502 35 556 50 606 78 c 1
 655 107 694 146 723 195 c 1
 751 245 766 299 766 357 c 2
 766 735 l 2
 766 804 746 866 707 922 c 1
EndSplineSet
Validated: 1
EndChar

StartChar: Ugrave
Encoding: 217 217 128
Width: 901
VWidth: 0
GlyphClass: 2
Flags: W
HStem: 0 36<341.868 556.132> 1074 20G<106 111.5 786.5 791>
VStem: 92 34<255.845 1088.81> 772 35<253.234 1088.81>
LayerCount: 2
UndoRedoHistory
Layer: 1
Undoes
EndUndoes
Redoes
EndRedoes
EndUndoRedoHistory
Fore
SplineSet
330 1324 m 0
 334 1324 337 1323 339 1321 c 2
 566 1170 l 1
 571 1165 574 1160 574 1155 c 0
 574 1150 572 1146 569 1142 c 0
 565 1138 561 1137 556 1137 c 0
 552 1137 549 1138 547 1140 c 2
 320 1291 l 2
 314 1295 312 1300 312 1306 c 0
 312 1310 313 1314 317 1318 c 0
 320 1322 324 1324 330 1324 c 0
109 1094 m 0
 114 1094 118 1092 121 1089 c 0
 125 1085 126 1081 126 1076 c 2
 126 358 l 2
 126 299 141 245 169 196 c 0
 198 146 237 107 287 79 c 0
 337 50 391 36 449 36 c 0
 507 36 561 50 611 79 c 0
 661 107 700 146 729 196 c 0
 757 245 772 299 772 358 c 2
 772 1076 l 2
 772 1081 773 1085 777 1089 c 0
 780 1092 784 1094 789 1094 c 0
 793 1094 797 1092 801 1089 c 0
 805 1085 807 1081 807 1076 c 2
 807 358 l 2
 807 293 791 233 759 178 c 0
 727 123 683 80 629 48 c 0
 574 16 514 0 449 0 c 0
 384 0 324 16 269 48 c 0
 214 80 171 123 139 178 c 0
 107 233 92 293 92 358 c 2
 92 1076 l 2
 92 1081 93 1085 96 1089 c 0
 99 1092 103 1094 109 1094 c 0
EndSplineSet
Validated: 1
EndChar

StartChar: Uacute
Encoding: 218 218 129
Width: 901
VWidth: 0
GlyphClass: 2
Flags: W
HStem: 0 36<341.868 556.132> 1074 20G<106 111.5 786.5 791>
VStem: 92 34<255.845 1088.81> 772 35<253.234 1088.81>
LayerCount: 2
UndoRedoHistory
Layer: 1
Undoes
EndUndoes
Redoes
EndRedoes
EndUndoRedoHistory
Fore
SplineSet
572 1327 m 1
 573 1328 l 1
 577 1328 581 1326 585 1322 c 0
 588 1318 590 1314 590 1310 c 0
 590 1303 587 1298 582 1294 c 2
 356 1143 l 2
 353 1141 349 1140 345 1140 c 0
 340 1140 336 1141 332 1145 c 0
 328 1149 327 1153 327 1158 c 0
 327 1163 329 1168 335 1173 c 2
 562 1324 l 2
 564 1326 568 1327 572 1327 c 1
109 1094 m 0
 114 1094 118 1092 121 1089 c 0
 125 1085 126 1081 126 1076 c 2
 126 358 l 2
 126 299 141 245 169 196 c 0
 198 146 237 107 287 79 c 0
 337 50 391 36 449 36 c 0
 507 36 561 50 611 79 c 0
 661 107 700 146 729 196 c 0
 757 245 772 299 772 358 c 2
 772 1076 l 2
 772 1081 773 1085 777 1089 c 0
 780 1092 784 1094 789 1094 c 0
 793 1094 797 1092 801 1089 c 0
 805 1085 807 1081 807 1076 c 2
 807 358 l 2
 807 293 791 233 759 178 c 0
 727 123 683 80 629 48 c 0
 574 16 514 0 449 0 c 0
 384 0 324 16 269 48 c 0
 214 80 171 123 139 178 c 0
 107 233 92 293 92 358 c 2
 92 1076 l 2
 92 1081 93 1085 96 1089 c 0
 99 1092 103 1094 109 1094 c 0
EndSplineSet
Validated: 1
EndChar

StartChar: Ucircumflex
Encoding: 219 219 130
Width: 901
VWidth: 0
GlyphClass: 2
Flags: W
HStem: 0 36<341.868 556.132> 1074 20G<106 111.5 786.5 791>
VStem: 92 34<255.845 1088.81> 772 35<253.234 1088.81>
LayerCount: 2
UndoRedoHistory
Layer: 1
Undoes
EndUndoes
Redoes
EndRedoes
EndUndoRedoHistory
Fore
SplineSet
456 1328 m 0
 460 1328 465 1326 469 1322 c 2
 620 1170 l 1
 595 1145 l 1
 456 1285 l 1
 318 1145 l 1
 292 1170 l 1
 444 1322 l 2
 448 1326 452 1328 456 1328 c 0
109 1094 m 0
 114 1094 118 1092 121 1089 c 0
 125 1085 126 1081 126 1076 c 2
 126 358 l 2
 126 299 141 245 169 196 c 0
 198 146 237 107 287 79 c 0
 337 50 391 36 449 36 c 0
 507 36 561 50 611 79 c 0
 661 107 700 146 729 196 c 0
 757 245 772 299 772 358 c 2
 772 1076 l 2
 772 1081 773 1085 777 1089 c 0
 780 1092 784 1094 789 1094 c 0
 793 1094 797 1092 801 1089 c 0
 805 1085 807 1081 807 1076 c 2
 807 358 l 2
 807 293 791 233 759 178 c 0
 727 123 683 80 629 48 c 0
 574 16 514 0 449 0 c 0
 384 0 324 16 269 48 c 0
 214 80 171 123 139 178 c 0
 107 233 92 293 92 358 c 2
 92 1076 l 2
 92 1081 93 1085 96 1089 c 0
 99 1092 103 1094 109 1094 c 0
EndSplineSet
Validated: 1
EndChar

StartChar: Udieresis
Encoding: 220 220 131
Width: 901
VWidth: 0
GlyphClass: 2
Flags: W
HStem: 0 36<341.868 556.036> 1074 20G<105.5 111 786 790.5> 1213 35<311.261 351.814 544.261 584.814> 1288 36<311.234 351.841 544.234 584.841>
VStem: 91 35<253.234 1088.81> 276 35<1248.49 1287.46> 352 36<1248.1 1287.84> 509 35<1248.49 1287.46> 585 35<1248.43 1287.61> 771 35<253.059 1088.81>
LayerCount: 2
UndoRedoHistory
Layer: 1
Undoes
EndUndoes
Redoes
EndRedoes
EndUndoRedoHistory
Fore
SplineSet
332 1324 m 0
 347 1324 360 1318 371 1307 c 0
 382 1296 388 1283 388 1268 c 0
 388 1252 382 1239 371 1229 c 0
 360 1218 347 1213 332 1213 c 0
 316 1213 303 1218 292 1229 c 0
 281 1239 276 1252 276 1268 c 0
 276 1283 281 1296 292 1307 c 0
 303 1318 316 1324 332 1324 c 0
565 1324 m 0
 580 1324 593 1318 604 1308 c 1
 614 1297 620 1284 620 1268 c 0
 620 1252 614 1239 604 1229 c 0
 593 1218 580 1213 565 1213 c 0
 549 1213 536 1218 525 1229 c 0
 514 1239 509 1252 509 1268 c 0
 509 1283 514 1296 525 1307 c 0
 536 1318 549 1324 565 1324 c 0
332 1288 m 0
 326 1288 321 1286 317 1282 c 0
 313 1278 311 1274 311 1268 c 0
 311 1262 313 1258 317 1254 c 0
 321 1250 326 1248 332 1248 c 0
 338 1248 342 1250 346 1254 c 0
 350 1258 352 1262 352 1268 c 0
 352 1274 350 1278 346 1282 c 0
 342 1286 338 1288 332 1288 c 0
565 1288 m 0
 559 1288 554 1286 550 1282 c 0
 546 1278 544 1274 544 1268 c 0
 544 1262 546 1258 550 1254 c 0
 554 1250 559 1248 565 1248 c 0
 571 1248 575 1250 579 1254 c 0
 583 1258 585 1262 585 1268 c 0
 585 1274 583 1278 579 1282 c 0
 575 1286 571 1288 565 1288 c 0
108 1094 m 0
 114 1094 118 1092 121 1089 c 0
 125 1085 126 1081 126 1076 c 2
 126 358 l 2
 126 299 141 245 169 196 c 0
 198 146 237 107 287 79 c 0
 337 50 391 36 449 36 c 0
 507 36 561 50 611 79 c 0
 661 107 700 146 728 196 c 1
 757 245 771 299 771 358 c 2
 771 1076 l 2
 771 1081 773 1085 776 1089 c 1
 780 1092 784 1094 788 1094 c 0
 793 1094 797 1092 801 1089 c 0
 805 1085 806 1081 806 1076 c 2
 806 358 l 2
 806 293 790 233 758 178 c 0
 726 123 683 80 628 48 c 0
 574 16 514 0 449 0 c 0
 384 0 324 16 269 48 c 0
 214 80 171 123 139 178 c 0
 107 233 91 293 91 358 c 2
 91 1076 l 2
 91 1081 93 1085 96 1089 c 0
 99 1092 103 1094 108 1094 c 0
EndSplineSet
Validated: 1
EndChar

StartChar: Yacute
Encoding: 221 221 132
Width: 1130
VWidth: 0
GlyphClass: 2
Flags: W
HStem: -221.672 35.3005<249.248 453.899> 1074 20G<290 296.5 1045 1051>
VStem: 275 35<1083 1093.99> 1033 34<1083 1088.81>
LayerCount: 2
UndoRedoHistory
Layer: 1
Undoes
EndUndoes
Redoes
EndRedoes
EndUndoRedoHistory
Fore
SplineSet
292 1094 m 1
 301 1094 307 1090 310 1083 c 2
 671 70 l 1
 1033 1083 l 2
 1035 1090 1041 1094 1049 1094 c 0
 1053 1094 1057 1092 1061 1089 c 0
 1065 1085 1067 1081 1067 1076 c 0
 1067 1073 1066 1071 1066 1071 c 1
 688 14 l 2
 688 12 687 10 687 8 c 0
 669 -36 644 -76 611 -110 c 0
 578 -144 541 -171 500 -189 c 0
 459 -207 415 -217 368 -221 c 1
 360.853204876 -221.446674695 353.750747147 -221.671662409 346.686025351 -221.671662409 c 0
 306.301976012 -221.671662409 267.150988006 -214.319951828 228 -199 c 1
 157 -173 100 -129 58 -67 c 0
 56 -63 55 -60 55 -58 c 0
 55 -52 56 -48 60 -45 c 0
 64 -41 68 -40 73 -40 c 0
 79 -40 83 -42 87 -47 c 0
 126 -103 177 -143 241 -166 c 1
 276.075774975 -180.03030999 312.689437438 -186.371182542 349.492422502 -186.371182542 c 0
 354.659127448 -186.371182542 359.829563724 -186.246211251 365 -186 c 0
 407 -183 447 -174 484 -158 c 0
 521 -142 554 -118 584 -88 c 1
 613 -57 636 -21 652 18 c 1
 276 1071 l 2
 275 1071 275 1073 275 1076 c 0
 275 1080 276 1084 280 1088 c 0
 284 1092 288 1094 292 1094 c 1
EndSplineSet
Validated: 524293
EndChar

StartChar: agrave
Encoding: 224 224 133
Width: 834
VWidth: 0
GlyphClass: 2
Flags: W
HStem: 0 36<328.485 541.686> 680 36<329.847 539.312> 1074 20G<291.5 295.5>
VStem: 77 36<250.522 464.67> 700 35<4.1875 117 151.762 167 168 170 171 545 546 547 548 563.775 599 710.812>
LayerCount: 2
UndoRedoHistory
Layer: 1
Undoes
EndUndoes
Redoes
EndRedoes
EndUndoRedoHistory
Fore
SplineSet
294 1094 m 0
 297 1094 300 1093 303 1091 c 2
 530 940 l 2
 536 936 538 931 538 925 c 0
 538 920 537 916 533 912 c 0
 529 908 525 907 520 907 c 0
 517 907 514 908 510 910 c 2
 283 1062 l 2
 278 1065 275 1070 275 1076 c 0
 275 1081 277 1085 281 1089 c 0
 285 1092 289 1094 294 1094 c 0
435 716 m 0
 487 716 535 705 581 685 c 0
 627 664 667 635 700 599 c 1
 700 698 l 2
 700 703 702 707 705 711 c 1
 709 714 713 716 718 716 c 0
 723 716 727 714 730 711 c 0
 734 707 735 703 735 698 c 2
 735 548 l 1
 736 547 l 1
 736 546 l 1
 735 545 l 1
 735 171 l 1
 736 170 l 1
 736 169 l 1
 736 168 l 1
 735 167 l 1
 735 18 l 1
 735 17 l 2
 735 12 734 8 730 4 c 0
 727 0 723 -0 718 -0 c 0
 713 -0 709 0 705 4 c 0
 702 8 700 12 700 17 c 2
 700 18 l 1
 700 117 l 1
 667 80 627 51 581 31 c 0
 535 10 487 0 435 0 c 0
 371 0 311 16 256 48 c 0
 201 80 157 123 125 178 c 0
 93 233 77 293 77 358 c 0
 77 422 93 482 125 537 c 0
 157 592 201 636 256 668 c 0
 311 700 371 716 435 716 c 0
435 680 m 0
 377 680 323 665 274 637 c 0
 224 608 185 569 156 520 c 0
 127 470 113 416 113 358 c 0
 113 299 127 245 156 196 c 0
 185 146 224 107 274 79 c 1
 323 50 377 36 436 36 c 0
 490 36 540 48 586 73 c 0
 633 98 671 132 700 175 c 1
 700 541 l 1
 671 583 633 617 586 642 c 0
 540 667 489 680 435 680 c 0
EndSplineSet
Validated: 5
EndChar

StartChar: aacute
Encoding: 225 225 134
Width: 834
VWidth: 0
GlyphClass: 2
Flags: W
HStem: -0 36<328.485 541.686> 680 35<331.078 539.312> 1074 20G<518.5 522.5>
VStem: 77 36<250.485 464.632> 700 35<4.1875 117 151.762 167 168 170 171 545 546 563.775 598 709.859>
LayerCount: 2
UndoRedoHistory
Layer: 1
Undoes
EndUndoes
Redoes
EndRedoes
EndUndoRedoHistory
Fore
SplineSet
520 1094 m 1
 525 1094 529 1092 533 1089 c 0
 537 1085 538 1081 538 1076 c 0
 538 1070 536 1065 530 1062 c 2
 303 910 l 2
 300 908 297 907 294 907 c 0
 289 907 285 908 281 912 c 0
 277 916 276 920 276 925 c 0
 276 931 278 936 284 940 c 2
 511 1091 l 2
 514 1093 517 1094 520 1094 c 1
435 715 m 0
 487 715 535 705 581 685 c 0
 627 664 667 635 700 598 c 1
 700 697 l 2
 700 703 702 707 705 710 c 0
 709 714 713 715 718 715 c 0
 723 715 727 714 730 710 c 1
 734 707 735 703 735 697 c 2
 735 547 l 1
 736 547 l 1
 736 546 l 1
 735 545 l 1
 735 171 l 1
 736 170 l 1
 736 169 l 1
 736 168 l 1
 735 167 l 1
 735 18 l 1
 735 17 l 2
 735 12 734 8 730 4 c 0
 727 0 723 -1 718 -1 c 0
 713 -1 709 0 705 4 c 0
 702 8 700 12 700 17 c 2
 700 18 l 1
 700 117 l 1
 667 80 627 51 581 30 c 0
 535 10 487 -0 435 -0 c 0
 371 -0 311 15 256 47 c 0
 201 79 157 123 125 178 c 0
 93 233 77 293 77 357 c 0
 77 422 93 482 125 537 c 0
 157 592 201 635 256 667 c 0
 311 699 371 715 435 715 c 0
435 680 m 0
 377 680 323 665 274 637 c 0
 224 608 185 569 156 520 c 0
 127 470 113 416 113 358 c 0
 113 299 127 245 156 196 c 0
 185 146 224 107 274 79 c 1
 323 50 377 36 436 36 c 0
 490 36 540 48 586 73 c 0
 633 98 671 132 700 175 c 1
 700 541 l 1
 671 583 633 617 586 642 c 0
 540 667 489 680 435 680 c 0
EndSplineSet
Validated: 5
EndChar

StartChar: acircumflex
Encoding: 226 226 135
Width: 834
VWidth: 0
GlyphClass: 2
Flags: W
HStem: 0 36<328.522 542.263> 680 36<329.912 539.997> 1074 20G<424.5 430>
VStem: 78 35<251.912 463.285> 701 35<4.1875 117 153.626 168 170 546 547 561.942 599 709.859>
LayerCount: 2
UndoRedoHistory
Layer: 1
Undoes
EndUndoes
Redoes
EndRedoes
EndUndoRedoHistory
Fore
SplineSet
427 1094 m 2
 428 1094 l 2
 432 1094 436 1092 440 1089 c 2
 591 938 l 1
 566 913 l 1
 428 1051 l 1
 289 913 l 1
 264 938 l 1
 415 1089 l 2
 418 1092 422 1094 427 1094 c 2
436 716 m 0
 487 716 536 705 582 685 c 0
 628 664 667 635 701 599 c 1
 701 698 l 2
 701 703 702 707 706 710 c 1
 709 714 713 715 718 715 c 0
 723 715 727 714 731 710 c 0
 734 707 736 703 736 698 c 2
 736 548 l 1
 736 547 l 1
 737 546 l 1
 736 546 l 1
 736 545 l 1
 736 171 l 1
 736 170 l 1
 737 169 l 1
 736 168 l 1
 736 167 l 1
 736 18 l 1
 736 17 l 2
 736 12 734 8 731 4 c 0
 727 0 723 -1 718 -1 c 0
 713 -1 709 0 706 4 c 0
 702 8 701 12 701 17 c 2
 701 18 l 1
 701 117 l 1
 667 80 628 51 582 31 c 0
 536 10 487 0 436 0 c 0
 371 0 311 16 256 48 c 0
 201 80 158 123 126 178 c 0
 94 233 78 293 78 358 c 0
 78 422 94 482 126 537 c 0
 158 592 201 636 256 668 c 0
 311 700 371 716 436 716 c 0
436 680 m 0
 377 680 323 665 274 637 c 0
 224 608 185 569 156 520 c 0
 127 470 113 416 113 358 c 0
 113 299 127 245 156 196 c 0
 185 146 224 107 274 79 c 1
 323 50 377 36 436 36 c 0
 490 36 540 48 587 73 c 0
 633 98 671 132 701 175 c 1
 701 541 l 1
 671 583 633 617 587 642 c 0
 540 667 490 680 436 680 c 0
EndSplineSet
Validated: 1
EndChar

StartChar: atilde
Encoding: 227 227 136
Width: 834
VWidth: 0
GlyphClass: 2
Flags: W
HStem: -0 35<330.956 539.312> 545 2<735 736> 679 36<328.33 541.57> 989.231 35.3043<476.548 585.743> 1148.8 35.6519<259.509 370.2>
VStem: 77 35<252.956 461.854> 184.286 34.9136<1003.19 1107.45> 626.465 36.0172<1065.4 1162.81> 700 35<4.1875 116 151.225 166 167 545 545 563.238 598 709.859>
LayerCount: 2
UndoRedoHistory
Layer: 1
Undoes
EndUndoes
Redoes
EndRedoes
EndUndoRedoHistory
Fore
SplineSet
276 1179 m 0
 288.469514256 1182.66750419 300.670016772 1184.45192621 312.700167716 1184.45192621 c 0
 333.472026835 1184.45192621 353.736013417 1179.13199329 374 1169 c 0
 406 1153 428 1128 439 1094 c 1
 440 1093 l 1
 448 1067 463 1048 487 1036 c 0
 501.963409192 1028.5182954 516.926818383 1024.53508479 532.132585894 1024.53508479 c 0
 541.315539936 1024.53508479 550.586884574 1025.98780306 560 1029 c 0
 585 1037 603 1052 615 1076 c 0
 622.481704596 1090.96340919 626.464915213 1105.92681838 626.464915213 1121.13258589 c 0
 626.464915213 1130.31553994 625.012196936 1139.58688457 622 1149 c 0
 620 1154 621 1159 623 1163 c 0
 626 1167 630 1170 634 1172 c 0
 645 1175 652 1171 656 1160 c 0
 660.321428571 1146.25 662.482142857 1132.65433673 662.482142857 1119.27364249 c 0
 662.482142857 1098.59438776 657.321428571 1078.42857143 647 1059 c 0
 631 1027 605 1005 570 995 c 0
 556.923076923 991.153846154 543.99408284 989.230769231 531.213017751 989.230769231 c 0
 510.763313609 989.230769231 490.692307692 994.153846154 471 1004 c 0
 439 1020 418 1046 406 1080 c 1
 406 1081 l 1
 406 1082 l 1
 398 1107 383 1126 359 1138 c 0
 345.2 1145.2 331.04 1148.8 316.304 1148.8 c 0
 306.48 1148.8 296.4 1147.2 286 1144 c 0
 261 1136 242 1121 230 1097 c 0
 222.8 1082.6 219.2 1068.2 219.2 1053.8 c 0
 219.2 1044.2 220.8 1034.6 224 1025 c 0
 228 1014 224 1007 212 1003 c 0
 201 999 194 1002 190 1014 c 0
 186.209118397 1026.88899745 184.286438627 1039.7779949 184.286438627 1052.55803647 c 0
 184.286438627 1073.49057923 189.444498724 1094.13082113 200 1114 c 0
 216 1146 242 1168 276 1179 c 0
435 715 m 0
 487 715 535 705 581 684 c 0
 627 664 667 635 700 598 c 1
 700 697 l 2
 700 703 702 707 705 710 c 0
 709 714 713 715 718 715 c 0
 723 715 727 714 730 710 c 1
 734 707 735 703 735 697 c 2
 735 547 l 1
 736 547 l 1
 736 546 l 1
 736 545 l 1
 736 545 735 545 735 544 c 2
 735 170 l 1
 736 170 l 1
 736 169 l 1
 736 167 l 1
 735 166 l 1
 735 17 l 1
 735 16 l 2
 735 12 734 8 730 4 c 0
 727 0 723 -1 718 -1 c 0
 713 -1 709 0 705 4 c 0
 702 8 700 12 700 16 c 2
 700 17 l 1
 700 116 l 1
 667 80 627 51 581 30 c 0
 535 10 487 -0 435 -0 c 0
 371 -0 311 15 256 47 c 0
 201 79 157 123 125 178 c 0
 93 233 77 293 77 357 c 0
 77 422 93 482 125 537 c 0
 157 592 201 635 256 667 c 0
 311 699 371 715 435 715 c 0
435 679 m 0
 377 679 323 665 273 636 c 0
 224 608 185 569 156 519 c 0
 127 470 112 416 112 357 c 0
 112 299 127 245 156 195 c 0
 185 146 224 107 273 78 c 1
 323 50 377 35 435 35 c 0
 489 35 540 48 586 73 c 0
 633 98 671 132 700 174 c 1
 700 540 l 1
 671 583 633 617 586 642 c 0
 540 667 489 679 435 679 c 0
EndSplineSet
Validated: 524289
EndChar

StartChar: adieresis
Encoding: 228 228 137
Width: 835
VWidth: 0
GlyphClass: 2
Flags: W
HStem: -0 36<329.683 543.621> 545 2<737 738> 680 35<332.298 541.34> 983 36<284.234 321.176 517.352 554.23> 1059 35<284.261 321.176 517.261 554.23>
VStem: 78 36<251.87 463.243> 249 35<1019.44 1058.46> 324 36<1022.41 1055.79> 482 35<1019.44 1058.46> 557 36<1022.41 1055.79> 702 35<-0.993202 116 151.762 166 167 545 545 546.999 547 563.775 598 714.993>
LayerCount: 2
UndoRedoHistory
Layer: 1
Undoes
EndUndoes
Redoes
EndRedoes
EndUndoRedoHistory
Fore
SplineSet
305 1094 m 0
 320 1094 333 1088 344 1078 c 1
 354 1067 360 1054 360 1039 c 0
 360 1023 354 1010 344 999 c 0
 333 988 320 983 305 983 c 0
 289 983 276 988 265 999 c 0
 254 1010 249 1023 249 1039 c 0
 249 1054 254 1067 265 1078 c 0
 276 1088 289 1094 305 1094 c 0
538 1094 m 0
 554 1094 567 1088 577 1078 c 0
 588 1067 593 1054 593 1039 c 0
 593 1023 588 1010 577 999 c 0
 567 988 554 983 538 983 c 0
 523 983 510 988 499 999 c 0
 488 1010 482 1023 482 1039 c 0
 482 1054 488 1067 498 1078 c 1
 509 1088 522 1094 538 1094 c 0
305 1059 m 0
 299 1059 294 1057 290 1053 c 0
 286 1049 284 1045 284 1039 c 0
 284 1033 286 1029 290 1025 c 0
 294 1021 299 1019 305 1019 c 0
 311 1019 315 1021 319 1025 c 0
 323 1029 324 1033 324 1039 c 0
 324 1045 323 1049 319 1053 c 0
 315 1057 311 1059 305 1059 c 0
538 1059 m 0
 532 1059 527 1057 523 1053 c 0
 519 1049 517 1045 517 1039 c 0
 517 1033 519 1029 523 1025 c 0
 527 1021 532 1019 538 1019 c 0
 544 1019 548 1021 552 1025 c 0
 556 1029 557 1033 557 1039 c 0
 557 1045 556 1049 552 1053 c 0
 548 1057 544 1059 538 1059 c 0
436 715 m 0
 488 715 537 705 583 685 c 0
 629 664 669 635 702 598 c 1
 702 697 l 2
 702 703 704 707 708 710 c 0
 712 714 716 715 720 715 c 0
 725 715 729 714 732 710 c 1
 736 707 737 703 737 697 c 2
 737 547 l 1
 738 547 738 546 738 546 c 1
 738 545 l 1
 738 545 737 545 737 544 c 2
 737 170 l 1
 738 170 l 1
 738 169 l 1
 738 167 l 1
 737 166 l 1
 737 17 l 1
 737 16 l 2
 737 12 736 8 732 4 c 0
 729 0 725 -1 720 -1 c 0
 716 -1 712 0 708 4 c 0
 704 8 702 12 702 16 c 2
 702 17 l 1
 702 116 l 1
 669 80 629 51 583 30 c 0
 537 10 488 -0 436 -0 c 0
 372 -0 312 15 257 47 c 0
 202 79 158 123 126 178 c 0
 94 233 78 293 78 357 c 0
 78 422 94 482 126 537 c 0
 158 592 202 635 257 667 c 0
 312 699 372 715 436 715 c 0
436 680 m 0
 378 680 325 665 275 637 c 0
 225 608 186 569 157 520 c 1
 129 470 114 416 114 358 c 0
 114 299 129 245 157 196 c 0
 186 146 225 107 275 79 c 0
 325 50 378 36 436 36 c 0
 491 36 542 48 589 73 c 0
 635 98 673 132 703 175 c 1
 703 541 l 1
 673 583 635 617 589 642 c 0
 542 667 491 680 436 680 c 0
EndSplineSet
Validated: 1
EndChar

StartChar: aring
Encoding: 229 229 138
Width: 837
VWidth: 0
GlyphClass: 2
Flags: W
HStem: 0 36<329.868 544.136> 680 36<331.257 541.858>
VStem: 79 36<250.522 464.67> 703 35<4.1875 117 153.626 168 170 546 546.001 561.942 599 710.812>
LayerCount: 2
UndoRedoHistory
Layer: 1
Undoes
EndUndoes
Redoes
EndRedoes
EndUndoRedoHistory
Fore
SplineSet
437 716 m 0
 489 716 538 705 584 685 c 0
 630 664 669 635 703 599 c 1
 703 698 l 2
 703 703 704 707 708 711 c 0
 712 714 716 716 721 716 c 0
 725 716 729 714 733 711 c 1
 736 707 738 703 738 698 c 2
 738 548 l 2
 738 547 739 546 739 546 c 1
 738 546 l 1
 738 545 l 1
 738 171 l 1
 738 170 l 1
 739 169 l 1
 738 168 l 1
 738 167 l 1
 738 18 l 1
 738 17 l 2
 738 12 736 8 733 4 c 0
 729 0 725 -1 721 -1 c 0
 716 -1 712 0 708 4 c 0
 704 8 703 12 703 17 c 2
 703 18 l 1
 703 117 l 1
 669 80 630 51 584 31 c 0
 538 10 489 0 437 0 c 0
 372 0 312 16 257 48 c 0
 202 80 159 123 127 178 c 0
 95 233 79 293 79 358 c 0
 79 422 95 482 127 537 c 0
 159 592 202 636 257 668 c 0
 312 700 372 716 437 716 c 0
437 680 m 0
 379 680 325 665 275 637 c 0
 225 608 186 569 158 520 c 0
 129 470 115 416 115 358 c 0
 115 299 129 245 158 196 c 1
 186 146 225 107 275 79 c 0
 325 50 379 36 437 36 c 0
 491 36 542 48 589 73 c 0
 635 98 673 132 703 175 c 1
 703 541 l 1
 673 583 635 617 589 642 c 0
 542 667 491 680 437 680 c 0
EndSplineSet
Validated: 1
EndChar

StartChar: ae
Encoding: 230 230 139
Width: 1100
VWidth: 0
GlyphClass: 2
Flags: W
HStem: -1 33<236.349 402.112 690.244 854.585> 226 33<690.94 856.067> 453 33<237.574 401.71> 680 33<239.033 402.693 691.946 854.666>
VStem: 76 33<159.849 325.478> 530 33<0.00679779 120 161.25 323 390 550.375> 983 34<161.398 177.38 386.349 552.24>
LayerCount: 2
UndoRedoHistory
Layer: 1
Undoes
EndUndoes
Redoes
EndRedoes
EndUndoRedoHistory
Fore
SplineSet
320 713 m 0
 370 713 416 698 458 669 c 0
 499 640 529 603 547 557 c 1
 565 603 594 640 635 669 c 0
 676 698 722 713 774 713 c 0
 840 713 897 689 945 642 c 0
 993 594 1017 537 1017 470 c 0
 1017 402 993 345 945 297 c 0
 897 249 840 226 774 226 c 0
 721 226 673 241 630 273 c 1
 628 273 l 2
 627 273 627 274 627 275 c 1
 626 275 l 1
 563 323 l 1
 563 243 l 2
 563 185 583 135 624 94 c 0
 665 52 715 32 774 32 c 0
 818 32 859 45 895 71 c 0
 931 97 956 131 971 173 c 0
 973 181 978 185 987 185 c 0
 991 185 995 183 999 179 c 0
 1002 175 1004 172 1004 168 c 0
 1004 165 1003 163 1003 161 c 0
 986 113 957 74 915 44 c 0
 873 14 826 -1 774 -1 c 0
 729 -1 688 10 651 32 c 0
 613 54 584 83 563 120 c 1
 563 16 l 2
 563 12 561 8 558 5 c 0
 554 1 550 0 546 0 c 0
 542 0 538 1 535 5 c 1
 531 8 530 12 530 16 c 2
 530 120 l 1
 508 83 479 54 442 32 c 0
 404 10 364 -1 320 -1 c 0
 252 -1 195 22 147 70 c 0
 99 118 76 175 76 243 c 0
 76 310 99 367 147 415 c 0
 195 462 252 486 320 486 c 0
 372 486 419 470 463 439 c 1
 463 439 464 438 466 437 c 1
 467 437 l 1
 530 390 l 1
 530 468 l 1
 530 469 l 1
 530 470 l 1
 530 471 l 1
 529 529 508 578 468 619 c 1
 427 659 378 680 320 680 c 0
 266 680 220 662 180 626 c 0
 176 622 172 621 168 621 c 0
 164 621 160 622 156 626 c 0
 152 630 151 634 151 638 c 0
 151 643 153 647 157 650 c 0
 203 692 257 713 320 713 c 0
773 680 m 0
 715 680 665 659 624 618 c 0
 583 577 563 528 563 470 c 2
 563 469 l 1
 563 468 l 1
 563 364 l 1
 646 302 l 1
 647 301 l 1
 683 273 726 259 774 259 c 0
 832 259 881 279 922 320 c 0
 962 361 983 411 983 469 c 0
 983 527 962 577 922 618 c 0
 881 659 831 680 773 680 c 0
320 453 m 0
 261 453 211 432 170 391 c 0
 129 350 109 301 109 243 c 0
 109 185 129 135 170 94 c 0
 211 52 261 32 319 32 c 0
 377 32 427 52 468 93 c 0
 509 134 530 184 530 243 c 2
 530 244 l 1
 530 347 l 1
 447 410 l 1
 446 411 l 1
 409 439 367 453 320 453 c 0
EndSplineSet
Validated: 1
EndChar

StartChar: ccedilla
Encoding: 231 231 140
Width: 813
VWidth: 0
GlyphClass: 2
Flags: W
HStem: -303 36<382.252 491.986> -0 34<332.826 420 454 540.391> 680 35<333.733 540.645>
VStem: 79 35<250.58 461.044> 305 37<-227.411 -154.007> 420 34<-45.0272 0> 533 35<-225.987 -116.617>
LayerCount: 2
UndoRedoHistory
Layer: 1
Undoes
EndUndoes
Redoes
EndRedoes
EndUndoRedoHistory
Fore
SplineSet
437 715 m 0
 498 715 555 700 607 672 c 0
 660 643 702 604 734 556 c 0
 736 554 737 551 737 547 c 0
 737 541 736 537 732 534 c 0
 728 530 724 529 719 529 c 0
 714 529 709 531 705 537 c 0
 676 581 638 615 590 641 c 0
 543 667 492 680 436 680 c 0
 378 680 325 665 275 636 c 0
 225 607 186 568 157 519 c 1
 129 469 114 415 114 357 c 0
 114 268 146 192 208 129 c 0
 270 67 346 35 434 34 c 1
 435 35 l 1
 437 35 l 1
 438 35 l 1
 439 34 l 1
 494 34 545 47 591 73 c 0
 638 99 676 134 705 177 c 0
 709 183 714 185 719 185 c 0
 724 185 728 184 732 180 c 0
 736 177 737 173 737 167 c 0
 737 163 736 160 734 158 c 0
 704 112 664 74 615 46 c 0
 566 18 512 2 454 -0 c 1
 454 -42 l 1
 487 -46 514 -61 536 -85 c 0
 558 -109 568 -138 568 -172 c 0
 568 -208 555 -238 529 -264 c 0
 503 -290 472 -303 436 -303 c 0
 400 -303 370 -290 344 -264 c 0
 318 -238 305 -208 305 -172 c 0
 305 -166 307 -162 311 -159 c 0
 315 -155 319 -154 324 -154 c 0
 328 -154 332 -155 336 -159 c 0
 340 -162 342 -166 342 -172 c 0
 342 -198 351 -220 370 -239 c 0
 388 -257 411 -267 437 -267 c 0
 463 -267 486 -257 505 -239 c 1
 523 -220 533 -197 533 -171 c 0
 533 -145 523 -122 505 -104 c 0
 486 -85 463 -76 437 -76 c 0
 432 -76 428 -74 425 -71 c 0
 421 -67 420 -63 420 -58 c 2
 420 -0 l 1
 357 2 300 20 248 52 c 0
 196 85 154 128 124 182 c 0
 94 236 79 294 79 357 c 0
 79 421 95 481 127 536 c 0
 159 591 202 635 257 667 c 0
 312 699 372 715 437 715 c 0
EndSplineSet
Validated: 1
EndChar

StartChar: egrave
Encoding: 232 232 141
Width: 872
VWidth: 0
GlyphClass: 2
Flags: W
HStem: 0 36<328.522 542.62> 378 36<196.188 753> 680 36<329.912 540.574> 1074 20G<319 323>
VStem: 78 35<251.912 463.285>
LayerCount: 2
UndoRedoHistory
Layer: 1
Undoes
EndUndoes
Redoes
EndRedoes
EndUndoRedoHistory
Fore
SplineSet
322 1094 m 0
 324 1094 327 1093 331 1091 c 2
 558 940 l 2
 563 936 566 931 566 925 c 0
 566 920 564 916 561 912 c 0
 557 908 553 907 548 907 c 0
 545 907 542 908 539 910 c 2
 312 1062 l 2
 306 1065 304 1070 304 1076 c 0
 304 1081 305 1085 309 1089 c 0
 312 1092 316 1094 322 1094 c 0
436 716 m 0
 527 716 607 685 675 624 c 0
 743 563 781 488 791 398 c 1
 791 396 l 1
 792 396 l 1
 792 391 790 387 787 383 c 0
 783 379 779 378 774 378 c 2
 209 378 l 2
 204 378 200 379 196 383 c 0
 192 387 191 391 191 396 c 0
 191 400 192 404 196 408 c 0
 200 412 204 414 209 414 c 2
 753 414 l 1
 739 490 703 554 643 604 c 0
 583 654 514 680 436 680 c 0
 377 680 323 665 274 637 c 0
 224 608 185 569 156 520 c 0
 127 470 113 416 113 358 c 0
 113 299 127 245 156 196 c 0
 185 146 224 107 274 79 c 1
 323 50 377 36 436 36 c 0
 490 36 541 48 589 74 c 0
 636 100 674 135 704 179 c 0
 708 184 713 187 719 187 c 0
 723 187 727 185 731 182 c 1
 734 178 736 174 736 169 c 0
 736 164 735 161 734 159 c 0
 701 110 658 71 606 43 c 0
 553 14 496 0 436 0 c 0
 371 0 311 16 256 48 c 0
 201 80 158 123 126 178 c 0
 94 233 78 293 78 358 c 0
 78 422 94 482 126 537 c 0
 158 592 201 636 256 668 c 0
 311 700 371 716 436 716 c 0
EndSplineSet
Validated: 1
EndChar

StartChar: eacute
Encoding: 233 233 142
Width: 873
VWidth: 0
GlyphClass: 2
Flags: W
HStem: -0 36<328.522 542.62> 377 37<191.007 753> 680 35<331.146 538.65> 1074 20G<546.5 550.5>
VStem: 78 35<251.87 463.243>
LayerCount: 2
UndoRedoHistory
Layer: 1
Undoes
EndUndoes
Redoes
EndRedoes
EndUndoRedoHistory
Fore
SplineSet
548 1094 m 0
 553 1094 557 1092 560 1089 c 0
 564 1085 565 1081 565 1076 c 0
 565 1070 563 1065 557 1062 c 2
 330 910 l 2
 327 908 324 907 321 907 c 0
 316 907 312 908 309 912 c 0
 305 916 304 920 304 925 c 0
 304 931 306 936 312 940 c 2
 539 1091 l 2
 542 1093 545 1094 548 1094 c 0
436 715 m 0
 527 715 607 685 675 624 c 0
 743 563 781 487 791 397 c 1
 791 396 l 1
 792 395 l 1
 792 391 790 387 787 383 c 0
 783 379 779 377 774 377 c 2
 209 377 l 2
 204 377 200 379 196 383 c 0
 192 387 191 391 191 395 c 0
 191 400 192 404 196 408 c 0
 200 412 204 414 209 414 c 2
 753 414 l 1
 739 490 703 554 643 604 c 0
 583 654 514 680 436 680 c 0
 377 680 323 665 274 637 c 0
 224 608 185 569 156 520 c 0
 127 470 113 416 113 358 c 0
 113 299 127 245 156 196 c 0
 185 146 224 107 274 79 c 1
 323 50 377 36 436 36 c 0
 490 36 541 48 589 74 c 0
 636 100 674 135 704 179 c 0
 708 184 713 187 719 187 c 0
 723 187 727 185 731 182 c 1
 734 178 736 174 736 169 c 0
 736 164 735 161 734 159 c 0
 701 110 658 71 606 42 c 1
 553 14 496 -0 436 -0 c 0
 371 -0 311 15 256 47 c 0
 201 79 158 123 126 178 c 0
 94 233 78 293 78 357 c 0
 78 422 94 482 126 537 c 0
 158 592 201 635 256 667 c 0
 311 699 371 715 436 715 c 0
EndSplineSet
Validated: 1
EndChar

StartChar: ecircumflex
Encoding: 234 234 143
Width: 872
VWidth: 0
GlyphClass: 2
Flags: W
HStem: 0 36<328.522 542.62> 377 37<191.007 753> 680 36<329.912 540.574> 1074 20G<451.5 457.5>
VStem: 78 35<251.912 463.285>
LayerCount: 2
UndoRedoHistory
Layer: 1
Undoes
EndUndoes
Redoes
EndRedoes
EndUndoRedoHistory
Fore
SplineSet
454 1094 m 2
 455 1094 l 2
 460 1094 464 1092 467 1089 c 2
 619 938 l 1
 594 913 l 1
 455 1051 l 1
 317 913 l 1
 292 938 l 1
 442 1089 l 2
 445 1092 449 1094 454 1094 c 2
436 716 m 0
 527 716 607 685 675 624 c 0
 743 563 781 488 791 398 c 1
 791 396 l 1
 792 396 l 1
 792 391 790 387 787 383 c 0
 783 379 779 377 774 377 c 2
 209 377 l 2
 204 377 200 379 196 383 c 0
 192 387 191 391 191 396 c 0
 191 400 192 404 196 408 c 0
 200 412 204 414 209 414 c 2
 753 414 l 1
 739 490 703 554 643 604 c 0
 583 654 514 680 436 680 c 0
 377 680 323 665 274 637 c 0
 224 608 185 569 156 520 c 0
 127 470 113 416 113 358 c 0
 113 299 127 245 156 196 c 0
 185 146 224 107 274 79 c 1
 323 50 377 36 436 36 c 0
 490 36 541 48 589 74 c 0
 636 100 674 135 704 179 c 0
 708 184 713 187 719 187 c 0
 723 187 727 185 731 182 c 1
 734 178 736 174 736 169 c 0
 736 164 735 161 734 159 c 0
 701 110 658 71 606 43 c 0
 553 14 496 0 436 0 c 0
 371 0 311 16 256 48 c 0
 201 80 158 123 126 178 c 0
 94 233 78 293 78 358 c 0
 78 422 94 482 126 537 c 0
 158 592 201 636 256 668 c 0
 311 700 371 716 436 716 c 0
EndSplineSet
Validated: 1
EndChar

StartChar: edieresis
Encoding: 235 235 144
Width: 874
VWidth: 0
GlyphClass: 2
Flags: W
HStem: -0 35<332.456 540.631> 377 36<193.001 755> 679 36<329.83 543.528> 983 36<312.234 351.723 545.234 582.176> 1059 35<312.261 351.696 545.261 582.176>
VStem: 78 36<251.715 463.088> 277 35<1019.39 1058.81> 352 36<1019.37 1058.84> 510 35<1019.44 1058.46> 585 36<1022.41 1055.79>
LayerCount: 2
UndoRedoHistory
Layer: 1
Undoes
EndUndoes
Redoes
EndRedoes
EndUndoRedoHistory
Fore
SplineSet
333 1094 m 0
 348 1094 361 1088 372 1078 c 1
 382 1067 388 1054 388 1039 c 0
 388 1023 382 1010 372 999 c 0
 361 988 348 983 333 983 c 0
 317 983 304 988 293 999 c 0
 282 1010 277 1023 277 1039 c 0
 277 1054 282 1067 293 1078 c 0
 304 1088 317 1094 333 1094 c 0
566 1094 m 0
 581 1094 594 1088 605 1078 c 1
 615 1067 621 1054 621 1039 c 0
 621 1023 615 1010 605 999 c 0
 594 988 581 983 566 983 c 0
 550 983 537 988 526 999 c 0
 515 1010 510 1023 510 1039 c 0
 510 1054 515 1067 526 1078 c 0
 537 1088 550 1094 566 1094 c 0
332 1059 m 0
 326 1059 322 1057 318 1053 c 0
 314 1049 312 1045 312 1039 c 0
 312 1033 314 1029 318 1025 c 0
 322 1021 326 1019 332 1019 c 0
 338 1019 342 1021 346 1025 c 0
 350 1029 352 1033 352 1039 c 0
 352 1045 350 1049 346 1053 c 0
 342 1057 338 1059 332 1059 c 0
566 1059 m 0
 560 1059 555 1057 551 1053 c 0
 547 1049 545 1045 545 1039 c 0
 545 1033 547 1029 551 1025 c 0
 555 1021 560 1019 566 1019 c 0
 572 1019 576 1021 580 1025 c 0
 584 1029 585 1033 585 1039 c 0
 585 1045 584 1049 580 1053 c 0
 576 1057 572 1059 566 1059 c 0
436 715 m 0
 528 715 608 685 676 624 c 0
 744 563 783 487 793 397 c 1
 793 396 l 1
 794 395 l 1
 794 391 792 387 788 383 c 0
 784 379 780 377 776 377 c 2
 211 377 l 2
 205 377 201 379 198 383 c 0
 194 387 193 391 193 395 c 0
 193 400 194 404 198 408 c 0
 201 412 205 413 211 413 c 2
 755 413 l 1
 741 490 705 554 645 604 c 0
 585 654 516 679 437 679 c 0
 379 679 325 665 275 636 c 0
 225 608 186 569 157 519 c 0
 129 470 114 416 114 357 c 0
 114 299 129 245 157 195 c 1
 186 146 225 107 275 78 c 0
 325 50 379 35 437 35 c 0
 492 35 543 48 590 74 c 0
 638 100 676 134 705 178 c 0
 709 184 714 186 720 186 c 0
 725 186 729 185 733 181 c 0
 737 178 738 174 738 168 c 0
 738 165 737 162 734 158 c 0
 702 110 660 71 607 42 c 0
 555 14 498 -0 436 -0 c 0
 372 -0 312 15 257 47 c 0
 202 79 158 123 126 178 c 0
 94 233 78 293 78 357 c 0
 78 422 94 482 126 537 c 0
 158 592 202 635 257 667 c 0
 312 699 372 715 436 715 c 0
EndSplineSet
Validated: 1
EndChar

StartChar: igrave
Encoding: 236 236 145
Width: 384
VWidth: 0
GlyphClass: 2
Flags: W
HStem: 0 21G<188.5 193> 696 20G<187.5 193> 1074 20G<75 79.5>
VStem: 173 36<5.1875 710.812>
LayerCount: 2
UndoRedoHistory
Layer: 1
Undoes
EndUndoes
Redoes
EndRedoes
EndUndoRedoHistory
Fore
SplineSet
78 1094 m 0
 81 1094 84 1093 87 1091 c 2
 314 940 l 2
 319 936 322 931 322 925 c 0
 322 920 320 916 317 912 c 0
 313 908 309 907 305 907 c 0
 301 907 298 908 295 910 c 2
 68 1062 l 2
 62 1065 60 1070 60 1076 c 0
 60 1081 61 1085 65 1089 c 0
 68 1092 72 1094 78 1094 c 0
190 716 m 2
 191 716 l 2
 195 716 199 714 203 711 c 0
 207 707 209 703 209 698 c 2
 209 18 l 2
 209 13 207 9 203 5 c 0
 199 1 195 0 191 0 c 0
 186 0 182 1 178 5 c 0
 174 9 173 13 173 18 c 2
 173 698 l 2
 173 703 174 707 178 711 c 0
 181 714 185 716 190 716 c 2
EndSplineSet
Validated: 1
EndChar

StartChar: iacute
Encoding: 237 237 146
Width: 380
VWidth: 0
GlyphClass: 2
Flags: W
HStem: -0 21G<185.5 190> 695 20G<184 190> 1074 20G<299 303.5>
VStem: 169 37<0.00679779 709.859>
LayerCount: 2
UndoRedoHistory
Layer: 1
Undoes
EndUndoes
Redoes
EndRedoes
EndUndoRedoHistory
Fore
SplineSet
301 1094 m 0
 306 1094 310 1092 313 1089 c 0
 317 1085 318 1081 318 1076 c 0
 318 1070 316 1065 310 1062 c 2
 83 910 l 2
 80 908 77 907 74 907 c 0
 69 907 65 908 62 912 c 0
 58 916 57 920 57 925 c 0
 57 931 59 936 65 940 c 2
 292 1091 l 2
 294 1093 297 1094 301 1094 c 0
186 715 m 2
 188 715 l 2
 192 715 196 714 200 710 c 0
 204 707 206 703 206 698 c 2
 206 18 l 2
 206 13 204 9 200 5 c 0
 196 1 192 -0 188 -0 c 0
 183 -0 179 1 175 5 c 0
 171 9 169 13 169 18 c 2
 169 698 l 2
 169 703 171 707 174 710 c 0
 178 714 182 715 186 715 c 2
EndSplineSet
Validated: 1
EndChar

StartChar: icircumflex
Encoding: 238 238 147
Width: 443
VWidth: 0
GlyphClass: 2
Flags: W
HStem: 0 21G<217.5 222.5> 696 20G<217.5 222.5> 1074 20G<217 222.5>
VStem: 202 36<5.1875 710.812>
LayerCount: 2
UndoRedoHistory
Layer: 1
Undoes
EndUndoes
Redoes
EndRedoes
EndUndoRedoHistory
Fore
SplineSet
220 1094 m 0
 225 1094 229 1092 232 1089 c 2
 384 938 l 1
 359 913 l 1
 220 1051 l 1
 82 913 l 1
 57 938 l 1
 207 1089 l 2
 210 1092 214 1094 220 1094 c 0
220 716 m 0
 225 716 229 714 233 711 c 1
 236 707 238 703 238 698 c 2
 238 18 l 2
 238 13 236 9 233 5 c 0
 229 1 225 0 220 0 c 0
 215 -0 211 1 207 5 c 0
 203 9 202 13 202 18 c 2
 202 698 l 2
 202 703 203 707 207 711 c 0
 211 714 215 716 220 716 c 0
EndSplineSet
Validated: 1
EndChar

StartChar: idieresis
Encoding: 239 239 148
Width: 469
VWidth: 0
GlyphClass: 2
Flags: W
HStem: -0 21G<217.5 222.5> 695 20G<217.5 222.5> 983 36<96.2856 136.841 329.286 368.723> 1059 35<96.312 136.814 329.312 366.175>
VStem: 62 34<1019.42 1058.78> 137 36<1019.41 1058.8> 201 36<0.0192642 714.981> 295 34<1019.42 1058.78> 369 37<1019.35 1055.79>
LayerCount: 2
UndoRedoHistory
Layer: 1
Undoes
EndUndoes
Redoes
EndRedoes
EndUndoRedoHistory
Fore
SplineSet
117 1094 m 0
 132 1094 145 1088 156 1078 c 0
 167 1067 173 1054 173 1039 c 0
 173 1023 167 1010 156 999 c 0
 145 988 132 983 117 983 c 0
 101 983 88 988 78 999 c 0
 67 1010 62 1023 62 1039 c 0
 62 1054 67 1067 78 1078 c 0
 88 1088 101 1094 117 1094 c 0
350 1094 m 0
 365 1094 378 1088 389 1078 c 0
 400 1067 406 1054 406 1039 c 0
 406 1023 400 1010 389 999 c 0
 378 988 365 983 350 983 c 0
 334 983 321 988 311 999 c 0
 300 1010 295 1023 295 1039 c 0
 295 1054 300 1067 311 1078 c 0
 321 1088 334 1094 350 1094 c 0
116 1059 m 0
 110 1059 106 1057 102 1053 c 0
 98 1049 96 1045 96 1039 c 0
 96 1033 98 1029 102 1025 c 0
 106 1021 110 1019 116 1019 c 0
 122 1019 127 1021 131 1025 c 0
 135 1029 137 1033 137 1039 c 0
 137 1045 135 1049 131 1053 c 0
 127 1057 122 1059 116 1059 c 0
349 1059 m 0
 343 1059 339 1057 335 1053 c 0
 331 1049 329 1045 329 1039 c 0
 329 1033 331 1029 335 1025 c 0
 339 1021 343 1019 349 1019 c 0
 355 1019 359 1021 363 1025 c 0
 367 1029 369 1033 369 1039 c 0
 369 1045 368 1049 364 1053 c 0
 360 1057 355 1059 349 1059 c 0
220 715 m 0
 225 715 229 714 232 710 c 1
 236 707 237 703 237 697 c 2
 237 17 l 2
 237 13 236 9 232 5 c 0
 229 1 225 -0 220 -0 c 0
 215 -0 211 1 207 5 c 0
 203 9 201 13 201 17 c 2
 201 697 l 2
 201 703 203 707 207 710 c 0
 211 714 215 715 220 715 c 0
EndSplineSet
Validated: 1
EndChar

StartChar: ntilde
Encoding: 241 241 149
Width: 828
VWidth: 0
GlyphClass: 2
Flags: W
HStem: -0 21G<109.5 114.5 714.5 719> 680 36<271.899 483.642>
VStem: 95 35<5.1875 582.854 617 710.812> 699 36<5.1875 465.037>
LayerCount: 2
UndoRedoHistory
Layer: 1
Undoes
EndUndoes
Redoes
EndRedoes
EndUndoRedoHistory
Fore
SplineSet
112 716 m 2
 113 716 l 2
 117 716 121 714 125 711 c 1
 128 707 130 703 130 699 c 2
 130 698 l 1
 130 617 l 1
 200 683 282 716 377 716 c 0
 441 716 500 700 554 669 c 0
 608 637 652 595 684 541 c 0
 716 487 733 429 735 366 c 1
 735 18 l 2
 735 13 733 9 729 5 c 0
 725 1 721 -0 717 -0 c 0
 712 -0 708 1 704 5 c 0
 700 9 699 13 699 18 c 2
 699 365 l 1
 699 366 l 1
 697 453 664 527 602 588 c 0
 539 649 464 680 377 680 c 0
 328 680 282 669 240 649 c 0
 197 629 160 601 130 565 c 1
 130 18 l 2
 130 13 128 9 125 5 c 0
 121 1 117 -0 112 -0 c 0
 107 -0 103 1 100 5 c 0
 96 9 95 13 95 18 c 2
 95 570 l 1
 95 572 l 1
 95 574 l 1
 95 698 l 1
 95 699 l 2
 95 703 96 707 99 711 c 0
 102 714 106 716 112 716 c 2
EndSplineSet
Validated: 1
EndChar

StartChar: ograve
Encoding: 242 242 150
Width: 882
VWidth: 0
GlyphClass: 2
Flags: W
HStem: 0 36<329.237 541.544> 680 36<331.059 541.025> 1074 20G<319.5 323.5>
VStem: 78 35<252.001 463.285> 758 36<251.912 463.285>
LayerCount: 2
UndoRedoHistory
Layer: 1
Undoes
EndUndoes
Redoes
EndRedoes
EndUndoRedoHistory
Fore
SplineSet
322 1094 m 0
 325 1094 328 1093 332 1091 c 2
 559 940 l 2
 564 936 567 931 567 925 c 0
 567 920 565 916 561 912 c 0
 557 908 553 907 549 907 c 0
 545 907 542 908 539 910 c 2
 313 1062 l 2
 307 1065 305 1070 305 1076 c 0
 305 1081 306 1085 310 1089 c 0
 313 1092 317 1094 322 1094 c 0
436 716 m 2
 437 716 l 2
 501 716 561 700 616 668 c 0
 670 636 714 592 746 537 c 0
 778 482 794 422 794 358 c 0
 794 293 778 233 746 178 c 0
 714 123 670 80 615 48 c 0
 560 16 500 0 436 0 c 2
 434 0 l 2
 369 0 309 16 255 48 c 0
 200 80 157 124 125 179 c 0
 93 233 78 293 78 358 c 0
 78 422 94 482 126 537 c 0
 158 592 201 636 256 668 c 0
 311 700 371 716 436 716 c 2
435 680 m 0
 377 680 323 665 274 637 c 0
 224 608 185 569 156 520 c 0
 127 470 113 416 113 358 c 0
 113 299 127 245 156 196 c 0
 185 146 224 107 274 79 c 1
 323 50 377 36 435 36 c 0
 493 36 547 50 597 79 c 0
 647 107 686 146 715 196 c 0
 743 245 758 299 758 358 c 0
 758 416 743 470 715 520 c 1
 686 569 647 608 597 637 c 0
 547 665 493 680 435 680 c 0
EndSplineSet
Validated: 1
EndChar

StartChar: oacute
Encoding: 243 243 151
Width: 882
VWidth: 0
GlyphClass: 2
Flags: W
HStem: -0 35<332.009 539.062> 679 36<328.719 541.025> 1074 20G<547 551>
VStem: 78 35<251.715 463.088> 758 36<251.715 463.088>
LayerCount: 2
UndoRedoHistory
Layer: 1
Undoes
EndUndoes
Redoes
EndRedoes
EndUndoRedoHistory
Fore
SplineSet
549 1094 m 0
 553 1094 557 1092 561 1089 c 0
 565 1085 567 1081 567 1076 c 0
 567 1070 564 1065 559 1062 c 2
 332 910 l 2
 328 908 325 907 322 907 c 0
 317 907 313 908 310 912 c 0
 306 916 305 920 305 925 c 0
 305 931 307 936 313 940 c 2
 539 1091 l 2
 542 1093 545 1094 549 1094 c 0
436 715 m 2
 437 715 l 2
 501 715 561 699 616 667 c 0
 670 635 714 592 746 537 c 0
 778 482 794 422 794 357 c 0
 794 293 778 233 746 178 c 0
 714 123 670 79 615 47 c 0
 560 15 500 -0 436 -0 c 2
 434 -0 l 2
 369 -0 309 16 255 48 c 0
 200 80 157 124 125 178 c 0
 93 233 78 293 78 357 c 0
 78 422 94 482 126 537 c 0
 158 592 201 635 256 667 c 0
 311 699 371 715 436 715 c 2
435 679 m 0
 377 679 323 665 274 636 c 1
 224 608 185 569 156 519 c 0
 127 470 113 416 113 357 c 0
 113 299 127 245 156 195 c 0
 185 146 224 107 274 78 c 0
 323 50 377 35 435 35 c 0
 493 35 547 50 597 78 c 0
 647 107 686 146 715 195 c 1
 743 245 758 299 758 357 c 0
 758 416 743 470 715 519 c 0
 686 569 647 608 597 636 c 0
 547 665 493 679 435 679 c 0
EndSplineSet
Validated: 1
EndChar

StartChar: ocircumflex
Encoding: 244 244 152
Width: 882
VWidth: 0
GlyphClass: 2
Flags: W
HStem: -0 35<332.009 539.062> 679 37<328.279 436 437 543.796> 1074 20G<453.5 458.5>
VStem: 78 35<251.757 463.13> 758 36<251.715 463.088>
LayerCount: 2
UndoRedoHistory
Layer: 1
Undoes
EndUndoes
Redoes
EndRedoes
EndUndoRedoHistory
Fore
SplineSet
456 1094 m 0
 461 1094 465 1092 469 1089 c 2
 620 938 l 1
 595 913 l 1
 456 1051 l 1
 318 913 l 1
 292 938 l 1
 444 1089 l 2
 447 1092 451 1094 456 1094 c 0
436 716 m 1
 437 715 l 1
 501 715 561 699 616 667 c 0
 670 635 714 592 746 537 c 0
 778 482 794 422 794 357 c 0
 794 293 778 233 746 178 c 0
 714 123 670 79 615 47 c 0
 560 15 500 -0 436 -0 c 2
 434 -0 l 2
 369 -0 309 16 255 48 c 0
 200 80 157 124 125 178 c 0
 93 233 78 293 78 358 c 0
 78 422 94 482 126 537 c 0
 158 592 201 636 256 668 c 0
 311 700 371 716 436 716 c 1
435 679 m 0
 377 679 323 665 274 636 c 1
 224 608 185 569 156 519 c 0
 127 470 113 416 113 357 c 0
 113 299 127 245 156 195 c 0
 185 146 224 107 274 78 c 0
 323 50 377 35 435 35 c 0
 493 35 547 50 597 78 c 0
 647 107 686 146 715 195 c 1
 743 245 758 299 758 357 c 0
 758 416 743 470 715 519 c 0
 686 569 647 608 597 636 c 0
 547 665 493 679 435 679 c 0
EndSplineSet
Validated: 1
EndChar

StartChar: otilde
Encoding: 245 245 153
Width: 882
VWidth: 0
GlyphClass: 2
Flags: W
HStem: -0 35<331.845 539.062> 679 36<328.719 540.941> 989.231 35.3043<505.475 613.743> 1149.03 35.4256<288.283 397.598>
VStem: 77 36<250.33 464.478> 212.231 35.3043<1003.19 1107.51> 655.738 34.7443<1066.36 1162.81> 758 36<251.715 463.088>
LayerCount: 2
UndoRedoHistory
Layer: 1
Undoes
EndUndoes
Redoes
EndRedoes
EndUndoRedoHistory
Fore
SplineSet
305 1179 m 0
 317.102763837 1182.66750419 329.071021803 1184.45192621 340.954103984 1184.45192621 c 0
 361.472026835 1184.45192621 381.736013417 1179.13199329 402 1169 c 0
 434 1153 456 1128 467 1094 c 1
 468 1093 l 1
 476 1067 492 1048 515 1036 c 0
 529.963409192 1028.5182954 544.926818383 1024.53508479 560.132585894 1024.53508479 c 0
 569.315539936 1024.53508479 578.586884574 1025.98780306 588 1029 c 0
 613 1037 632 1052 644 1076 c 0
 651.90003701 1090.58468371 655.737846609 1105.16936742 655.737846609 1119.97846894 c 0
 655.737846609 1129.53866082 654.138438763 1139.19237886 651 1149 c 1
 650 1149 l 1
 649 1154 650 1159 652 1163 c 0
 654 1167 658 1170 662 1172 c 0
 673 1175 680 1171 684 1160 c 0
 688.321428571 1146.25 690.482142857 1132.65433673 690.482142857 1119.27364249 c 0
 690.482142857 1098.59438776 685.321428571 1078.42857143 675 1059 c 0
 659 1027 633 1005 598 995 c 0
 584.923076923 991.153846154 571.99408284 989.230769231 559.213017751 989.230769231 c 0
 538.763313609 989.230769231 518.692307692 994.153846154 499 1004 c 0
 467 1020 446 1046 435 1080 c 1
 435 1081 l 1
 434 1082 l 1
 426 1107 411 1126 387 1138 c 0
 372.759124952 1145.43002176 358.134880297 1149.02634746 342.889895657 1149.02634746 c 0
 333.513173729 1149.02634746 323.901619511 1147.66582064 314 1145 c 1
 290 1137 271 1121 259 1097 c 0
 251.518295404 1082.03659081 247.535084787 1067.07318162 247.535084787 1052.10977243 c 0
 247.535084787 1043.07318162 248.987803064 1034.03659081 252 1025 c 0
 256 1014 252 1007 240 1003 c 0
 229 999 222 1002 218 1014 c 0
 214.153846154 1027.07692308 212.230769231 1040.15384615 212.230769231 1053.1169777 c 0
 212.230769231 1073.85798817 217.153846154 1094.30769231 227 1114 c 0
 244 1146 270 1168 305 1179 c 0
435 715 m 2
 436 715 l 2
 501 715 561 699 616 667 c 0
 670 635 714 592 746 537 c 0
 778 482 794 422 794 357 c 0
 794 293 778 233 746 178 c 0
 714 123 670 79 615 47 c 0
 560 15 500 -0 436 -0 c 2
 434 -0 l 2
 369 -0 309 16 254 48 c 0
 200 80 157 124 125 178 c 0
 93 233 77 293 77 357 c 0
 77 422 93 482 125 537 c 0
 157 592 201 635 256 667 c 0
 311 699 371 715 435 715 c 2
435 679 m 0
 377 679 323 665 274 636 c 1
 224 608 185 569 156 519 c 0
 127 470 113 416 113 357 c 0
 113 299 127 245 156 195 c 0
 185 146 224 107 274 78 c 0
 323 50 377 35 435 35 c 0
 493 35 547 50 597 78 c 0
 647 107 686 146 715 195 c 1
 743 245 758 299 758 357 c 0
 758 416 743 470 715 519 c 0
 686 569 647 608 597 636 c 0
 547 665 493 679 435 679 c 0
EndSplineSet
Validated: 524293
EndChar

